<svg width="12" height="12" viewBox="0 0 12 12" fill="none" xmlns="http://www.w3.org/2000/svg">
<path opacity="0.4" d="M4.86722 9.74997C3.69571 9.74997 2.74219 8.79645 2.74219 7.62494V2.5H1.86722C1.1087 2.5 0.492188 3.11642 0.492188 3.87494V10.6249C0.492188 11.3835 1.1087 12 1.86722 12H8.11716C8.87567 12 9.49219 11.3835 9.49219 10.6249V9.74997H4.86722Z" fill="#136BCF"/>
<path d="M12 1.87503C12 1.11551 11.3845 0.5 10.625 0.5H5.37503C4.61551 0.5 4 1.11551 4 1.87503V8.12497C4 8.88449 4.61551 9.5 5.37503 9.5H10.625C11.3845 9.5 12 8.88449 12 8.12497V1.87503Z" fill="#136BCF"/>
</svg>
