<svg width="70" height="36" viewBox="0 0 70 36" fill="none" xmlns="http://www.w3.org/2000/svg">
<rect x="0.5" y="0.5" width="69" height="35" rx="17.5" fill="white"/>
<rect x="0.5" y="0.5" width="69" height="35" rx="17.5" stroke="#EBEBEB"/>
<path d="M15.148 23V13.284H16.464V23H15.148ZM21.42 23V13.284H22.736V23H21.42ZM16.044 18.576V17.372H21.742V18.576H16.044ZM27.8468 23.14C27.1934 23.14 26.6054 22.986 26.0828 22.678C25.5601 22.37 25.1448 21.9547 24.8368 21.432C24.5288 20.9 24.3748 20.3073 24.3748 19.654C24.3748 19.01 24.5288 18.4313 24.8368 17.918C25.1448 17.3953 25.5601 16.98 26.0828 16.672C26.6054 16.364 27.1934 16.21 27.8468 16.21C28.4908 16.21 29.0741 16.364 29.5968 16.672C30.1288 16.9707 30.5488 17.3813 30.8568 17.904C31.1648 18.4267 31.3188 19.01 31.3188 19.654C31.3188 20.3073 31.1648 20.9 30.8568 21.432C30.5488 21.9547 30.1288 22.37 29.5968 22.678C29.0741 22.986 28.4908 23.14 27.8468 23.14ZM27.8468 21.922C28.2668 21.922 28.6401 21.824 28.9668 21.628C29.2934 21.432 29.5501 21.166 29.7368 20.83C29.9234 20.4847 30.0168 20.0927 30.0168 19.654C30.0168 19.2247 29.9188 18.842 29.7228 18.506C29.5361 18.17 29.2794 17.9087 28.9528 17.722C28.6354 17.526 28.2668 17.428 27.8468 17.428C27.4268 17.428 27.0534 17.526 26.7268 17.722C26.4001 17.9087 26.1434 18.17 25.9568 18.506C25.7701 18.842 25.6768 19.2247 25.6768 19.654C25.6768 20.0927 25.7701 20.4847 25.9568 20.83C26.1434 21.166 26.4001 21.432 26.7268 21.628C27.0534 21.824 27.4268 21.922 27.8468 21.922ZM37.4425 23V19.122C37.4425 18.618 37.2838 18.2027 36.9665 17.876C36.6491 17.5493 36.2385 17.386 35.7345 17.386C35.3985 17.386 35.0998 17.4607 34.8385 17.61C34.5771 17.7593 34.3718 17.9647 34.2225 18.226C34.0731 18.4873 33.9985 18.786 33.9985 19.122L33.4805 18.828C33.4805 18.324 33.5925 17.876 33.8165 17.484C34.0405 17.092 34.3531 16.784 34.7545 16.56C35.1558 16.3267 35.6085 16.21 36.1125 16.21C36.6165 16.21 37.0598 16.336 37.4425 16.588C37.8345 16.84 38.1425 17.1713 38.3665 17.582C38.5905 17.9833 38.7025 18.4127 38.7025 18.87V23H37.4425ZM32.7385 23V16.35H33.9985V23H32.7385ZM43.2224 23.14C42.6064 23.14 42.0557 22.9907 41.5704 22.692C41.085 22.384 40.6977 21.9687 40.4084 21.446C40.1284 20.9233 39.9884 20.3353 39.9884 19.682C39.9884 19.0287 40.1284 18.4407 40.4084 17.918C40.6977 17.3953 41.085 16.98 41.5704 16.672C42.0557 16.364 42.6064 16.21 43.2224 16.21C43.717 16.21 44.165 16.3173 44.5664 16.532C44.9677 16.7373 45.2897 17.0267 45.5324 17.4C45.7844 17.764 45.9244 18.1887 45.9524 18.674V20.676C45.9244 21.152 45.789 21.5767 45.5464 21.95C45.3037 22.3233 44.9817 22.6173 44.5804 22.832C44.179 23.0373 43.7264 23.14 43.2224 23.14ZM43.4324 21.95C43.8524 21.95 44.2164 21.852 44.5244 21.656C44.8417 21.46 45.089 21.194 45.2664 20.858C45.4437 20.5127 45.5324 20.1207 45.5324 19.682C45.5324 19.2247 45.439 18.828 45.2524 18.492C45.075 18.156 44.8277 17.89 44.5104 17.694C44.2024 17.498 43.8384 17.4 43.4184 17.4C42.9984 17.4 42.6297 17.498 42.3124 17.694C41.995 17.89 41.743 18.1607 41.5564 18.506C41.379 18.842 41.2904 19.2293 41.2904 19.668C41.2904 20.116 41.379 20.5127 41.5564 20.858C41.743 21.194 41.995 21.46 42.3124 21.656C42.639 21.852 43.0124 21.95 43.4324 21.95ZM46.7224 23H45.4484V21.208L45.6864 19.584L45.4484 17.974V13.004H46.7224V23ZM51.3848 23.14C50.7781 23.14 50.2275 22.9907 49.7328 22.692C49.2381 22.384 48.8461 21.9687 48.5568 21.446C48.2768 20.9233 48.1368 20.3353 48.1368 19.682C48.1368 19.0287 48.2768 18.4407 48.5568 17.918C48.8461 17.3953 49.2335 16.98 49.7188 16.672C50.2135 16.364 50.7688 16.21 51.3848 16.21C51.8888 16.21 52.3368 16.3173 52.7288 16.532C53.1301 16.7373 53.4521 17.0267 53.6948 17.4C53.9375 17.764 54.0728 18.1887 54.1008 18.674V20.676C54.0728 21.152 53.9375 21.5767 53.6948 21.95C53.4615 22.3233 53.1441 22.6173 52.7428 22.832C52.3508 23.0373 51.8981 23.14 51.3848 23.14ZM51.5948 21.95C52.2201 21.95 52.7241 21.74 53.1068 21.32C53.4895 20.8907 53.6808 20.3447 53.6808 19.682C53.6808 19.2247 53.5921 18.828 53.4148 18.492C53.2468 18.1467 53.0041 17.8807 52.6868 17.694C52.3695 17.498 52.0008 17.4 51.5808 17.4C51.1608 17.4 50.7875 17.498 50.4608 17.694C50.1435 17.89 49.8915 18.1607 49.7048 18.506C49.5275 18.842 49.4388 19.2293 49.4388 19.668C49.4388 20.116 49.5275 20.5127 49.7048 20.858C49.8915 21.194 50.1481 21.46 50.4748 21.656C50.8015 21.852 51.1748 21.95 51.5948 21.95ZM53.5968 23V21.208L53.8348 19.584L53.5968 17.974V16.35H54.8708V23H53.5968Z" fill="#383838"/>
</svg>
