<svg width="435" height="54" viewBox="0 0 435 54" fill="none" xmlns="http://www.w3.org/2000/svg">
<g filter="url(#filter0_i_3420_6999)">
<rect width="435" height="54" rx="8" fill="#153481"/>
<path d="M186.98 28.776V27.176H189.78C190.164 27.176 190.5 27.1013 190.788 26.952C191.087 26.792 191.321 26.5733 191.492 26.296C191.663 26.008 191.748 25.672 191.748 25.288C191.748 24.904 191.663 24.5733 191.492 24.296C191.321 24.008 191.087 23.7893 190.788 23.64C190.5 23.48 190.164 23.4 189.78 23.4H186.98V21.8H189.876C190.58 21.8 191.209 21.944 191.764 22.232C192.329 22.52 192.772 22.9253 193.092 23.448C193.423 23.9707 193.588 24.584 193.588 25.288C193.588 25.992 193.423 26.6053 193.092 27.128C192.772 27.6507 192.329 28.056 191.764 28.344C191.209 28.632 190.58 28.776 189.876 28.776H186.98ZM185.716 33V21.8H187.556V33H185.716ZM195.132 33V21.48H196.892V33H195.132ZM202.067 33.16C201.374 33.16 200.744 32.984 200.179 32.632C199.624 32.28 199.182 31.8053 198.851 31.208C198.531 30.6 198.371 29.9227 198.371 29.176C198.371 28.4187 198.531 27.7413 198.851 27.144C199.182 26.536 199.624 26.056 200.179 25.704C200.744 25.3413 201.374 25.16 202.067 25.16C202.654 25.16 203.171 25.288 203.619 25.544C204.078 25.7893 204.44 26.1307 204.707 26.568C204.974 27.0053 205.107 27.5013 205.107 28.056V30.264C205.107 30.8187 204.974 31.3147 204.707 31.752C204.451 32.1893 204.094 32.536 203.635 32.792C203.176 33.0373 202.654 33.16 202.067 33.16ZM202.355 31.496C203.006 31.496 203.528 31.2773 203.923 30.84C204.328 30.4027 204.531 29.8427 204.531 29.16C204.531 28.7013 204.44 28.296 204.259 27.944C204.078 27.592 203.822 27.32 203.491 27.128C203.171 26.9253 202.792 26.824 202.355 26.824C201.928 26.824 201.55 26.9253 201.219 27.128C200.899 27.32 200.643 27.592 200.451 27.944C200.27 28.296 200.179 28.7013 200.179 29.16C200.179 29.6187 200.27 30.024 200.451 30.376C200.643 30.728 200.899 31.0053 201.219 31.208C201.55 31.4 201.928 31.496 202.355 31.496ZM204.419 33V30.936L204.723 29.064L204.419 27.208V25.32H206.179V33H204.419ZM211.668 33.16C210.911 33.16 210.223 32.984 209.604 32.632C208.996 32.28 208.516 31.8 208.164 31.192C207.812 30.584 207.636 29.9067 207.636 29.16C207.636 28.4027 207.812 27.7253 208.164 27.128C208.516 26.52 208.996 26.04 209.604 25.688C210.223 25.336 210.911 25.16 211.668 25.16C212.266 25.16 212.82 25.2773 213.332 25.512C213.855 25.736 214.298 26.0613 214.66 26.488L213.508 27.656C213.284 27.3893 213.012 27.192 212.692 27.064C212.383 26.9253 212.042 26.856 211.668 26.856C211.231 26.856 210.842 26.9573 210.5 27.16C210.17 27.352 209.908 27.6187 209.716 27.96C209.535 28.3013 209.444 28.7013 209.444 29.16C209.444 29.608 209.535 30.008 209.716 30.36C209.908 30.7013 210.17 30.9733 210.5 31.176C210.842 31.368 211.231 31.464 211.668 31.464C212.042 31.464 212.383 31.4 212.692 31.272C213.012 31.1333 213.284 30.9307 213.508 30.664L214.66 31.832C214.298 32.2587 213.855 32.5893 213.332 32.824C212.82 33.048 212.266 33.16 211.668 33.16ZM219.341 33.16C218.573 33.16 217.88 32.9893 217.261 32.648C216.653 32.296 216.168 31.816 215.805 31.208C215.453 30.6 215.277 29.9173 215.277 29.16C215.277 28.4027 215.453 27.7253 215.805 27.128C216.157 26.52 216.632 26.04 217.229 25.688C217.837 25.336 218.509 25.16 219.245 25.16C219.96 25.16 220.589 25.3253 221.133 25.656C221.688 25.9867 222.12 26.44 222.429 27.016C222.749 27.592 222.909 28.248 222.909 28.984C222.909 29.112 222.898 29.2453 222.877 29.384C222.866 29.512 222.845 29.656 222.813 29.816H216.509V28.376H221.901L221.245 28.952C221.224 28.4827 221.133 28.088 220.973 27.768C220.813 27.448 220.584 27.2027 220.285 27.032C219.997 26.8613 219.64 26.776 219.213 26.776C218.765 26.776 218.376 26.872 218.045 27.064C217.714 27.256 217.458 27.528 217.277 27.88C217.096 28.2213 217.005 28.632 217.005 29.112C217.005 29.592 217.101 30.0133 217.293 30.376C217.485 30.7387 217.757 31.0213 218.109 31.224C218.461 31.416 218.866 31.512 219.325 31.512C219.72 31.512 220.082 31.4427 220.413 31.304C220.754 31.1653 221.042 30.9627 221.277 30.696L222.397 31.832C222.024 32.2693 221.57 32.6 221.037 32.824C220.504 33.048 219.938 33.16 219.341 33.16ZM229.027 33V31.4H232.243C232.808 31.4 233.246 31.224 233.555 30.872C233.864 30.52 234.019 30.1147 234.019 29.656C234.019 29.3467 233.95 29.0587 233.811 28.792C233.672 28.5253 233.47 28.312 233.203 28.152C232.936 27.992 232.616 27.912 232.243 27.912H229.027V26.312H231.971C232.451 26.312 232.835 26.1893 233.123 25.944C233.411 25.6987 233.555 25.336 233.555 24.856C233.555 24.376 233.411 24.0133 233.123 23.768C232.835 23.5227 232.451 23.4 231.971 23.4H229.027V21.8H232.019C232.776 21.8 233.406 21.9387 233.907 22.216C234.408 22.4933 234.782 22.8507 235.027 23.288C235.272 23.7253 235.395 24.1947 235.395 24.696C235.395 25.2827 235.23 25.8 234.899 26.248C234.579 26.696 234.104 27.0587 233.475 27.336L233.619 26.76C234.323 27.048 234.872 27.4533 235.267 27.976C235.662 28.4987 235.859 29.112 235.859 29.816C235.859 30.392 235.715 30.92 235.427 31.4C235.15 31.88 234.734 32.2693 234.179 32.568C233.635 32.856 232.963 33 232.163 33H229.027ZM227.763 33V21.8H229.603V33H227.763ZM237.492 33V25.32H239.252V33H237.492ZM238.372 23.912C238.073 23.912 237.823 23.8107 237.62 23.608C237.428 23.4053 237.332 23.1547 237.332 22.856C237.332 22.5573 237.428 22.3067 237.62 22.104C237.823 21.9013 238.073 21.8 238.372 21.8C238.681 21.8 238.932 21.9013 239.124 22.104C239.316 22.3067 239.412 22.5573 239.412 22.856C239.412 23.1547 239.316 23.4053 239.124 23.608C238.932 23.8107 238.681 23.912 238.372 23.912ZM244.442 33.16C243.749 33.16 243.119 32.984 242.554 32.632C241.999 32.28 241.557 31.8053 241.226 31.208C240.906 30.6 240.746 29.9227 240.746 29.176C240.746 28.4187 240.906 27.7413 241.226 27.144C241.557 26.536 241.999 26.056 242.554 25.704C243.119 25.3413 243.749 25.16 244.442 25.16C245.029 25.16 245.546 25.288 245.994 25.544C246.453 25.7893 246.815 26.1307 247.082 26.568C247.349 27.0053 247.482 27.5013 247.482 28.056V30.264C247.482 30.8187 247.349 31.3147 247.082 31.752C246.826 32.1893 246.469 32.536 246.01 32.792C245.551 33.0373 245.029 33.16 244.442 33.16ZM244.73 31.496C245.167 31.496 245.546 31.4 245.866 31.208C246.197 31.0053 246.453 30.728 246.634 30.376C246.815 30.024 246.906 29.6187 246.906 29.16C246.906 28.7013 246.815 28.296 246.634 27.944C246.453 27.592 246.197 27.32 245.866 27.128C245.546 26.9253 245.173 26.824 244.746 26.824C244.309 26.824 243.925 26.9253 243.594 27.128C243.274 27.32 243.018 27.592 242.826 27.944C242.645 28.296 242.554 28.7013 242.554 29.16C242.554 29.6187 242.645 30.024 242.826 30.376C243.018 30.728 243.274 31.0053 243.594 31.208C243.925 31.4 244.303 31.496 244.73 31.496ZM248.554 33H246.794V30.936L247.098 29.064L246.794 27.208V21.48H248.554V33Z" fill="white"/>
</g>
<defs>
<filter id="filter0_i_3420_6999" x="0" y="0" width="435" height="54" filterUnits="userSpaceOnUse" color-interpolation-filters="sRGB">
<feFlood flood-opacity="0" result="BackgroundImageFix"/>
<feBlend mode="normal" in="SourceGraphic" in2="BackgroundImageFix" result="shape"/>
<feColorMatrix in="SourceAlpha" type="matrix" values="0 0 0 0 0 0 0 0 0 0 0 0 0 0 0 0 0 0 127 0" result="hardAlpha"/>
<feOffset/>
<feGaussianBlur stdDeviation="0.5"/>
<feComposite in2="hardAlpha" operator="arithmetic" k2="-1" k3="1"/>
<feColorMatrix type="matrix" values="0 0 0 0 0 0 0 0 0 0 0 0 0 0 0 0 0 0 0.12 0"/>
<feBlend mode="normal" in2="shape" result="effect1_innerShadow_3420_6999"/>
</filter>
</defs>
</svg>
