<svg width="23" height="18" viewBox="0 0 23 18" fill="none" xmlns="http://www.w3.org/2000/svg">
<path d="M22.6667 15.3333V16.6667C22.6667 17.0333 22.3667 17.3333 22 17.3333C21.6333 17.3333 21.3333 17.0333 21.3333 16.6667V15.3333C21.3333 14.2333 20.4333 13.3333 19.3333 13.3333H13.9L15.7467 14.8133C16.04 15.04 16.0867 15.46 15.8533 15.7467C15.72 15.9133 15.5267 16 15.3333 16C15.1867 16 15.04 15.9533 14.92 15.8533L12.2333 13.7067C11.92 13.4533 11.7333 13.0733 11.7333 12.6667C11.7333 12.26 11.92 11.88 12.2333 11.6267L14.92 9.48C15.2067 9.24667 15.6267 9.29333 15.8533 9.58667C16.0867 9.87333 16.04 10.2933 15.7467 10.52L13.9 12H19.3333C21.1733 12 22.6667 13.4933 22.6667 15.3333ZM10.6667 12H2C1.63333 12 1.33333 11.7 1.33333 11.3333V2.11333L9.65333 7.23333C9.76 7.3 9.88 7.33333 10 7.33333C10.12 7.33333 10.24 7.3 10.3467 7.23333L18.6667 2.11333V10.6667C18.6667 11.0333 18.9667 11.3333 19.3333 11.3333C19.7 11.3333 20 11.0333 20 10.6667V2C20 0.9 19.1 0 18 0H2C0.9 0 0 0.9 0 2V11.3333C0 12.4333 0.9 13.3333 2 13.3333H10.6667C11.0333 13.3333 11.3333 13.0333 11.3333 12.6667C11.3333 12.3 11.0333 12 10.6667 12Z" fill="#707070"/>
</svg>
