<svg width="44" height="44" viewBox="0 0 44 44" fill="none" xmlns="http://www.w3.org/2000/svg">
<rect width="44" height="44" rx="7.33333" fill="#F5FAFF"/>
<path fill-rule="evenodd" clip-rule="evenodd" d="M22 11C21.0513 11 19.4659 11.3644 17.974 11.77C16.4478 12.1825 14.9091 12.6706 14.0044 12.9662C13.6261 13.0912 13.2907 13.3203 13.0368 13.6272C12.7829 13.9342 12.6207 14.3065 12.5689 14.7015C11.7494 20.8574 13.651 25.4196 15.9583 28.4377C16.937 29.7285 18.1036 30.8654 19.4191 31.8106C19.9499 32.186 20.4421 32.4734 20.8601 32.67C21.2451 32.8515 21.659 33 22 33C22.341 33 22.7535 32.8515 23.1399 32.67C23.6443 32.426 24.1265 32.1385 24.5809 31.8106C25.8964 30.8654 27.063 29.7285 28.0418 28.4377C30.349 25.4196 32.2506 20.8574 31.4311 14.7015C31.3796 14.3063 31.2175 13.9336 30.9635 13.6264C30.7096 13.3192 30.3741 13.0899 29.9956 12.9649C28.6822 12.5345 27.3586 12.1356 26.026 11.7686C24.5341 11.3658 22.9488 11 22 11ZM24.9508 18.0757C25.0799 17.9467 25.2549 17.8741 25.4375 17.8741C25.6201 17.8741 25.7952 17.9467 25.9243 18.0757C26.0534 18.2048 26.1259 18.3799 26.1259 18.5625C26.1259 18.7451 26.0534 18.9202 25.9243 19.0492L21.7993 23.1742C21.7354 23.2383 21.6595 23.2891 21.576 23.3237C21.4925 23.3584 21.4029 23.3762 21.3125 23.3762C21.2221 23.3762 21.1325 23.3584 21.049 23.3237C20.9655 23.2891 20.8896 23.2383 20.8258 23.1742L18.7633 21.1117C18.6993 21.0478 18.6486 20.9719 18.614 20.8884C18.5794 20.8049 18.5616 20.7154 18.5616 20.625C18.5616 20.5346 18.5794 20.4451 18.614 20.3616C18.6486 20.2781 18.6993 20.2022 18.7633 20.1383C18.8272 20.0743 18.9031 20.0236 18.9866 19.989C19.0701 19.9544 19.1596 19.9366 19.25 19.9366C19.3404 19.9366 19.4299 19.9544 19.5134 19.989C19.597 20.0236 19.6728 20.0743 19.7368 20.1383L21.3125 21.7154L24.9508 18.0757Z" fill="#136BCF"/>
</svg>
