<svg width="44" height="44" viewBox="0 0 44 44" fill="none" xmlns="http://www.w3.org/2000/svg">
<rect width="44" height="44" rx="7.33333" fill="#F5FAFF"/>
<g clip-path="url(#clip0_2895_7720)">
<path d="M32.4845 15.3552C32.428 15.2452 32.3462 15.1501 32.246 15.0777C32.1457 15.0052 32.0297 14.9575 31.9075 14.9384C31.7853 14.9192 31.6603 14.9292 31.5427 14.9675C31.4251 15.0058 31.3182 15.0714 31.2307 15.1588L28.2144 18.1771C28.0664 18.323 27.8668 18.4048 27.6589 18.4048C27.4511 18.4048 27.2515 18.323 27.1034 18.1771L25.7995 16.8712C25.7266 16.7983 25.6687 16.7117 25.6292 16.6164C25.5897 16.521 25.5694 16.4189 25.5694 16.3157C25.5694 16.2126 25.5897 16.1104 25.6292 16.0151C25.6687 15.9198 25.7266 15.8332 25.7995 15.7602L28.803 12.7562C28.8931 12.6662 28.9599 12.5556 28.9977 12.4341C29.0355 12.3125 29.0432 12.1835 29.0201 12.0583C28.997 11.9331 28.9439 11.8154 28.8652 11.7153C28.7865 11.6152 28.6846 11.5357 28.5684 11.4837C26.2998 10.4695 23.4681 10.9987 21.6826 12.771C20.1656 14.2771 19.7135 16.6306 20.443 19.2282C20.4823 19.3667 20.4825 19.5134 20.4436 19.652C20.4047 19.7907 20.3282 19.9158 20.2226 20.0137L12.0495 27.4783C11.7312 27.7641 11.4743 28.1119 11.2948 28.5003C11.1152 28.8887 11.0166 29.3096 11.0051 29.7373C10.9935 30.1651 11.0692 30.5907 11.2276 30.9882C11.3859 31.3857 11.6236 31.7468 11.9261 32.0495C12.2286 32.3521 12.5896 32.5899 12.9871 32.7485C13.3845 32.907 13.8101 32.9829 14.2379 32.9715C14.6656 32.9602 15.0866 32.8618 15.475 32.6824C15.8635 32.503 16.2114 32.2463 16.4974 31.9281L24.042 23.7369C24.1384 23.6326 24.2615 23.5566 24.3979 23.517C24.5343 23.4775 24.679 23.4759 24.8162 23.5125C25.5557 23.7151 26.3185 23.8203 27.0853 23.8252C28.725 23.8252 30.1639 23.2945 31.2017 22.2719C33.1237 20.3784 33.4168 17.1667 32.4845 15.3552ZM14.3172 31.3905C13.9938 31.4258 13.6675 31.3598 13.3833 31.2018C13.099 31.0437 12.8708 30.8013 12.7302 30.5081C12.5895 30.2148 12.5434 29.8851 12.5981 29.5645C12.6528 29.2439 12.8057 28.9482 13.0356 28.7181C13.2656 28.4881 13.5613 28.3351 13.8819 28.2803C14.2024 28.2255 14.5322 28.2715 14.8255 28.412C15.1188 28.5525 15.3613 28.7807 15.5194 29.0649C15.6776 29.3491 15.7436 29.6754 15.7085 29.9987C15.6697 30.3545 15.5107 30.6863 15.2577 30.9394C15.0047 31.1925 14.6729 31.3517 14.3172 31.3905Z" fill="#136BCF"/>
</g>
<defs>
<clipPath id="clip0_2895_7720">
<rect width="22" height="22" fill="white" transform="translate(11 11)"/>
</clipPath>
</defs>
</svg>
