<svg width="17" height="16" viewBox="0 0 17 16" fill="none" xmlns="http://www.w3.org/2000/svg">
<path d="M15.5264 11.8584C14.8596 12.7936 15.336 12.1254 13.171 15.1622C13.171 15.1622 12.2226 16.798 10.6106 15.4942L0.582859 4.95688C0.582859 4.95688 -0.0807495 3.74779 1.0333 3.09606C5.52139 1.31624 4.52296 1.71223 5.8459 1.18738C5.8459 1.18738 6.67549 0.891392 7.93177 2.40836C8.99286 3.68941 13.9487 9.16154 15.4663 10.8343C15.7247 11.1191 15.7498 11.5454 15.5264 11.8584Z" fill="#136BCF"/>
<path d="M15.0129 12.5782L13.171 15.1617C13.171 15.1617 12.2226 16.7975 10.6106 15.4937L0.582859 4.95642C0.582859 4.95642 -0.0807493 3.74733 1.0333 3.0956L4.84998 1.58203C6.14562 4.19098 9.50643 9.94346 15.0129 12.5782Z" fill="#136BCF"/>
<path d="M14.767 11.7012C14.3465 12.2909 12.5907 14.7539 12.5885 14.7579C12.3885 15.0881 11.9259 15.1316 11.6652 14.8468L1.97244 4.25317C1.69851 3.95344 1.80917 3.47177 2.18696 3.32208L2.68493 3.12486L2.97651 3.373C3.21921 3.57972 3.56068 3.62622 3.84989 3.49214L5.12788 2.90015C5.47653 2.73848 5.66851 2.35447 5.58138 1.97552L5.84003 1.873C5.84003 1.873 6.60479 1.60043 7.76263 2.99893C8.74192 4.18087 13.321 9.23685 14.7127 10.7708C14.9472 11.0294 14.97 11.4168 14.767 11.7012Z" fill="#FFEBDF"/>
<path d="M14.3733 12.2533C12.5414 14.8231 12.5909 14.7533 12.5885 14.7577C12.3885 15.088 11.9259 15.1314 11.6652 14.8466L1.97244 4.25299C1.69851 3.95327 1.80917 3.4716 2.18696 3.32191L2.68493 3.12469L2.97651 3.37282C3.21921 3.57954 3.56068 3.62604 3.84989 3.49197L5.12788 2.89998C5.24499 2.84567 5.34377 2.76658 5.42048 2.67188C6.93134 5.42542 9.90009 9.84767 14.3733 12.2533Z" fill="#FFF3ED"/>
<path d="M5.26811 14.1249C4.46547 15.8037 2.55292 16.5338 1.20941 15.5729C0.162234 14.8224 -0.161254 13.2457 0.506767 11.8482C1.17547 10.4504 2.60587 9.71213 3.84755 10.0567C5.44652 10.5013 6.0677 12.4531 5.26811 14.1249Z" fill="#EB722E"/>
<path d="M4.54985 13.7814C3.88149 15.1792 2.45075 15.9175 1.20941 15.5729C0.162234 14.8224 -0.161254 13.2457 0.506767 11.8482C1.17547 10.4504 2.60587 9.71213 3.84755 10.0567C4.89473 10.8069 5.21821 12.3839 4.54985 13.7814Z" fill="#F89861"/>
<path d="M3.62654 13.4431C4.1319 12.3855 3.93459 11.2381 3.18583 10.8803C2.43708 10.5225 1.42041 11.0899 0.915043 12.1475C0.409679 13.2051 0.606989 14.3525 1.35575 14.7103C2.10451 15.0681 3.12117 14.5007 3.62654 13.4431Z" fill="#FFE9DD"/>
<path d="M14.321 9.50153C14.3221 9.62067 14.298 9.73846 14.2501 9.84776C13.6744 11.1563 12.5281 12.3403 11.6534 13.1132C11.1673 13.5425 10.3983 13.2861 10.2688 12.6522C9.3221 8.0365 6.92802 5.86475 5.71282 5.03244C5.31974 4.76327 5.22877 4.21812 5.51458 3.83693C6.55599 2.44811 7.94193 1.15965 9.33737 0.158404C9.69446 -0.0975347 10.1887 -0.037793 10.4725 0.297575C14.0641 4.53886 14.3122 8.6071 14.321 9.50153Z" fill="#79E9B3"/>
<path d="M14.3202 9.50153C14.3213 9.62067 14.2972 9.73846 14.2493 9.84776C13.6736 11.1563 12.5273 12.3403 11.6526 13.1132C11.2863 13.4367 10.7592 13.3712 10.4662 13.047C11.6808 7.66243 10.0891 2.618 9.14648 0.296896C9.21301 0.247677 9.27649 0.201513 9.33657 0.158404C9.69366 -0.0975347 10.1879 -0.037793 10.4717 0.297575C14.0633 4.53886 14.3114 8.6071 14.3202 9.50153Z" fill="#14D2AA"/>
<path d="M13.2975 9.59185C12.8498 10.2735 12.2731 10.8766 11.7972 11.3172C11.5512 10.6381 10.6205 10.7334 10.6095 10.7222C9.81827 7.91942 8.06845 5.95983 7.03791 4.99921C7.57762 4.31388 7.21544 3.61429 6.96289 3.26976C7.61632 2.44118 8.32167 1.80642 8.88515 1.36719C9.40096 1.75755 10.0178 1.80503 10.6105 1.40928C12.3593 3.73106 13.2195 6.37531 13.5759 7.7419C13.2925 8.04332 12.9068 8.66552 13.2975 9.59185Z" fill="#B4FFC6"/>
<path d="M13.2967 9.59273C12.849 10.2743 12.2722 10.8775 11.7963 11.3181C11.6388 10.8833 11.1986 10.755 10.8283 10.7285C11.1528 7.13008 10.389 3.85617 9.6582 1.68001C9.93553 1.70445 10.2594 1.64403 10.6097 1.41016C12.3585 3.73194 13.2186 6.37618 13.575 7.74277C13.2916 8.0442 12.906 8.6664 13.2967 9.59273Z" fill="#79E9B3"/>
<path d="M15.0467 5.18969C13.9045 6.10088 12.1174 5.54834 11.3596 3.96362C10.6336 2.4453 11.2375 0.796229 12.5304 0.376068C13.6539 0.00573748 14.9808 0.662896 15.5915 1.93987C16.1682 3.14591 15.9139 4.50201 15.0467 5.18969Z" fill="#EB722E"/>
<path d="M15.047 5.18969C13.9235 5.55968 12.5973 4.90184 11.9866 3.6252C11.4103 2.41951 11.6642 1.06378 12.5308 0.376068C13.6543 0.00573748 14.9812 0.662896 15.5918 1.93987C16.1685 3.14591 15.9143 4.50201 15.047 5.18969Z" fill="#F89861"/>
<path d="M14.8315 4.49615C15.4969 4.17817 15.6723 3.15839 15.2232 2.21842C14.774 1.27845 13.8704 0.774224 13.205 1.09221C12.5395 1.41019 12.3641 2.42997 12.8132 3.36994C13.2624 4.30991 14.166 4.81414 14.8315 4.49615Z" fill="#FFE9DD"/>
</svg>
