<svg width="19" height="14" viewBox="0 0 19 14" fill="none" xmlns="http://www.w3.org/2000/svg">
<g filter="url(#filter0_d_2781_11341)">
<path d="M17.0097 2.88414V10.7413C17.0097 11.4367 16.446 12.0005 15.7506 12.0005H2.88219C2.1868 12.0005 1.62305 11.4367 1.62305 10.7413V2.88414C1.62305 2.18875 2.1868 1.625 2.88219 1.625H15.7506C16.446 1.625 17.0097 2.18871 17.0097 2.88414Z" fill="#FFEBE0"/>
</g>
<path d="M15.3867 1.25915V9.11631C15.3867 9.81171 14.8229 10.3755 14.1275 10.3755H1.25914C0.563749 10.3755 0 9.81171 0 9.11631V1.25915C0 0.563749 0.563749 0 1.25914 0H14.1275C14.823 0 15.3867 0.563749 15.3867 1.25915Z" fill="#EB722E"/>
<path opacity="0.12" d="M15.3861 1.26141V9.11966C15.3861 9.81417 14.8227 10.3777 14.1259 10.3777H1.25753C0.587036 10.3777 0.0410331 9.85348 0.00390625 9.19388C0.0279195 9.19824 0.0541467 9.19824 0.0781599 9.19824H9.85396C12.2586 9.19824 14.2068 7.25007 14.2068 4.84762V0.0820322C14.2068 0.058053 14.2068 0.0317917 14.2024 0.0078125C14.8641 0.0449053 15.3861 0.593122 15.3861 1.26141Z" fill="black"/>
<path d="M4.32474 2.30252V3.6742C4.32474 3.90599 4.13683 4.0939 3.90504 4.0939H2.02615C1.79436 4.0939 1.60645 3.90599 1.60645 3.6742V2.30252C1.60645 2.07073 1.79436 1.88281 2.02615 1.88281H3.90501C4.13683 1.88281 4.32474 2.07073 4.32474 2.30252Z" fill="white"/>
<path d="M1.91428 6.42622C2.08375 6.42622 2.22114 6.28883 2.22114 6.11936C2.22114 5.94989 2.08375 5.8125 1.91428 5.8125C1.74481 5.8125 1.60742 5.94989 1.60742 6.11936C1.60742 6.28883 1.74481 6.42622 1.91428 6.42622Z" fill="#E8F1F8"/>
<path d="M2.90159 6.42622C3.07106 6.42622 3.20844 6.28883 3.20844 6.11936C3.20844 5.94989 3.07106 5.8125 2.90159 5.8125C2.73211 5.8125 2.59473 5.94989 2.59473 6.11936C2.59473 6.28883 2.73211 6.42622 2.90159 6.42622Z" fill="#E8F1F8"/>
<path d="M3.88889 6.42622C4.05836 6.42622 4.19575 6.28883 4.19575 6.11936C4.19575 5.94989 4.05836 5.8125 3.88889 5.8125C3.71942 5.8125 3.58203 5.94989 3.58203 6.11936C3.58203 6.28883 3.71942 6.42622 3.88889 6.42622Z" fill="#E8F1F8"/>
<path d="M5.74826 6.42622C5.91774 6.42622 6.05512 6.28883 6.05512 6.11936C6.05512 5.94989 5.91774 5.8125 5.74826 5.8125C5.57879 5.8125 5.44141 5.94989 5.44141 6.11936C5.44141 6.28883 5.57879 6.42622 5.74826 6.42622Z" fill="#E8F1F8"/>
<path d="M6.73655 6.42622C6.90602 6.42622 7.0434 6.28883 7.0434 6.11936C7.0434 5.94989 6.90602 5.8125 6.73655 5.8125C6.56707 5.8125 6.42969 5.94989 6.42969 6.11936C6.42969 6.28883 6.56707 6.42622 6.73655 6.42622Z" fill="#E8F1F8"/>
<path d="M7.72385 6.42622C7.89332 6.42622 8.03071 6.28883 8.03071 6.11936C8.03071 5.94989 7.89332 5.8125 7.72385 5.8125C7.55438 5.8125 7.41699 5.94989 7.41699 6.11936C7.41699 6.28883 7.55438 6.42622 7.72385 6.42622Z" fill="#E8F1F8"/>
<path d="M9.58225 6.42622C9.75172 6.42622 9.88911 6.28883 9.88911 6.11936C9.88911 5.94989 9.75172 5.8125 9.58225 5.8125C9.41278 5.8125 9.27539 5.94989 9.27539 6.11936C9.27539 6.28883 9.41278 6.42622 9.58225 6.42622Z" fill="#E8F1F8"/>
<path d="M10.5705 6.42622C10.74 6.42622 10.8774 6.28883 10.8774 6.11936C10.8774 5.94989 10.74 5.8125 10.5705 5.8125C10.4011 5.8125 10.2637 5.94989 10.2637 6.11936C10.2637 6.28883 10.4011 6.42622 10.5705 6.42622Z" fill="#E8F1F8"/>
<path d="M11.5588 6.42622C11.7283 6.42622 11.8657 6.28883 11.8657 6.11936C11.8657 5.94989 11.7283 5.8125 11.5588 5.8125C11.3893 5.8125 11.252 5.94989 11.252 6.11936C11.252 6.28883 11.3893 6.42622 11.5588 6.42622Z" fill="#E8F1F8"/>
<path d="M13.781 8.0692C13.781 8.30156 13.5926 8.48996 13.3602 8.48996H7.78014C7.54777 8.48996 7.35938 8.30156 7.35938 8.0692C7.35938 7.83683 7.54777 7.64844 7.78014 7.64844H13.3602C13.5926 7.64844 13.781 7.83683 13.781 8.0692Z" fill="#E8F1F8"/>
<path d="M13.7816 2.30357C13.7816 2.53594 13.5932 2.72433 13.3609 2.72433H12.076C11.8437 2.72433 11.6553 2.53594 11.6553 2.30357C11.6553 2.07121 11.8437 1.88281 12.076 1.88281H13.3609C13.5932 1.88281 13.7816 2.07121 13.7816 2.30357Z" fill="#E8F1F8"/>
<defs>
<filter id="filter0_d_2781_11341" x="1.12305" y="1.125" width="17.3867" height="12.375" filterUnits="userSpaceOnUse" color-interpolation-filters="sRGB">
<feFlood flood-opacity="0" result="BackgroundImageFix"/>
<feColorMatrix in="SourceAlpha" type="matrix" values="0 0 0 0 0 0 0 0 0 0 0 0 0 0 0 0 0 0 127 0" result="hardAlpha"/>
<feOffset dx="0.5" dy="0.5"/>
<feGaussianBlur stdDeviation="0.5"/>
<feComposite in2="hardAlpha" operator="out"/>
<feColorMatrix type="matrix" values="0 0 0 0 0 0 0 0 0 0 0 0 0 0 0 0 0 0 0.11 0"/>
<feBlend mode="normal" in2="BackgroundImageFix" result="effect1_dropShadow_2781_11341"/>
<feBlend mode="normal" in="SourceGraphic" in2="effect1_dropShadow_2781_11341" result="shape"/>
</filter>
</defs>
</svg>
