<svg width="18" height="16" viewBox="0 0 18 16" fill="none" xmlns="http://www.w3.org/2000/svg">
<path d="M6.78923 15.7699C10.5388 15.7699 13.5785 12.7302 13.5785 8.98063C13.5785 5.23105 10.5388 2.19141 6.78923 2.19141C3.03964 2.19141 0 5.23105 0 8.98063C0 12.7302 3.03964 15.7699 6.78923 15.7699Z" fill="#EB722E" fill-opacity="0.1"/>
<path d="M6.86648 14.2291L6.78037 14.0824C5.46498 11.8412 1.96952 7.08512 1.93421 7.03735L1.88379 6.96885L3.07467 5.79192L6.84437 8.4242C9.21787 5.34423 11.4322 3.22877 12.8766 1.99342C14.4566 0.642077 15.4851 0.0199616 15.4955 0.0140001L15.5189 0H17.5389L17.346 0.171846C12.3833 4.59208 7.00433 13.9869 6.95075 14.0812L6.86648 14.2291Z" fill="#EB722E"/>
</svg>
