<?xml version="1.0" encoding="UTF-8"?>
<svg version="1.1" xmlns="http://www.w3.org/2000/svg" width="532" height="469">
<path d="M0 0 C1.67316284 0.0460437 1.67316284 0.0460437 3.38012695 0.09301758 C10.95316412 0.37225851 18.28523468 1.34500977 25.75 2.625 C27.225214 2.86226791 28.70046793 3.0992879 30.17578125 3.3359375 C58.02693262 8.09442567 86.89045872 16.37974664 109.3125 34.3125 C109.93962891 34.79783203 110.56675781 35.28316406 111.21289062 35.78320312 C112.76743665 37.01226078 114.26477484 38.31301589 115.75 39.625 C115.75 40.285 115.75 40.945 115.75 41.625 C116.41 41.625 117.07 41.625 117.75 41.625 C137.71864029 60.48719848 146.58165405 87.29548275 151.17504883 113.48046875 C151.50033861 115.25954833 151.84495171 117.03606103 152.2519989 118.79823303 C153.73083155 125.4057963 154.02748486 131.67668347 153.98046875 138.43359375 C153.98001053 139.5221315 153.97955231 140.61066925 153.9790802 141.73219299 C153.97607886 144.01377464 153.96825683 146.29535463 153.95581055 148.5769043 C153.93742523 152.07673341 153.93530208 155.57629925 153.93554688 159.07617188 C153.93063559 161.29948146 153.92480899 163.52278926 153.91796875 165.74609375 C153.91685593 166.79292831 153.9157431 167.83976288 153.91459656 168.9183197 C153.90821671 169.88685379 153.90183685 170.85538788 153.89526367 171.85327148 C153.89145187 172.70469223 153.88764008 173.55611298 153.88371277 174.43333435 C153.75 176.625 153.75 176.625 152.75 179.625 C152.64925168 180.97929321 152.59551684 182.33744406 152.57421875 183.6953125 C152.29186946 194.46876989 151.01527895 204.20749446 148.25537109 214.60791016 C147.42502182 217.92208684 146.81895244 221.26727672 146.1875 224.625 C145.26930342 229.31965025 144.19203709 233.75610951 142.56640625 238.25 C141.49670162 241.36186803 140.63307228 244.51784133 139.75 247.6875 C136.09404315 260.60893527 136.09404315 260.60893527 132.75 265.625 C132.04187186 267.94608669 131.36975848 270.27877147 130.75 272.625 C130.09 272.625 129.43 272.625 128.75 272.625 C128.46125 273.82125 128.1725 275.0175 127.875 276.25 C126.05018935 281.88623783 122.68554109 286.25166135 119.15478516 290.92626953 C116.60274106 293.94020923 116.60274106 293.94020923 115.75 297.625 C115.09 297.625 114.43 297.625 113.75 297.625 C113.42 298.615 113.09 299.605 112.75 300.625 C110.6875 301.3125 110.6875 301.3125 108.75 301.625 C108.605625 302.223125 108.46125 302.82125 108.3125 303.4375 C107.8627561 305.18650404 107.32107659 306.91177023 106.75 308.625 C105.43352881 309.32437532 104.09977849 309.99229133 102.75 310.625 C102.42 311.285 102.09 311.945 101.75 312.625 C100.09347119 313.64170551 98.42469486 314.63850373 96.75 315.625 C94.88228351 317.0237543 93.02899046 318.4418945 91.1875 319.875 C83.2531221 325.86964669 74.9412193 330.98761649 65.6875 334.703125 C63.66691798 335.58298551 63.66691798 335.58298551 61.80859375 337.10546875 C55.23115233 341.96054411 46.69059433 343.14054127 38.7890625 344.1953125 C36.29318839 344.54819959 33.93974799 345.01270803 31.5 345.625 C26.26971078 346.86890774 20.93859047 347.36390908 15.60058594 347.92773438 C12.49860351 348.26224811 9.72046882 348.63484373 6.75 349.625 C4.33666644 349.77903867 1.94705431 349.88252224 -0.46875 349.94140625 C-1.1905545 349.9623233 -1.91235901 349.98324036 -2.65603638 350.00479126 C-5.02057914 350.07124839 -7.38522095 350.1301013 -9.75 350.1875 C-10.55733582 350.20801422 -11.36467163 350.22852844 -12.19647217 350.24966431 C-55.77111707 351.34741868 -55.77111707 351.34741868 -74.25 348.625 C-75.41402344 348.45742188 -76.57804688 348.28984375 -77.77734375 348.1171875 C-79.91603671 347.79676501 -82.05293641 347.46405408 -84.1875 347.1171875 C-86.24634648 346.78630146 -88.30917107 346.47936398 -90.375 346.1953125 C-96.56440017 345.33061689 -102.61944393 344.16594734 -108.6875 342.6875 C-109.34983643 342.52975098 -110.01217285 342.37200195 -110.69458008 342.20947266 C-115.7501935 340.93195483 -120.13625039 339.07442831 -124.4375 336.125 C-128.03503684 334.20631369 -131.67134592 333.39089998 -135.62890625 332.46875 C-138.38674549 331.58098059 -140.12622113 330.58387369 -142.25 328.625 C-142.25 327.965 -142.25 327.305 -142.25 326.625 C-143.136875 326.37492187 -144.02375 326.12484375 -144.9375 325.8671875 C-148.37899558 324.57662666 -150.46442613 323.11595216 -153.25 320.75 C-156.0017171 318.45277071 -158.58419305 316.41458215 -161.625 314.5 C-164.75382857 312.26512245 -166.20450963 309.85819446 -168.25 306.625 C-169.87449243 304.91720027 -171.54220027 303.24949243 -173.25 301.625 C-177.43502363 297.63926321 -180.40824205 294.15027385 -182.25 288.625 C-182.91 288.625 -183.57 288.625 -184.25 288.625 C-187.63119281 282.69664195 -190.71300485 276.83481706 -193.12890625 270.44921875 C-194.23378303 267.66585321 -195.46489827 264.95811188 -196.71801758 262.23901367 C-199.79091698 255.50014114 -202.34659613 248.71300219 -204.5 241.625 C-204.73380371 240.86783691 -204.96760742 240.11067383 -205.20849609 239.33056641 C-207.28835365 232.2245105 -208.59455638 224.97715355 -209.88275146 217.69555664 C-210.23322331 215.71958741 -210.59413443 213.74547825 -210.95556641 211.77148438 C-214.1753258 193.72236722 -215.71418262 176.09130078 -215.625 157.75 C-215.62067963 156.84785767 -215.61635925 155.94571533 -215.61190796 155.01623535 C-215.54005664 145.09645311 -215.23835589 135.18744346 -214.80078125 125.27734375 C-214.76459686 124.42065094 -214.72841248 123.56395813 -214.69113159 122.68130493 C-214.32375953 115.10429121 -213.15323918 107.98518276 -211.25 100.625 C-211.05277344 99.85833008 -210.85554688 99.09166016 -210.65234375 98.30175781 C-204.18344576 73.6947671 -192.09883133 50.1047343 -171.25 34.625 C-170.59 34.625 -169.93 34.625 -169.25 34.625 C-169.25 33.965 -169.25 33.305 -169.25 32.625 C-167.6 31.965 -165.95 31.305 -164.25 30.625 C-164.25 29.965 -164.25 29.305 -164.25 28.625 C-161.25074658 27.04024955 -158.25045992 25.45746479 -155.25 23.875 C-154.41082031 23.4315625 -153.57164062 22.988125 -152.70703125 22.53125 C-151.02233572 21.64319344 -149.33554671 20.75909746 -147.64672852 19.87890625 C-146.17196751 19.10734951 -144.70239087 18.32566254 -143.24194336 17.52734375 C-137.66758606 14.56236664 -131.87547037 12.83001414 -125.8125 11.125 C-124.75571045 10.82456787 -123.6989209 10.52413574 -122.61010742 10.21459961 C-119.49369302 9.33759848 -116.37317774 8.47756805 -113.25 7.625 C-112.40501953 7.39184082 -111.56003906 7.15868164 -110.68945312 6.91845703 C-101.4728632 4.41344506 -92.87217541 3.02256815 -83.25 3.625 C-83.25 2.965 -83.25 2.305 -83.25 1.625 C-55.59172385 -1.2999084 -27.76528993 -0.83290354 0 0 Z M-82.625 20.9375 C-83.33237305 21.05512695 -84.03974609 21.17275391 -84.76855469 21.29394531 C-88.62679768 22.02875925 -91.33455836 22.95624957 -94.25 25.625 C-92.86176201 35.03725358 -89.30738397 43.724745 -85.59765625 52.4375 C-84.12513834 55.92032496 -82.71145353 59.4247032 -81.3125 62.9375 C-81.06129395 63.56760986 -80.81008789 64.19771973 -80.55126953 64.84692383 C-80.03930212 66.13173688 -79.52758454 67.41664951 -79.01611328 68.70166016 C-78.0126908 71.2207686 -77.00556246 73.7383857 -75.99804688 76.25585938 C-75.24694535 78.13263263 -74.49652108 80.00967584 -73.74609375 81.88671875 C-72.76146329 84.3486152 -71.77398973 86.80931355 -70.78515625 89.26953125 C-67.73608676 96.86389796 -64.73706936 104.47584463 -61.78540039 112.10864258 C-59.06296258 119.14086794 -56.30918769 126.15887051 -53.35546875 133.09765625 C-48.97559647 143.50493791 -45.54000197 153.94352733 -42.68432617 164.87133789 C-40.13918901 176.10094031 -40.13918901 176.10094031 -34.25 185.625 C-30.66656024 185.79177282 -30.66656024 185.79177282 -27.25 185.625 C-18.35068099 168.72126557 -11.11477009 151.07018809 -4.54296875 133.14453125 C-3.31106441 129.79122064 -2.03949221 126.45652721 -0.75 123.125 C0.77077345 119.19113808 2.26292995 115.24867985 3.7265625 111.29321289 C6.60156426 103.53603952 9.65302566 95.85868819 12.75 88.1875 C15.94605242 80.26615227 18.99399291 72.3284853 21.77124023 64.2512207 C23.49748277 59.25420285 25.45288509 54.39370857 27.5234375 49.53125 C30.82592858 41.7062393 33.95615224 33.94193054 35.75 25.625 C22.64595827 19.07297914 0.65171798 21.74206246 -13.65234375 21.37890625 C-14.90047852 21.34705482 -14.90047852 21.34705482 -16.17382812 21.31455994 C-20.35290665 21.20892513 -24.53200656 21.10852456 -28.71142578 21.01733398 C-36.65452741 20.83543283 -44.53814889 20.51565042 -52.45874023 19.84765625 C-62.59139509 19.0393836 -72.59626099 19.22909322 -82.625 20.9375 Z M59.75 31.625 C59.74761165 32.28023651 59.74522329 32.93547302 59.74276257 33.61056519 C59.68338705 49.62238582 59.60769512 65.63403616 59.51428509 81.64569092 C59.46949629 89.38910554 59.43004366 97.13247589 59.40356445 104.87597656 C59.38044625 111.63250271 59.34689697 118.38888678 59.30129844 125.14529991 C59.27755054 128.71617037 59.25870211 132.28690175 59.25238609 135.85784912 C59.18369818 170.21429455 59.18369818 170.21429455 52.75 186.625 C52.46020264 187.38844727 52.17040527 188.15189453 51.87182617 188.93847656 C47.00595921 201.44750338 41.64898562 214.18630616 34.82006836 225.76074219 C32.35787369 230.05034258 30.14814982 234.48329745 27.875 238.875 C24.35904581 245.6641187 20.79594352 252.4201675 17.12060547 259.12451172 C15.31050724 262.42679638 13.52677375 265.74215405 11.75 269.0625 C11.23928955 270.01588257 11.23928955 270.01588257 10.71826172 270.98852539 C8.68284992 274.80815219 6.75130986 278.66147159 4.875 282.5625 C2.09311351 288.20228081 -1.19125286 293.44584756 -4.55786133 298.74682617 C-11.18377705 308.61642749 -11.18377705 308.61642749 -15.25 319.625 C-15.91 319.625 -16.57 319.625 -17.25 319.625 C-18.84555725 323.11528148 -19.57049797 325.77902433 -19.25 329.625 C-16.3727821 332.5022179 -7.57652587 330.93662689 -3.71606445 330.9440918 C7.73488953 330.81977311 18.59306221 329.0922861 29.75 326.625 C31.1426709 326.32021729 31.1426709 326.32021729 32.56347656 326.00927734 C35.27725456 325.40331115 37.98338908 324.77266249 40.6875 324.125 C41.48583252 323.93591064 42.28416504 323.74682129 43.10668945 323.55200195 C48.3983241 322.20756771 52.94637377 320.19050783 57.75 317.625 C59.296875 316.88636719 59.296875 316.88636719 60.875 316.1328125 C66.8663832 313.25108743 72.94066829 310.32117096 77.75 305.625 C77.75 304.965 77.75 304.305 77.75 303.625 C78.36875 303.33625 78.9875 303.0475 79.625 302.75 C81.88325765 301.68779958 81.88325765 301.68779958 83.75 299.625 C84.38292969 299.49222656 85.01585937 299.35945313 85.66796875 299.22265625 C88.38479788 298.44277847 89.28203772 297.2338991 91.0625 295.0625 C94.66875569 290.71038759 94.66875569 290.71038759 96.51171875 288.7734375 C101.20881056 283.81246413 104.22821759 278.34690498 107.26953125 272.28515625 C108.75 269.625 108.75 269.625 110.75 268.625 C118.42874989 255.79773049 122.27675395 241.01458197 125.75 226.625 C126.06710937 225.37589844 126.38421875 224.12679687 126.7109375 222.83984375 C128.59490438 215.16407771 129.81303209 207.46920243 130.75 199.625 C130.84168457 198.93583496 130.93336914 198.24666992 131.02783203 197.53662109 C132.81330219 183.84801652 132.9634373 170.15702174 133 156.375 C133.00776459 155.04003479 133.00776459 155.04003479 133.01568604 153.67810059 C133.09130221 137.16945533 132.42693522 121.10339746 127.4375 105.25 C127.12409668 104.22471191 126.81069336 103.19942383 126.48779297 102.14306641 C122.49326667 89.29137928 117.29993324 78.68908399 109.75 67.625 C109.22664062 66.85414062 108.70328125 66.08328125 108.1640625 65.2890625 C106.22355919 62.50179411 104.29430417 59.88290344 101.75 57.625 C101.09 57.625 100.43 57.625 99.75 57.625 C99.75 56.965 99.75 56.305 99.75 55.625 C98.22049261 54.08115348 96.54572704 52.77140619 94.85986328 51.40063477 C93.54947973 50.29783222 92.26531091 49.16201136 91.02685547 47.97900391 C85.57770453 42.81908287 79.66270197 39.78567457 72.875 36.6875 C71.30878906 35.94790039 71.30878906 35.94790039 69.7109375 35.19335938 C64.92255153 32.65817633 64.92255153 32.65817633 59.75 31.625 Z M-130.75 37.4375 C-131.51183594 37.79972656 -132.27367187 38.16195312 -133.05859375 38.53515625 C-133.78175781 38.89480469 -134.50492188 39.25445312 -135.25 39.625 C-136.425625 40.2025 -137.60125 40.78 -138.8125 41.375 C-139.616875 41.7875 -140.42125 42.2 -141.25 42.625 C-141.25 43.285 -141.25 43.945 -141.25 44.625 C-143.56 45.285 -145.87 45.945 -148.25 46.625 C-148.25 47.285 -148.25 47.945 -148.25 48.625 C-148.81589844 48.88410156 -149.38179687 49.14320312 -149.96484375 49.41015625 C-152.47707405 50.745718 -154.57728237 52.30382623 -156.8125 54.0625 C-157.57691406 54.65933594 -158.34132812 55.25617188 -159.12890625 55.87109375 C-160.961345 57.38631474 -162.68770137 58.83309838 -164.25 60.625 C-164.25 61.285 -164.25 61.945 -164.25 62.625 C-164.91 62.625 -165.57 62.625 -166.25 62.625 C-167.24 65.1 -167.24 65.1 -168.25 67.625 C-168.91 67.625 -169.57 67.625 -170.25 67.625 C-171.79170975 69.69979603 -173.19092005 71.75331938 -174.5625 73.9375 C-174.96839355 74.58267578 -175.37428711 75.22785156 -175.79248047 75.89257812 C-190.90274931 100.31590413 -194.47287538 127.95518788 -194.4375 156.125 C-194.43756042 156.86834595 -194.43762085 157.61169189 -194.43768311 158.37756348 C-194.42363458 170.55926513 -193.8360684 182.53689296 -192.25 194.625 C-192.105625 195.82640625 -191.96125 197.0278125 -191.8125 198.265625 C-191.36080941 201.73396345 -190.82678108 205.17519616 -190.25 208.625 C-190.11867676 209.41374512 -189.98735352 210.20249023 -189.85205078 211.01513672 C-187.88422561 222.61986922 -185.41408664 233.59211624 -181.25 244.625 C-180.9828418 245.35348145 -180.71568359 246.08196289 -180.44042969 246.83251953 C-175.0152705 261.61065316 -167.98814818 274.51777773 -159.25 287.625 C-158.59 287.625 -157.93 287.625 -157.25 287.625 C-157.25 288.285 -157.25 288.945 -157.25 289.625 C-156.59 289.625 -155.93 289.625 -155.25 289.625 C-155.0025 290.19734375 -154.755 290.7696875 -154.5 291.359375 C-153.05683801 293.97510611 -151.36783778 295.77273456 -149.25 297.875 C-148.54875 298.58140625 -147.8475 299.2878125 -147.125 300.015625 C-145.40889232 301.84210399 -145.40889232 301.84210399 -143.25 301.625 C-143.25 302.285 -143.25 302.945 -143.25 303.625 C-128.89987475 315.42953781 -112.05590124 322.86117581 -94.25 327.625 C-93.08210938 327.94210937 -91.91421875 328.25921875 -90.7109375 328.5859375 C-76.30721646 332.05795618 -59.06583314 334.20908279 -44.25 332.625 C-43.59 331.965 -42.93 331.305 -42.25 330.625 C-42.56953035 326.23760247 -43.84165667 323.04378905 -46 319.25 C-46.48984375 318.37601562 -46.9796875 317.50203125 -47.484375 316.6015625 C-48.77674092 314.42283942 -50.10280144 312.29997619 -51.47265625 310.171875 C-55.31007734 304.06341537 -58.57488902 297.62698244 -61.9375 291.25 C-63.3662562 288.54959369 -64.7975905 285.85056492 -66.23046875 283.15234375 C-66.57999603 282.4940004 -66.92952332 281.83565704 -67.28964233 281.15736389 C-70.03505279 275.99948113 -72.87011116 270.89649776 -75.75 265.8125 C-80.37370958 257.6263864 -84.37090802 249.18500743 -88.25 240.625 C-88.91 240.625 -89.57 240.625 -90.25 240.625 C-90.38124268 240.03581787 -90.51248535 239.44663574 -90.64770508 238.83959961 C-91.58330369 235.39946382 -93.3127539 232.34309138 -94.9375 229.1875 C-95.67054095 227.73762062 -96.40229842 226.28709167 -97.1328125 224.8359375 C-97.49407227 224.11889648 -97.85533203 223.40185547 -98.22753906 222.66308594 C-111.26806033 196.66922932 -119.29605054 169.81699092 -119.45532227 140.63598633 C-119.46522186 139.49321228 -119.47512146 138.35043823 -119.48532104 137.17303467 C-119.51664931 133.43438719 -119.54157888 129.69572706 -119.56640625 125.95703125 C-119.5870006 123.34958078 -119.60799769 120.74213346 -119.62937927 118.13468933 C-119.6790319 111.99749258 -119.72407091 105.86027122 -119.76740164 99.72302693 C-119.81701049 92.72892201 -119.87183989 85.73486095 -119.92708123 78.74079859 C-120.04047943 64.36890702 -120.14740807 49.99697257 -120.25 35.625 C-124.29637084 35.55679885 -127.08712939 35.66578541 -130.75 37.4375 Z " fill="#090909" transform="translate(297.25,59.375)"/>
<path d="M0 0 C1.1172924 -0.00204689 1.1172924 -0.00204689 2.25715637 -0.00413513 C4.69882597 -0.00616656 7.14037391 0.00017861 9.58203125 0.0078125 C10.83367065 0.00964035 10.83367065 0.00964035 12.1105957 0.01150513 C24.54304166 0.03270421 36.9671951 0.21564228 49.39453125 0.5703125 C50.11522797 0.58987 50.83592468 0.60942749 51.57846069 0.62957764 C53.62151665 0.6866641 55.66425388 0.75015859 57.70703125 0.81640625 C58.85816406 0.85306396 60.00929688 0.88972168 61.1953125 0.92749023 C64.32377698 1.12827157 67.30684235 1.60684049 70.39453125 2.1328125 C72.1387109 2.24861339 73.88546003 2.33061708 75.6328125 2.37890625 C77.09823486 2.4260376 77.09823486 2.4260376 78.59326172 2.47412109 C79.62080566 2.50586426 80.64834961 2.53760742 81.70703125 2.5703125 C107.3969559 3.52380917 107.3969559 3.52380917 118.7109375 7.40625 C123.08019334 8.58919263 127.54560422 9.00754549 132.03930664 9.48632812 C137.21785005 10.0444719 137.21785005 10.0444719 139.39453125 11.1328125 C141.72530468 11.44073119 144.05695021 11.64176524 146.3984375 11.8515625 C148.39453125 12.1328125 148.39453125 12.1328125 149.39453125 13.1328125 C150.82281707 13.50364533 152.26274248 13.83024464 153.70703125 14.1328125 C155.27009134 14.46350951 156.8326049 14.79680145 158.39453125 15.1328125 C159.13058594 15.2771875 159.86664063 15.4215625 160.625 15.5703125 C161.20894531 15.7559375 161.79289062 15.9415625 162.39453125 16.1328125 C162.72453125 16.7928125 163.05453125 17.4528125 163.39453125 18.1328125 C165.42941822 19.02130214 165.42941822 19.02130214 167.91015625 19.75390625 C169.29267578 20.19766602 169.29267578 20.19766602 170.703125 20.65039062 C171.67378906 20.95396484 172.64445312 21.25753906 173.64453125 21.5703125 C184.52104756 24.98298462 184.52104756 24.98298462 189.39453125 28.1328125 C191.23151076 28.86499866 193.086791 29.55282385 194.95703125 30.1953125 C201.07927912 32.3096533 204.98309231 34.23121368 209.39453125 39.1328125 C209.39453125 39.7928125 209.39453125 40.4528125 209.39453125 41.1328125 C210.28140625 41.3803125 211.16828125 41.6278125 212.08203125 41.8828125 C217.70291318 44.00390002 221.20965658 47.94793783 225.39453125 52.1328125 C226.05453125 52.4628125 226.71453125 52.7928125 227.39453125 53.1328125 C227.39453125 53.7928125 227.39453125 54.4528125 227.39453125 55.1328125 C228.05453125 55.1328125 228.71453125 55.1328125 229.39453125 55.1328125 C230.9354453 56.82869514 232.40376422 58.59102922 233.83203125 60.3828125 C235.00572266 61.84460938 235.00572266 61.84460938 236.203125 63.3359375 C236.92628906 64.25890625 237.64945312 65.181875 238.39453125 66.1328125 C239.27818359 67.23882812 239.27818359 67.23882812 240.1796875 68.3671875 C241.39453125 70.1328125 241.39453125 70.1328125 241.39453125 72.1328125 C242.05453125 72.1328125 242.71453125 72.1328125 243.39453125 72.1328125 C258.81294566 100.48136694 258.81294566 100.48136694 262.71875 115.07421875 C263.38164902 117.40329698 263.38164902 117.40329698 265.39453125 120.1328125 C265.74104551 122.3148818 265.98682957 124.51352691 266.17578125 126.71484375 C266.23479614 127.36547287 266.29381104 128.01610199 266.35461426 128.68644714 C266.54264086 130.77211446 266.71928545 132.85853568 266.89453125 134.9453125 C267.12912709 137.66061394 267.36918905 140.37538002 267.61328125 143.08984375 C267.67281982 143.75936066 267.7323584 144.42887756 267.79370117 145.11868286 C268.3215792 150.8293398 269.1195685 156.48528505 270.00976562 162.15112305 C270.35881037 164.85599838 270.46774372 167.41038157 270.39453125 170.1328125 C271.05453125 170.1328125 271.71453125 170.1328125 272.39453125 170.1328125 C272.42147976 172.09107123 272.44090343 174.04943476 272.45703125 176.0078125 C272.46863281 177.09835938 272.48023438 178.18890625 272.4921875 179.3125 C272.39453125 182.1328125 272.39453125 182.1328125 271.39453125 184.1328125 C270.76723877 188.34291835 270.38923916 192.58626054 269.95703125 196.8203125 C269.81998779 198.12613281 269.68294434 199.43195313 269.54174805 200.77734375 C268.87365618 207.3062292 268.31974481 213.812048 268.03515625 220.37109375 C267.32788834 236.481085 265.32125984 251.95797923 262.45703125 267.8203125 C262.2817691 268.79307129 262.10650696 269.76583008 261.92593384 270.76806641 C260.07005605 280.97717656 258.09941826 291.10925552 255.39453125 301.1328125 C255.14840088 302.08615479 254.90227051 303.03949707 254.64868164 304.02172852 C253.91161854 306.87525317 253.15538622 309.72305054 252.39453125 312.5703125 C252.14703125 313.52357422 251.89953125 314.47683594 251.64453125 315.45898438 C250.37686895 320.18300716 249.05568662 323.99478557 246.39453125 328.1328125 C245.38995789 330.68816168 244.43533716 333.23429181 243.51953125 335.8203125 C241.21140518 342.16548718 238.58253107 348.17263892 235.39453125 354.1328125 C234.72419403 355.46430423 234.05638013 356.79708113 233.39453125 358.1328125 C232.73453125 358.1328125 232.07453125 358.1328125 231.39453125 358.1328125 C231.13800781 359.01453125 230.88148438 359.89625 230.6171875 360.8046875 C227.16423452 370.20377994 219.16960625 377.95699369 212.39453125 385.1328125 C211.78996094 385.77863281 211.18539063 386.42445313 210.5625 387.08984375 C209.22022819 388.48436945 207.81413017 389.81708667 206.39453125 391.1328125 C205.73453125 391.1328125 205.07453125 391.1328125 204.39453125 391.1328125 C204.39453125 391.7928125 204.39453125 392.4528125 204.39453125 393.1328125 C202.74067892 394.48200782 201.07282925 395.81414978 199.39453125 397.1328125 C198.73453125 398.1228125 198.07453125 399.1128125 197.39453125 400.1328125 C196.07453125 400.1328125 194.75453125 400.1328125 193.39453125 400.1328125 C193.39453125 400.7928125 193.39453125 401.4528125 193.39453125 402.1328125 C191.22945666 403.38563656 189.06254768 404.63509692 186.89453125 405.8828125 C186.29382813 406.23085938 185.693125 406.57890625 185.07421875 406.9375 C177.6653361 411.19366663 170.02139885 414.81241656 162.20703125 418.2578125 C161.42650391 418.60457031 160.64597656 418.95132812 159.84179688 419.30859375 C157.69631574 420.25850143 155.54599794 421.19656627 153.39453125 422.1328125 C152.16669922 422.68195313 152.16669922 422.68195313 150.9140625 423.2421875 C147.10902951 424.58722242 143.20964316 425.40401618 139.26953125 426.2578125 C138.45871094 426.43957031 137.64789063 426.62132812 136.8125 426.80859375 C133.57694747 427.5198805 130.72097692 428.1328125 127.39453125 428.1328125 C127.39453125 428.7928125 127.39453125 429.4528125 127.39453125 430.1328125 C120.82721635 432.4237363 114.29727935 432.68044794 107.39453125 433.1328125 C105.76836927 433.26506061 104.14307468 433.40907017 102.51953125 433.5703125 C101.88273437 433.63089844 101.2459375 433.69148438 100.58984375 433.75390625 C98.24195344 434.09863053 98.24195344 434.09863053 95.49609375 435.1328125 C89.72134915 436.83621551 83.61566611 436.56550522 77.64453125 436.6953125 C75.21213924 436.75516717 72.77983612 436.81878821 70.34765625 436.88671875 C68.74132324 436.92261108 68.74132324 436.92261108 67.10253906 436.95922852 C64.2976168 437.02350965 64.2976168 437.02350965 61.39453125 438.1328125 C58.52425149 438.22947111 55.67843411 438.26921395 52.80810547 438.26220703 C51.93145233 438.26395935 51.05479919 438.26571167 50.15158081 438.26751709 C47.25077339 438.27192243 44.3500268 438.26900273 41.44921875 438.265625 C39.43807971 438.2662983 37.42694076 438.26726854 35.415802 438.26852417 C31.20085882 438.26999926 26.98593682 438.26785219 22.77099609 438.26318359 C17.35559852 438.2574791 11.94025043 438.26077107 6.52485466 438.26675606 C2.37289046 438.27036052 -1.77906191 438.26922374 -5.93102646 438.26662827 C-7.92861817 438.26595906 -9.92621094 438.26678721 -11.92380142 438.26910782 C-14.70850749 438.27163326 -17.49313207 438.26779564 -20.27783203 438.26220703 C-21.11109009 438.26423126 -21.94434814 438.26625549 -22.80285645 438.26834106 C-28.49120476 438.24707649 -28.49120476 438.24707649 -29.60546875 437.1328125 C-31.81337234 436.85559289 -34.02903668 436.63986741 -36.24609375 436.44921875 C-36.92412048 436.38878891 -37.60214722 436.32835907 -38.30072021 436.26609802 C-40.48528553 436.07156887 -42.6702873 435.88278567 -44.85546875 435.6953125 C-59.72276062 434.4187086 -74.13333042 432.46978113 -88.66796875 428.9453125 C-89.9307666 428.63924072 -91.19356445 428.33316895 -92.49462891 428.01782227 C-102.35871668 425.56465235 -111.91735386 422.62057605 -121.40380859 418.97802734 C-123.63728303 418.12059903 -125.88014337 417.29194762 -128.125 416.46484375 C-135.74983621 413.58355721 -135.74983621 413.58355721 -138.60546875 412.1328125 C-139.10046875 410.6478125 -139.10046875 410.6478125 -139.60546875 409.1328125 C-141.58939985 408.41974741 -143.59299447 407.76081866 -145.60546875 407.1328125 C-147.59983879 406.02887921 -149.56012198 404.86100176 -151.48046875 403.6328125 C-152.44726562 403.024375 -153.4140625 402.4159375 -154.41015625 401.7890625 C-155.13460937 401.2425 -155.8590625 400.6959375 -156.60546875 400.1328125 C-156.60546875 399.4728125 -156.60546875 398.8128125 -156.60546875 398.1328125 C-157.68828125 397.7615625 -157.68828125 397.7615625 -158.79296875 397.3828125 C-165.89591035 394.22594957 -170.84680305 388.08114462 -175.60546875 382.1328125 C-176.34152344 381.43542969 -177.07757813 380.73804688 -177.8359375 380.01953125 C-181.35612838 376.53295218 -184.09023895 372.49621582 -186.91796875 368.4453125 C-187.46775391 367.67380859 -188.01753906 366.90230469 -188.58398438 366.10742188 C-192.60546875 360.38742236 -192.60546875 360.38742236 -192.60546875 358.1328125 C-193.26546875 358.1328125 -193.92546875 358.1328125 -194.60546875 358.1328125 C-194.85192139 357.55426514 -195.09837402 356.97571777 -195.35229492 356.37963867 C-201.3447416 342.30493834 -201.3447416 342.30493834 -207.62109375 328.35546875 C-208.58400882 326.18126765 -209.42332247 323.99393715 -210.23046875 321.7578125 C-211.41836403 318.22961728 -211.41836403 318.22961728 -213.16796875 315.7578125 C-214.54671656 313.24009912 -215.01502568 311.56656167 -215.53515625 308.78515625 C-215.7050708 307.89505859 -215.87498535 307.00496094 -216.05004883 306.08789062 C-216.2333374 305.11271484 -216.41662598 304.13753906 -216.60546875 303.1328125 C-217.45372929 298.77748353 -218.31145894 294.42402557 -219.16796875 290.0703125 C-219.38904297 288.93142578 -219.61011719 287.79253906 -219.83789062 286.61914062 C-220.05123047 285.53955078 -220.26457031 284.45996094 -220.484375 283.34765625 C-220.67588135 282.36917725 -220.8673877 281.39069824 -221.06469727 280.38256836 C-221.38786709 278.17632596 -221.38786709 278.17632596 -222.60546875 277.1328125 C-223.03879556 274.34127556 -223.4174642 271.56069487 -223.76171875 268.7578125 C-223.86891235 267.91814941 -223.97610596 267.07848633 -224.08654785 266.21337891 C-224.54694798 262.60593357 -224.99733673 258.99725338 -225.44873047 255.38867188 C-225.77881279 252.76127346 -226.11388319 250.13454472 -226.44921875 247.5078125 C-226.55028931 246.68490723 -226.65135986 245.86200195 -226.75549316 245.01416016 C-226.9251247 241.26011662 -226.9251247 241.26011662 -228.60546875 238.1328125 C-228.75881817 236.17830811 -228.84395628 234.21842316 -228.90258789 232.25878906 C-228.94255386 230.99947571 -228.98251984 229.74016235 -229.0236969 228.44268799 C-229.06283012 227.05294224 -229.1018019 225.66319194 -229.140625 224.2734375 C-229.18367061 222.84868275 -229.2270873 221.42393917 -229.27085876 219.99920654 C-229.36200771 216.9997133 -229.4499381 214.00014885 -229.53540039 211.00048828 C-229.64399104 207.19136184 -229.75836685 203.38243966 -229.87497807 199.57355118 C-229.96501642 196.62211957 -230.05288493 193.67062653 -230.14004326 190.71910858 C-230.18148986 189.3175509 -230.22334368 187.91600519 -230.26564217 186.51447296 C-231.0272273 161.0526783 -231.0272273 161.0526783 -229.60546875 156.1328125 C-229.44544439 154.78171866 -229.31537079 153.42683601 -229.2109375 152.0703125 C-227.02520902 125.94067851 -221.42845678 96.4850834 -204.47265625 75.4921875 C-202.43697879 73.19526589 -202.43697879 73.19526589 -201.60546875 70.1328125 C-200.94546875 70.1328125 -200.28546875 70.1328125 -199.60546875 70.1328125 C-199.33734375 69.3903125 -199.06921875 68.6478125 -198.79296875 67.8828125 C-197.65270124 65.24219301 -196.51166569 63.27728406 -194.60546875 61.1328125 C-193.94546875 61.1328125 -193.28546875 61.1328125 -192.60546875 61.1328125 C-192.60546875 60.4728125 -192.60546875 59.8128125 -192.60546875 59.1328125 C-191.94546875 59.1328125 -191.28546875 59.1328125 -190.60546875 59.1328125 C-190.23035156 58.25109375 -190.23035156 58.25109375 -189.84765625 57.3515625 C-188.4411999 54.83940148 -186.93905883 53.46635898 -184.73046875 51.6328125 C-182.56999227 49.81305633 -180.54300484 48.0664446 -178.60546875 46.0078125 C-176.11058572 43.66885966 -173.36650473 42.08020113 -170.41015625 40.37890625 C-168.31372056 39.09549933 -168.31372056 39.09549933 -166.60546875 36.1328125 C-164.01101344 34.8658199 -161.46026945 33.72063416 -158.79296875 32.6328125 C-154.1704199 30.71686012 -149.89288813 28.73477897 -145.60546875 26.1328125 C-144.27515625 25.91625 -144.27515625 25.91625 -142.91796875 25.6953125 C-142.15484375 25.5096875 -141.39171875 25.3240625 -140.60546875 25.1328125 C-140.20328125 24.2046875 -140.20328125 24.2046875 -139.79296875 23.2578125 C-138.15897943 20.33383161 -135.99095739 19.74310139 -132.91015625 18.70703125 C-130.63839975 18.14101734 -128.5635639 17.90716288 -126.23046875 17.7578125 C-121.3386207 17.39241531 -116.91478191 16.19024838 -112.23046875 14.8203125 C-105.75272751 12.94254881 -99.28346919 11.32502342 -92.66796875 10.0078125 C-91.94367676 9.86174561 -91.21938477 9.71567871 -90.47314453 9.56518555 C-87.85533737 9.05755957 -85.2321543 8.59246144 -82.60546875 8.1328125 C-81.30770508 7.89868652 -80.00994141 7.66456055 -78.67285156 7.42333984 C-64.92830006 5.03884733 -51.13410114 4.00036306 -37.23046875 3.0078125 C-33.77155588 2.75558001 -30.31283637 2.50107028 -26.8543396 2.24319458 C-24.7232807 2.08481648 -22.59195968 1.92991457 -20.46035767 1.77902222 C-19.02132584 1.67353561 -19.02132584 1.67353561 -17.55322266 1.56591797 C-16.71562408 1.50612762 -15.87802551 1.44633728 -15.01504517 1.38473511 C-12.56360695 1.16639194 -12.56360695 1.16639194 -10.01600647 0.61383057 C-6.68115819 -0.05163186 -3.38569451 -0.00960533 0 0 Z M-46.98046875 24.0703125 C-48.90197754 24.30669434 -48.90197754 24.30669434 -50.86230469 24.54785156 C-58.9156255 25.60733142 -66.72394665 27.18363869 -74.60546875 29.1328125 C-76.6261958 29.60982548 -78.64702746 30.08639551 -80.66796875 30.5625 C-90.28392679 32.88444277 -99.71821909 35.16773141 -108.86328125 38.98828125 C-111.6401089 40.14727057 -114.44190577 41.11074421 -117.29296875 42.0703125 C-121.9807149 43.75762897 -126.02835618 45.98884505 -130.2265625 48.65625 C-132.37382554 49.98903395 -134.52647175 51.08536444 -136.79296875 52.1953125 C-141.42858246 54.73662216 -145.30675736 58.07018458 -149.29296875 61.5078125 C-149.92291748 62.04929932 -150.55286621 62.59078613 -151.2019043 63.14868164 C-155.33862243 66.79372502 -159.4108101 70.61166477 -162.60546875 75.1328125 C-162.60546875 75.7928125 -162.60546875 76.4528125 -162.60546875 77.1328125 C-164.09046875 77.6278125 -164.09046875 77.6278125 -165.60546875 78.1328125 C-165.60546875 78.7928125 -165.60546875 79.4528125 -165.60546875 80.1328125 C-166.26546875 80.1328125 -166.92546875 80.1328125 -167.60546875 80.1328125 C-169.03047244 82.11045936 -169.03047244 82.11045936 -170.41796875 84.6328125 C-172.24952845 87.81136877 -174.11270463 90.90794432 -176.16796875 93.9453125 C-179.01218564 98.42266038 -180.70260352 103.30498173 -182.4921875 108.27734375 C-183.60546875 111.1328125 -183.60546875 111.1328125 -185.60546875 114.1328125 C-187.27928254 118.70108159 -188.41782821 123.41978622 -189.60546875 128.1328125 C-189.81588303 128.96419235 -190.0262973 129.7955722 -190.24308777 130.65214539 C-195.00160311 150.19310928 -195.31747379 169.07564351 -195.12365723 189.05316162 C-195.09946663 192.31783734 -195.10506613 195.58218206 -195.11053658 198.84692097 C-195.14781775 231.91264188 -192.44991653 264.64599526 -183.328125 296.57226562 C-182.52912819 299.40330568 -181.77079409 302.24394491 -181.01171875 305.0859375 C-176.83549514 320.41200379 -171.28537949 333.55201603 -162.890625 347.05078125 C-161.79198017 348.83065266 -160.7825799 350.6650883 -159.79296875 352.5078125 C-155.18789707 360.63894324 -148.96746291 368.30530657 -142.60546875 375.1328125 C-141.94546875 375.1328125 -141.28546875 375.1328125 -140.60546875 375.1328125 C-140.60546875 375.7928125 -140.60546875 376.4528125 -140.60546875 377.1328125 C-135.21622218 382.26015176 -129.36358038 386.55930597 -122.76171875 389.96484375 C-120.53548483 391.17072046 -118.54313301 392.54162765 -116.48046875 394.0078125 C-71.06175748 424.46873206 -6.44373648 418.55735346 45.39453125 418.1328125 C46.57701447 418.12344666 46.57701447 418.12344666 47.78338623 418.1138916 C69.93152325 417.91535567 91.94015828 415.7991224 113.39453125 410.1328125 C114.78652342 409.79691506 116.1796198 409.4655297 117.57421875 409.140625 C134.53388973 405.08894885 151.78754057 399.44036399 165.39453125 388.1328125 C167.68338499 386.69840513 170.02449429 385.43400926 172.39453125 384.1328125 C172.39453125 383.4728125 172.39453125 382.8128125 172.39453125 382.1328125 C172.99265625 381.8646875 173.59078125 381.5965625 174.20703125 381.3203125 C176.39300979 380.13363844 177.80785719 379.03682137 179.39453125 377.1328125 C179.39453125 376.4728125 179.39453125 375.8128125 179.39453125 375.1328125 C180.05453125 375.1328125 180.71453125 375.1328125 181.39453125 375.1328125 C199.8683644 357.73363447 213.16670375 331.0982383 219.39453125 306.7578125 C220.70672547 301.68894336 222.09502679 296.66184416 223.68359375 291.671875 C225.90083073 283.75317151 227.16959796 275.69195898 228.39453125 267.5703125 C228.56895752 266.42876709 228.74338379 265.28722168 228.9230957 264.11108398 C230.08489745 256.42494258 231.12361742 248.73535216 232 241.01171875 C232.39453125 238.1328125 232.39453125 238.1328125 233.39453125 235.1328125 C233.90034646 230.4167195 234.16278493 225.67886705 234.45703125 220.9453125 C234.50122192 220.23907745 234.5454126 219.53284241 234.59094238 218.8052063 C236.32831546 190.33874 237.4332913 160.88192176 229.92675781 133.14453125 C229.37651251 131.06470498 228.87598995 128.97777409 228.38671875 126.8828125 C226.6177114 119.35843726 224.53029884 112.21495426 221.39453125 105.1328125 C220.86425965 103.89392377 220.33574881 102.65428055 219.80859375 101.4140625 C218.34830608 97.98217236 216.87442535 94.55630086 215.39453125 91.1328125 C214.73453125 91.1328125 214.07453125 91.1328125 213.39453125 91.1328125 C212.99234375 90.03839844 212.99234375 90.03839844 212.58203125 88.921875 C208.77935217 79.99058269 201.49060827 71.68212311 194.39453125 65.1328125 C192.22877816 64.27522211 192.22877816 64.27522211 190.39453125 64.1328125 C190.39453125 63.4728125 190.39453125 62.8128125 190.39453125 62.1328125 C187.17338968 59.81689228 187.17338968 59.81689228 183.39453125 59.1328125 C183.20632813 58.55402344 183.018125 57.97523437 182.82421875 57.37890625 C180.77040408 54.15228484 177.84085495 52.8684852 174.51953125 51.1953125 C173.50524048 50.67046265 173.50524048 50.67046265 172.47045898 50.13500977 C167.57681627 47.63888872 162.61006688 45.41675659 157.49609375 43.40625 C155.31177273 42.50941291 153.16181826 41.52651311 151.04296875 40.484375 C138.45560796 34.32900793 125.07482883 31.80045635 111.39453125 29.1328125 C110.11666748 28.88023682 108.83880371 28.62766113 107.5222168 28.36743164 C98.45532745 26.60071929 89.38003003 25.18592436 80.20703125 24.0703125 C79.51864166 23.98632202 78.83025208 23.90233154 78.1210022 23.8157959 C60.60050642 21.70906317 43.02286387 20.76958157 25.39453125 20.1328125 C24.40243652 20.09671875 23.4103418 20.060625 22.38818359 20.0234375 C-0.67113872 19.31541762 -24.10881372 21.22619007 -46.98046875 24.0703125 Z " fill="#0C0C0C" transform="translate(246.60546875,14.8671875)"/>
<path d="M0 0 C0.66 0 1.32 0 2 0 C2.35281338 4.1970092 1.64185432 6.06522073 -1 9.3125 C-1.556875 10.00988281 -2.11375 10.70726562 -2.6875 11.42578125 C-3.120625 11.94527344 -3.55375 12.46476562 -4 13 C-4.99 12.67 -5.98 12.34 -7 12 C-6.02296079 10.1863523 -5.04330895 8.37411183 -4.0625 6.5625 C-3.51722656 5.55316406 -2.97195313 4.54382813 -2.41015625 3.50390625 C-1 1 -1 1 0 0 Z " fill="#3E3E3E" transform="translate(406,328)"/>
<path d="M0 0 C0 0.99 0 1.98 0 3 C-0.61875 3.2475 -1.2375 3.495 -1.875 3.75 C-4.11738845 4.80962759 -4.11738845 4.80962759 -4.9375 6.875 C-6.36898744 9.73797489 -8.45441327 11.12430451 -11 13 C-11.66 12.67 -12.32 12.34 -13 12 C-11.58653438 10.55935235 -10.16908789 9.12260985 -8.75 7.6875 C-7.96109375 6.88699219 -7.1721875 6.08648437 -6.359375 5.26171875 C-4.32605933 3.31256349 -2.29398922 1.62578594 0 0 Z " fill="#595959" transform="translate(125,95)"/>
<path d="M0 0 C0.99 0.33 1.98 0.66 3 1 C2.01 2.98 1.02 4.96 0 7 C-0.99 7 -1.98 7 -3 7 C-4.33981486 7.3062434 -5.67511887 7.63451555 -7 8 C-5.64458676 3.93376028 -3.42990531 2.46953182 0 0 Z " fill="#474747" transform="translate(381,358)"/>
<path d="M0 0 C0.66 0.66 1.32 1.32 2 2 C-0.97 4.97 -3.94 7.94 -7 11 C-7.66 10.67 -8.32 10.34 -9 10 C-8.34 9.01 -7.68 8.02 -7 7 C-6.34 7 -5.68 7 -5 7 C-4.67 6.01 -4.34 5.02 -4 4 C-3.34 4 -2.68 4 -2 4 C-1.34 2.68 -0.68 1.36 0 0 Z " fill="#4D4D4D" transform="translate(433,383)"/>
<path d="M0 0 C6.75 2.75 6.75 2.75 9 5 C6 6 6 6 3.375 5.3125 C1 4 1 4 0.1875 1.875 C0.125625 1.25625 0.06375 0.6375 0 0 Z " fill="#363636" transform="translate(122,404)"/>
<path d="M0 0 C5.53846154 -0.36923077 5.53846154 -0.36923077 7.875 1.5 C8.24625 1.995 8.6175 2.49 9 3 C8.67 3.66 8.34 4.32 8 5 C5.36 3.68 2.72 2.36 0 1 C0 0.67 0 0.34 0 0 Z " fill="#3E3E3E" transform="translate(374,98)"/>
<path d="M0 0 C0.66 0 1.32 0 2 0 C0.51218185 3.78717347 -1.61988409 5.77407001 -5 8 C-5.99 7.67 -6.98 7.34 -8 7 C-7.05125 6.401875 -6.1025 5.80375 -5.125 5.1875 C-1.86035803 3.18437474 -1.86035803 3.18437474 0 0 Z " fill="#4F4F4F" transform="translate(80,51)"/>
<path d="M0 0 C-1.485 1.485 -1.485 1.485 -3 3 C-3.33 2.67 -3.66 2.34 -4 2 C-6.33297433 1.95907063 -8.66705225 1.95758277 -11 2 C-11 1.67 -11 1.34 -11 1 C-3.375 -1.125 -3.375 -1.125 0 0 Z " fill="#727272" transform="translate(187,68)"/>
</svg>
