<svg width="215" height="76" viewBox="0 0 215 76" fill="none" xmlns="http://www.w3.org/2000/svg">
<path d="M189.147 17.8828V41.4213C189.143 42.6097 188.68 43.7484 187.86 44.5888C187.04 45.4292 185.929 45.903 184.769 45.9069" stroke="#1499AC" stroke-width="1.46111" stroke-linecap="round" stroke-linejoin="round"/>
<path d="M191.899 7.3818V2.01953" stroke="#1499AC" stroke-width="1.46111" stroke-linecap="round" stroke-linejoin="round"/>
<path d="M185.954 7.3818V2.01953" stroke="#1499AC" stroke-width="1.46111" stroke-linecap="round" stroke-linejoin="round"/>
<path fill-rule="evenodd" clip-rule="evenodd" d="M193.468 10.955C193.846 10.955 194.209 11.1089 194.476 11.383C194.744 11.657 194.894 12.0286 194.894 12.4161V21.7526C194.707 23.2308 194 24.5885 192.907 25.5723C191.814 26.5561 190.409 27.0987 188.954 27.0987C187.499 27.0987 186.094 26.5561 185.001 25.5723C183.908 24.5885 183.202 23.2308 183.015 21.7526V12.3869C183.015 11.9994 183.165 11.6277 183.432 11.3537C183.7 11.0797 184.063 10.9258 184.441 10.9258L193.468 10.955Z" fill="#1499AC"/>
<path d="M190.957 13.3516L185.509 17.0482C185.45 17.0934 185.406 17.1562 185.384 17.228C185.361 17.2998 185.36 17.3771 185.382 17.4492C185.404 17.5213 185.447 17.5846 185.506 17.6306C185.564 17.6765 185.635 17.7027 185.709 17.7057H191.413C191.489 17.6997 191.564 17.7197 191.628 17.7625C191.691 17.8053 191.739 17.8685 191.763 17.9421C191.788 18.0158 191.788 18.0957 191.763 18.1692C191.738 18.2428 191.691 18.3059 191.627 18.3486L186.023 22.7319" stroke="white" stroke-width="1.46111" stroke-linecap="round"/>
<path d="M185.082 70.7464C185.082 71.55 148.161 72.2075 102.626 72.2075C57.0905 72.2075 20.1689 71.5939 20.1689 70.7464C20.1689 69.899 57.0905 67.8242 102.626 67.8242C148.161 67.8242 185.082 69.9574 185.082 70.7464Z" fill="#153481"/>
<path d="M59.7566 31.2067C70.8847 24.4393 82.8203 19.1746 95.2663 15.5436C108.386 11.6863 131.988 13.6003 163.99 18.685L161.665 20.2483L169.78 24.1641L177.88 28.0799L184.839 29.6433L183.299 35.064C184.853 40.9084 184.597 43.9914 183.684 50.3472L185.11 53.2694L183.684 58.997L167.313 62.3137L146.092 64.7975C146.092 64.7975 132.402 63.6433 125.385 63.3364C118.369 63.0296 57.4321 63.3364 57.4321 63.3364L36.0407 64.0524H23.4483L18.8135 60.1951L21.9081 57.0683V54.7159L19.5836 53.1525L18.8135 47.6587L21.138 45.2918L20.3679 42.165C28.0831 36.7004 36.5826 32.7847 59.7566 31.2067Z" fill="white"/>
<path d="M62.2086 44.7606L59.3564 46.6016L61.41 61.2127L140.059 56.917L141.756 41.9699L130.59 40.012C129.262 39.7807 127.914 39.6877 126.568 39.7344L71.7777 41.7799C68.3903 41.91 65.0935 42.9369 62.2086 44.7606Z" fill="url(#paint0_linear_2161_9776)"/>
<path d="M143.469 69.3096C141.132 67.844 139.121 65.8929 137.565 63.582H144.91L151.541 69.3096H143.469Z" fill="#1A345F"/>
<path d="M58.5606 70.3031C61.2898 68.7755 63.4989 66.4306 64.8924 63.582L56.6354 64.035L49.5049 70.7415L58.5606 70.3031Z" fill="#1A345F"/>
<path d="M156.732 21.3842H156.389C154.863 21.165 152.682 20.8582 150.015 20.5075C144.695 19.8062 137.465 18.9149 129.85 18.1405C122.234 17.3661 114.163 16.6794 107.332 16.5918C100.501 16.5041 94.7251 16.7233 91.6448 17.746C81.3245 21.13 71.3591 25.5595 61.8965 30.9691H62.7949C64.8342 30.9691 67.772 30.9691 71.3515 30.8522C78.4819 30.6769 87.9369 30.3262 97.7057 29.9025C117.243 29.055 137.636 27.9154 141.558 27.3017C145.519 26.5496 149.359 25.2366 152.967 23.4005C154.379 22.6408 155.691 21.9102 156.732 21.3842Z" fill="#153481" stroke="#153481" stroke-width="1.46111"/>
<path d="M129.236 56.9828C139.218 55.4048 169.166 39.7417 184.582 29.9961L183.27 35.1684C184.637 40.2076 184.861 45.5 183.926 50.6416L185.081 53.2716L183.655 58.9407L168.439 62.1989L143.154 64.6828C143.154 64.6828 130.091 63.0318 125.2 63.0318C120.308 63.0318 23.2912 63.923 23.2912 63.923L18.7705 60.1388L63.6069 59.3205C63.6069 59.3205 119.196 58.5462 129.236 56.9828Z" fill="url(#paint1_linear_2161_9776)"/>
<path d="M63.6069 59.2905C63.6069 59.2905 121.592 58.0485 129.207 56.7628C133.043 56.1053 143.083 51.4882 154.221 50.2024C165.63 53.446 177.452 51.006 183.898 49.9102L185.324 53.446L183.598 59.2905L168.325 62.4026L143.126 65.0765C143.126 65.0765 131.246 63.7761 126.355 63.7761C121.463 63.7761 24.2039 65.0765 24.2039 65.0765L18.7705 60.1671L63.6069 59.2905Z" fill="#153481"/>
<path d="M183.827 49.9235C184.739 43.5823 184.796 41.0107 183.242 35.1224L184.782 29.6433L177.823 28.0799L169.723 24.1641L161.608 20.2483L163.933 18.685C131.988 13.6003 108.386 11.6863 95.2663 15.5436C82.8203 19.1746 70.8847 24.4393 59.7566 31.2067C36.5969 32.7847 28.0973 36.7004 20.3822 42.1796L21.138 45.2918L18.8135 47.6587L19.5836 53.1525L21.9081 54.7159V57.0683L18.8135 60.1951" stroke="#153481" stroke-width="0.730554"/>
<path d="M158.583 20.9784L161.007 20.1602L178.12 28.43H174.855L158.583 20.9784Z" fill="url(#paint2_linear_2161_9776)"/>
<path d="M184.71 29.8203C169.252 39.5659 139.275 55.4043 129.235 56.9823C119.196 58.5603 59.0146 59.3639 59.0146 59.3639L18.8701 60.0506" stroke="#226AB4" stroke-width="0.511388"/>
<path d="M101.113 29.5567C104.85 29.4398 105.506 29.396 109.356 29.206C109.356 29.206 110.896 27.2774 110.611 25.8309C110.326 24.3844 107.274 23.2155 105.634 23.9314C105.476 23.9976 105.324 24.0757 105.178 24.1652C104.811 24.3628 104.475 24.6138 104.179 24.9104C102.894 26.2581 101.855 27.832 101.113 29.5567Z" fill="#13487F"/>
<path d="M101.113 29.5567C104.85 29.4398 105.506 29.396 109.356 29.206C109.356 29.206 110.896 27.2774 110.611 25.8309C110.326 24.3844 107.274 23.2155 105.634 23.9314C105.476 23.9976 105.324 24.0757 105.178 24.1652C104.811 24.3628 104.475 24.6138 104.179 24.9104C102.894 26.2581 101.855 27.832 101.113 29.5567Z" fill="#13487F"/>
<path d="M101.113 29.5567C104.85 29.4398 105.506 29.396 109.356 29.206C109.356 29.206 110.896 27.2774 110.611 25.8309C110.326 24.3844 107.274 23.2155 105.634 23.9314C105.476 23.9976 105.324 24.0757 105.178 24.1652C104.811 24.3628 104.475 24.6138 104.179 24.9104C102.894 26.2581 101.855 27.832 101.113 29.5567Z" fill="#13487F"/>
<path d="M138.507 27.979C142.086 27.3507 141.559 27.5114 145.324 26.8539C145.324 26.8539 146.322 24.7353 145.98 23.7564C145.637 22.7774 141.986 22.193 141.445 22.5144C141.298 22.5983 141.16 22.6961 141.031 22.8066C140.689 23.0493 140.386 23.3451 140.133 23.6833C139.336 25 138.785 26.4565 138.507 27.979Z" fill="#13487F"/>
<path d="M138.507 27.979C142.086 27.3507 141.559 27.5114 145.324 26.8539C145.324 26.8539 146.322 24.7353 145.98 23.7564C145.637 22.7774 141.986 22.193 141.445 22.5144C141.298 22.5983 141.16 22.6961 141.031 22.8066C140.689 23.0493 140.386 23.3451 140.133 23.6833C139.336 25 138.785 26.4565 138.507 27.979Z" fill="#13487F"/>
<path d="M138.507 27.979C142.086 27.3507 141.559 27.5114 145.324 26.8539C145.324 26.8539 146.322 24.7353 145.98 23.7564C145.637 22.7774 141.986 22.193 141.445 22.5144C141.298 22.5983 141.16 22.6961 141.031 22.8066C140.689 23.0493 140.386 23.3451 140.133 23.6833C139.336 25 138.785 26.4565 138.507 27.979Z" fill="#13487F"/>
<path d="M57.9449 39.8269L56.4189 39.1109C85.6396 36.6124 106.746 35.9987 152.694 36.2764C117.156 37.6352 96.649 37.3576 61.4958 40.4697C60.278 40.5707 59.0552 40.3493 57.9449 39.8269Z" fill="#739CD2"/>
<path d="M109.671 16.4414L106.248 30.3512C103.795 34.9975 102.868 44.4509 103.396 58.2145M64.4491 31.3009C62.3528 40.5497 62.0533 47.0809 64.4491 58.9158M143.383 27.4289C143.383 27.4289 148.703 32.8204 148.703 39.4977" stroke="#397ABE" stroke-width="0.365277"/>
<path d="M27.054 55.1751C27.5204 50.133 29.9066 45.4822 33.6959 42.2299C37.4852 38.9775 42.3725 37.3855 47.2993 37.7986C52.2261 38.2117 56.7957 40.5967 60.0184 44.437C63.2411 48.2774 64.8575 53.2638 64.5175 58.3165C63.9471 65.3882 63.4622 64.6138 40.8016 66.1042C27.9953 65.1691 26.1984 65.6658 27.054 55.1751Z" fill="#153481"/>
<path d="M46.0251 70.7454C54.1296 70.7454 60.6996 64.0141 60.6996 55.7106C60.6996 47.4071 54.1296 40.6758 46.0251 40.6758C37.9206 40.6758 31.3506 47.4071 31.3506 55.7106C31.3506 64.0141 37.9206 70.7454 46.0251 70.7454Z" fill="#1E4E8F"/>
<path d="M46.0219 67.885C43.6724 67.885 41.3757 67.1712 39.4221 65.8339C37.4686 64.4965 35.946 62.5956 35.0468 60.3717C34.1477 58.1477 33.9125 55.7005 34.3708 53.3396C34.8292 50.9786 35.9606 48.8099 37.622 47.1078C39.2833 45.4056 41.4 44.2465 43.7044 43.7768C46.0088 43.3072 48.3973 43.5482 50.568 44.4694C52.7386 45.3906 54.5939 46.9506 55.8993 48.9521C57.2046 50.9537 57.9013 53.3068 57.9013 55.714C57.9032 57.3129 57.5972 58.8964 57.0009 60.3739C56.4045 61.8515 55.5296 63.194 54.4261 64.3245C53.3226 65.4551 52.0123 66.3515 50.5702 66.9625C49.1281 67.5735 47.5825 67.887 46.0219 67.885Z" fill="#153481"/>
<path d="M45.935 58.4414L46.6765 66.4044C46.6914 66.5213 46.6773 66.6401 46.6356 66.7498C46.5938 66.8596 46.5258 66.9569 46.4377 67.0326C46.3496 67.1083 46.2442 67.16 46.1315 67.183C46.0187 67.206 45.9021 67.1996 45.7924 67.1642L39.5889 65.3232L43.9384 63.453C44.1274 63.3699 44.2967 63.246 44.4345 63.0896C44.5724 62.9332 44.6756 62.7482 44.7371 62.5471L45.935 58.4414Z" fill="#F7FCFE"/>
<path d="M42.8575 56.4842L35.3706 59.6402C35.2665 59.6862 35.153 59.7049 35.0401 59.6948C34.9272 59.6847 34.8185 59.6461 34.7238 59.5824C34.6291 59.5187 34.5513 59.4318 34.4975 59.3297C34.4436 59.2276 34.4153 59.1134 34.4151 58.9973L34.2725 52.5977L37.4099 56.1043C37.5461 56.2549 37.7117 56.3743 37.896 56.4549C38.0803 56.5354 38.2791 56.5753 38.4794 56.5719L42.8575 56.4842Z" fill="#F7FCFE"/>
<path d="M43.7263 52.9616L38.3641 46.9565C38.2877 46.8667 38.2338 46.7591 38.2073 46.643C38.1807 46.527 38.1823 46.4061 38.2118 46.2908C38.2414 46.1755 38.298 46.0694 38.3767 45.9817C38.4555 45.894 38.554 45.8274 38.6636 45.7876L44.7103 43.6836L42.3287 47.7016C42.2214 47.8872 42.1555 48.0948 42.1358 48.3095C42.1161 48.5242 42.143 48.7408 42.2146 48.9436L43.7263 52.9616Z" fill="#F7FCFE"/>
<path d="M47.3936 52.7144L51.5577 45.8179C51.6164 45.7201 51.6971 45.6381 51.7932 45.5789C51.8893 45.5197 51.9978 45.4851 52.1097 45.478C52.2215 45.4708 52.3334 45.4913 52.4359 45.5378C52.5384 45.5842 52.6285 45.6553 52.6986 45.7449L56.6204 50.8441L51.9713 49.8214C51.777 49.7802 51.5764 49.781 51.3824 49.8238C51.1884 49.8666 51.0053 49.9503 50.8447 50.0698L47.3936 52.7144Z" fill="#F7FCFE"/>
<path d="M48.7607 56.0742L56.647 57.8714C56.7608 57.8944 56.867 57.9467 56.9556 58.0233C57.0442 58.0999 57.1124 58.1984 57.1537 58.3094C57.1951 58.4203 57.2082 58.5403 57.1919 58.6579C57.1756 58.7755 57.1304 58.887 57.0606 58.9818L53.4241 64.1834L52.9677 59.537C52.9504 59.3178 52.885 59.1053 52.7763 58.9156C52.6677 58.7258 52.5186 58.5637 52.3402 58.4412L48.7607 56.0742Z" fill="#F7FCFE"/>
<path d="M136.765 55.816C136.765 45.8074 145.179 37.6836 155.561 37.6836C165.943 37.6836 174.371 45.8074 174.371 55.816C174.371 62.5663 171.519 61.8796 151.368 65.0794C140.116 63.9251 136.765 65.8245 136.765 55.816Z" fill="#153481"/>
<path d="M156.43 70.7454C164.535 70.7454 171.105 64.0141 171.105 55.7106C171.105 47.4071 164.535 40.6758 156.43 40.6758C148.326 40.6758 141.756 47.4071 141.756 55.7106C141.756 64.0141 148.326 70.7454 156.43 70.7454Z" fill="#1E4E8F"/>
<path d="M156.433 67.885C154.084 67.885 151.787 67.1712 149.833 65.8339C147.88 64.4965 146.357 62.5956 145.458 60.3717C144.559 58.1477 144.324 55.7005 144.782 53.3396C145.24 50.9786 146.372 48.8099 148.033 47.1078C149.694 45.4056 151.811 44.2465 154.116 43.7768C156.42 43.3072 158.808 43.5482 160.979 44.4694C163.15 45.3906 165.005 46.9506 166.31 48.9521C167.616 50.9537 168.312 53.3068 168.312 55.714C168.314 57.3129 168.008 58.8964 167.412 60.3739C166.816 61.8515 165.941 63.194 164.837 64.3245C163.734 65.4551 162.423 66.3515 160.981 66.9625C159.539 67.5735 157.994 67.887 156.433 67.885Z" fill="#153481"/>
<path d="M156.361 58.4414L157.089 66.4045C157.1 66.5204 157.083 66.6374 157.04 66.7452C156.997 66.8531 156.929 66.9486 156.842 67.0235C156.755 67.0983 156.652 67.1503 156.54 67.1748C156.429 67.1993 156.314 67.1957 156.204 67.1642L150.001 65.3232L154.279 63.453C154.468 63.3699 154.637 63.246 154.775 63.0896C154.913 62.9332 155.016 62.7482 155.078 62.5471L156.361 58.4414Z" fill="#F7FCFE"/>
<path d="M153.264 56.4842L145.777 59.6402C145.673 59.6862 145.559 59.7049 145.446 59.6948C145.333 59.6847 145.225 59.6461 145.13 59.5824C145.035 59.5187 144.958 59.4318 144.904 59.3297C144.85 59.2276 144.822 59.1134 144.821 58.9973L144.679 52.5977L147.816 56.1043C147.952 56.2549 148.118 56.3743 148.302 56.4549C148.487 56.5354 148.685 56.5753 148.886 56.5719L153.264 56.4842Z" fill="#F7FCFE"/>
<path d="M154.135 52.9616L148.83 46.9565C148.754 46.8667 148.7 46.7591 148.673 46.643C148.647 46.527 148.648 46.4061 148.678 46.2908C148.707 46.1755 148.764 46.0694 148.843 45.9817C148.921 45.894 149.02 45.8274 149.129 45.7876L155.176 43.6836L152.795 47.7016C152.687 47.8872 152.621 48.0948 152.602 48.3095C152.582 48.5242 152.609 48.7408 152.68 48.9436L154.135 52.9616Z" fill="#F7FCFE"/>
<path d="M157.798 52.7144L161.962 45.8179C162.021 45.7201 162.101 45.6381 162.197 45.5789C162.294 45.5197 162.402 45.4851 162.514 45.478C162.626 45.4708 162.738 45.4913 162.84 45.5378C162.943 45.5842 163.033 45.6553 163.103 45.7449L167.025 50.8441L162.433 49.8214C162.238 49.7802 162.038 49.781 161.844 49.8238C161.65 49.8666 161.467 49.9503 161.306 50.0698L157.798 52.7144Z" fill="#F7FCFE"/>
<path d="M159.171 56.0742L167.057 57.8714C167.171 57.8944 167.277 57.9467 167.366 58.0233C167.454 58.0999 167.523 58.1984 167.564 58.3094C167.605 58.4203 167.618 58.5403 167.602 58.6579C167.586 58.7755 167.541 58.887 167.471 58.9818L163.863 64.1834L163.406 59.537C163.383 59.3254 163.315 59.1216 163.206 58.9399C163.098 58.7582 162.952 58.6029 162.779 58.485L159.171 56.0742Z" fill="#F7FCFE"/>
<defs>
<linearGradient id="paint0_linear_2161_9776" x1="100.967" y1="40.9486" x2="99.5691" y2="75.8939" gradientUnits="userSpaceOnUse">
<stop stop-color="#136BCF" stop-opacity="0.09"/>
<stop offset="1" stop-color="#CEDDF1" stop-opacity="0"/>
</linearGradient>
<linearGradient id="paint1_linear_2161_9776" x1="102.754" y1="31.9748" x2="100.949" y2="88.412" gradientUnits="userSpaceOnUse">
<stop stop-color="#136BCF" stop-opacity="0.09"/>
<stop offset="1" stop-color="#CEDDF1" stop-opacity="0"/>
</linearGradient>
<linearGradient id="paint2_linear_2161_9776" x1="168.366" y1="20.1602" x2="168.366" y2="28.0355" gradientUnits="userSpaceOnUse">
<stop stop-color="#3184C6"/>
<stop offset="1" stop-color="#183A66" stop-opacity="0.85"/>
</linearGradient>
</defs>
</svg>
