<svg width="215" height="76" viewBox="0 0 215 76" fill="none" xmlns="http://www.w3.org/2000/svg">
<path d="M110.966 72.1372C158.435 72.1372 196.917 71.4961 196.917 70.7053C196.917 69.9145 158.435 69.2734 110.966 69.2734C63.497 69.2734 25.0156 69.9145 25.0156 70.7053C25.0156 71.4961 63.497 72.1372 110.966 72.1372Z" fill="#153481"/>
<path d="M62.3778 70.8225C64.5143 68.782 66.4271 66.5087 68.0822 64.043H63.3333L57.6289 70.8225H62.3778Z" fill="#153481"/>
<path d="M154.133 70.8225C151.997 68.782 150.084 66.5087 148.429 64.043H153.22L158.925 70.8225H154.133Z" fill="#153481"/>
<path d="M185.309 24.8389H193.238L191.584 31.0633C192.779 34.3611 193.579 37.7955 193.965 41.291L196.675 48.4212C197.288 52.7169 196.532 55.0693 195.049 55.9898C191.755 58.0061 175.768 60.9283 175.768 60.9283L153.707 63.2515L65.5885 64.5373H45.1384C45.1384 64.5373 22.2068 61.7758 23.8325 60.9283C25.4583 60.0809 24.7452 52.7169 25.2586 46.6679L28.7526 44.5785L32.1324 41.3787C33.0896 40.4721 34.2146 39.7715 35.4409 39.3185C44.8817 35.8703 48.4612 35.1836 60.041 32.4513C62.0112 31.9702 63.9241 31.2696 65.7454 30.3619C79.2505 23.6847 96.5205 16.3207 105.077 14.7427C116.66 12.9764 128.434 12.9764 140.016 14.7427C151.197 16.496 162.606 19.2429 179.676 24.0646C181.51 24.5855 183.406 24.846 185.309 24.8389Z" fill="white"/>
<path d="M179.619 34.3485L192.226 33.5156C192.226 33.5156 193.01 34.2462 193.965 41.1134L196.675 48.2436C197.288 52.5393 196.532 54.8916 195.049 55.8121C191.755 57.8285 175.769 60.7507 175.769 60.7507L154.691 63.4391L65.5886 64.3596H45.1384L32.1895 62.7232L23.9609 61.1306C24.6478 58.8052 24.9845 56.386 24.9592 53.9565C24.8809 51.462 25.0001 48.9651 25.3157 46.4903L28.0396 45.0292L46.8069 46.4903L54.7075 45.4821C55.442 45.3883 56.1641 45.2119 56.8609 44.9561L62.494 42.8375C64.7067 42.0039 67.0186 41.4781 69.3677 41.2741L101.726 38.4688L140.758 35.0644C153.713 35.7158 166.695 35.4766 179.619 34.3485Z" fill="url(#paint0_linear_2161_9818)"/>
<path d="M64.833 63.2644C64.833 63.2644 113.919 63.4105 122.404 61.4819C130.89 59.5532 154.263 49.6761 154.263 49.6761L174.371 52.7591L196.076 46.7539L196.918 50.5966V53.5188L194.821 56.4411L174.371 61.4819L152.894 63.2644L64.833 64.4479V63.2644Z" fill="#153481"/>
<path d="M45.1384 64.5373C45.1384 64.5373 22.2068 61.7758 23.8325 60.9283C25.4583 60.0809 24.7452 52.7169 25.2586 46.6679L28.7526 44.5785L32.1324 41.3787C33.0896 40.4721 34.2146 39.7715 35.4409 39.3185C44.8817 35.8703 48.4612 35.1836 60.041 32.4513C62.0112 31.9702 63.9241 31.2696 65.7454 30.3619C79.2505 23.6847 96.5205 16.3207 105.077 14.7427C116.66 12.9764 128.434 12.9764 140.016 14.7427C151.197 16.496 162.606 19.2429 179.676 24.0646C181.533 24.5971 183.452 24.8626 185.38 24.8536H193.338L191.598 31.0779C192.794 34.3757 193.593 37.8101 193.98 41.3056L196.689 48.4358C197.302 52.7315 196.547 55.0839 195.064 56.0044C191.769 58.0207 175.783 60.9429 175.783 60.9429M153.721 63.2661L64.2765 64.5519" stroke="#153481" stroke-width="0.511388"/>
<path d="M173.587 25.4474C160.681 21.1956 148.203 18.9162 133.044 17.0168C116.23 15.5557 112.337 15.8479 105.106 17.2506C95.8939 18.9893 81.7898 25.2867 68.9692 33.1182C68.7809 33.2529 68.6272 33.4321 68.521 33.6407C68.4148 33.8493 68.3594 34.0811 68.3594 34.3163C68.3594 34.5516 68.4148 34.7834 68.521 34.992C68.6272 35.2005 68.7809 35.3798 68.9692 35.5144L69.9247 36.0989H70.5807L73.0906 35.8505L82.1035 34.9008L110.411 32.1393C131.489 30.0499 154.021 27.756 159.883 27.1277C165.744 26.4994 169.865 25.9442 172.646 25.5935L173.587 25.4474Z" fill="#153481" stroke="#153481" stroke-width="1.46111"/>
<path d="M112.223 32.1445C115.252 31.3937 118.349 30.9629 121.464 30.8587C121.652 30.5229 121.768 30.15 121.805 29.7646C121.842 29.3792 121.799 28.9901 121.678 28.6232C121.378 27.0891 118.07 25.7887 116.244 26.5777C116.074 26.6515 115.907 26.7344 115.745 26.8261C115.339 27.0503 114.965 27.3305 114.633 27.6589C113.572 28.9927 112.755 30.5125 112.223 32.1445Z" fill="#153481"/>
<path d="M112.223 32.1445C115.252 31.3937 118.349 30.9629 121.464 30.8587C121.652 30.5229 121.768 30.15 121.805 29.7646C121.842 29.3792 121.799 28.9901 121.678 28.6232C121.378 27.0891 118.07 25.7887 116.244 26.5777C116.074 26.6515 115.907 26.7344 115.745 26.8261C115.339 27.0503 114.965 27.3305 114.633 27.6589C113.572 28.9927 112.755 30.5125 112.223 32.1445Z" fill="#153481"/>
<path d="M112.223 32.1445C115.252 31.3937 118.349 30.9629 121.464 30.8587C121.652 30.5229 121.768 30.15 121.805 29.7646C121.842 29.3792 121.799 28.9901 121.678 28.6232C121.378 27.0891 118.07 25.7887 116.244 26.5777C116.074 26.6515 115.907 26.7344 115.745 26.8261C115.339 27.0503 114.965 27.3305 114.633 27.6589C113.572 28.9927 112.755 30.5125 112.223 32.1445Z" fill="#153481"/>
<path d="M155.532 28.0971C158.567 27.3471 161.668 26.9163 164.788 26.8113C164.976 26.473 165.093 26.0976 165.13 25.7097C165.166 25.3219 165.123 24.9305 165.001 24.5612C164.702 23.1001 161.393 21.7267 159.568 22.5157C159.396 22.5917 159.229 22.6796 159.069 22.7787C158.661 22.9994 158.286 23.28 157.957 23.6115C156.892 24.9451 156.07 26.4646 155.532 28.0971Z" fill="#153481"/>
<path d="M155.532 28.0971C158.567 27.3471 161.668 26.9163 164.788 26.8113C164.976 26.473 165.093 26.0976 165.13 25.7097C165.166 25.3219 165.123 24.9305 165.001 24.5612C164.702 23.1001 161.393 21.7267 159.568 22.5157C159.396 22.5917 159.229 22.6796 159.069 22.7787C158.661 22.9994 158.286 23.28 157.957 23.6115C156.892 24.9451 156.07 26.4646 155.532 28.0971Z" fill="#153481"/>
<path d="M155.532 28.0971C158.567 27.3471 161.668 26.9163 164.788 26.8113C164.976 26.473 165.093 26.0976 165.13 25.7097C165.166 25.3219 165.123 24.9305 165.001 24.5612C164.702 23.1001 161.393 21.7267 159.568 22.5157C159.396 22.5917 159.229 22.6796 159.069 22.7787C158.661 22.9994 158.286 23.28 157.957 23.6115C156.892 24.9451 156.07 26.4646 155.532 28.0971Z" fill="#153481"/>
<path d="M78.9507 26.4688C75.2104 28.2659 71.5685 30.2706 68.0411 32.4739C67.7962 32.6389 67.5897 32.8572 67.4364 33.1132C67.2831 33.3691 67.1867 33.6566 67.154 33.955C67.1214 34.2535 67.1532 34.5557 67.2474 34.8401C67.3416 35.1245 67.4957 35.3842 67.6989 35.6007L68.3976 36.3605L69.0251 36.8426L77.2252 36.0975L78.9507 26.4688Z" fill="#153481"/>
<path d="M123.575 15.6953H119.296L115.931 32.1474L122.861 31.5191L123.575 15.6953Z" fill="#153481"/>
<path d="M167.226 22.7816L155.104 19.8594L159.383 27.8663L176.596 25.733L167.226 22.7816Z" fill="#153481"/>
<path d="M121.489 15.5508L119.892 31.8568C118.851 36.1378 119.321 49.8722 119.664 56.9586C119.707 58.0973 119.316 59.2086 118.573 60.0569C117.831 60.9052 116.795 61.4238 115.685 61.5027C107.271 61.9118 88.033 62.7884 74.1999 62.803C73.8539 62.8065 73.5184 62.681 73.256 62.4498C72.9936 62.2186 72.8222 61.8976 72.7738 61.5465C71.3192 48.8787 71.2621 44.6999 72.1178 37.9934C72.9877 31.1116 73.8149 29.5774 73.8149 29.5774M159.252 27.8387C161.334 31.8129 161.534 33.2448 149.269 51.9324" stroke="#153481" stroke-width="0.219166"/>
<path d="M125.598 34.1305L191.469 27.5117L190.471 30.2002L125.598 34.1305Z" fill="#153481"/>
<path d="M130.46 54.7852L65.6871 62.3975L65.6016 59.1539L130.46 54.7852Z" fill="#153481"/>
<path d="M195.565 56.9805L175.942 61.9336M152.853 64.0815L64.0217 65.1773M23.6348 61.846L42.7872 65.1773" stroke="#153481" stroke-width="1.46111" stroke-linecap="round" stroke-linejoin="round"/>
<path d="M40.3732 57.1005C40.3393 54.5532 41.0455 52.0531 42.4021 49.9181C43.7587 47.7831 45.7044 46.1097 47.9918 45.1107C50.2791 44.1117 52.8047 43.8322 55.2475 44.3078C57.6903 44.7834 59.9399 45.9925 61.7101 47.7815C63.4804 49.5705 64.6914 51.8584 65.1891 54.3544C65.6868 56.8504 65.4488 59.4417 64.5052 61.7987C63.5617 64.1557 61.9553 66.172 59.8903 67.5911C57.8254 69.0102 55.3951 69.7681 52.9086 69.7683C51.2737 69.7799 49.6525 69.4614 48.1377 68.831C46.6229 68.2006 45.2441 67.2707 44.0801 66.0944C42.9161 64.9181 41.9896 63.5184 41.3536 61.9752C40.7176 60.432 40.3844 58.7756 40.3732 57.1005Z" fill="white" stroke="#153481" stroke-width="2.92222"/>
<path d="M52.9096 67.2236C58.4386 67.2236 62.9208 62.6903 62.9208 57.0981C62.9208 51.506 58.4386 46.9727 52.9096 46.9727C47.3806 46.9727 42.8984 51.506 42.8984 57.0981C42.8984 62.6903 47.3806 67.2236 52.9096 67.2236Z" fill="#153481"/>
<path d="M52.9238 60.7109V67.4759" stroke="white" stroke-width="1.09583" stroke-linecap="round"/>
<path d="M49.5588 58.2383L43.1699 60.3277" stroke="white" stroke-width="1.09583" stroke-linecap="round"/>
<path d="M50.8429 54.2536L46.8926 48.7891" stroke="white" stroke-width="1.09583" stroke-linecap="round"/>
<path d="M55.0059 54.2536L58.9561 48.7891" stroke="white" stroke-width="1.09583" stroke-linecap="round"/>
<path d="M56.2764 58.2383L62.651 60.3277" stroke="white" stroke-width="1.09583" stroke-linecap="round"/>
<path d="M150.784 57.1003C150.751 54.5561 151.455 52.0589 152.809 49.9256C154.162 47.7923 156.103 46.1189 158.387 45.1178C160.67 44.1168 163.192 43.8331 165.633 44.3028C168.073 44.7724 170.323 45.9743 172.096 47.756C173.869 49.5376 175.086 51.8187 175.591 54.3098C176.097 56.8009 175.869 59.3898 174.937 61.748C174.004 64.1062 172.409 66.1275 170.353 67.5554C168.298 68.9832 165.874 69.7534 163.391 69.7681C161.75 69.7893 160.121 69.478 158.598 68.8519C157.075 68.2259 155.688 67.2976 154.516 66.1203C153.345 64.943 152.412 63.54 151.771 61.992C151.131 60.444 150.796 58.7816 150.784 57.1003Z" fill="white" stroke="#153481" stroke-width="2.92222"/>
<path d="M163.318 67.2236C168.847 67.2236 173.329 62.6903 173.329 57.0981C173.329 51.506 168.847 46.9727 163.318 46.9727C157.789 46.9727 153.307 51.506 153.307 57.0981C153.307 62.6903 157.789 67.2236 163.318 67.2236Z" fill="#153481"/>
<path d="M163.389 60.7109V67.4759" stroke="white" stroke-width="1.09583" stroke-linecap="round"/>
<path d="M159.965 58.2383L153.576 60.3277" stroke="white" stroke-width="1.09583" stroke-linecap="round"/>
<path d="M161.25 54.2536L157.3 48.7891" stroke="white" stroke-width="1.09583" stroke-linecap="round"/>
<path d="M165.4 54.2536L169.351 48.7891" stroke="white" stroke-width="1.09583" stroke-linecap="round"/>
<path d="M166.684 58.2383L173.058 60.3277" stroke="white" stroke-width="1.09583" stroke-linecap="round"/>
<defs>
<linearGradient id="paint0_linear_2161_9818" x1="111.286" y1="35.2752" x2="109.913" y2="85.4738" gradientUnits="userSpaceOnUse">
<stop stop-color="#136BCF" stop-opacity="0.09"/>
<stop offset="1" stop-color="#CEDDF1" stop-opacity="0"/>
</linearGradient>
</defs>
</svg>
