<svg width="215" height="76" viewBox="0 0 215 76" fill="none" xmlns="http://www.w3.org/2000/svg">
<path d="M54.8814 70.9021C56.8613 69.0345 58.6378 66.9576 60.1805 64.707H55.8488L50.5352 70.9021H54.8814Z" fill="#153481"/>
<path d="M151.539 70.7922C148.977 68.6647 146.648 66.2644 144.594 63.6328H150.369L157.315 70.7922H151.539Z" fill="#153481"/>
<path d="M104.263 72.2192C151.935 72.2192 190.58 71.5782 190.58 70.7874C190.58 69.9965 151.935 69.3555 104.263 69.3555C56.591 69.3555 17.9453 69.9965 17.9453 70.7874C17.9453 71.5782 56.591 72.2192 104.263 72.2192Z" fill="#153481"/>
<path d="M171.856 61.8802L192.171 58.3443C193.954 54.1554 194.858 49.638 194.828 45.0774L191.291 42.3744L193.5 39.7152L192.171 37.9911L193.5 37.0998C193.399 35.478 193.24 33.7246 193.067 31.796L174.498 29.1367C160.622 23.4092 153.287 19.4058 141.389 17.331C129.491 15.2562 107.139 16.8196 97.6092 19.4058C88.0793 21.9919 82.0149 26.8574 72.8604 32.6872C56.4769 33.5523 40.2046 35.9192 24.2437 39.759L19.8253 44.1423V47.6782L18.0637 49.49C17.7668 53.6414 18.0634 57.8145 18.9445 61.8802L35.7373 64.5394L171.856 61.8802Z" fill="white"/>
<path d="M171.854 62.827L192.17 59.0866C193.957 54.628 194.86 49.8568 194.827 45.0453L191.289 42.2254L193.498 39.4493L192.17 37.5791C192.069 35.855 192.358 39.6246 192.17 37.5791C192.17 37.5791 184.43 38.3535 178.366 39.6831C171.969 41.1442 167.421 43.0144 160.201 44.0664C148.332 46.7548 138.413 40.6474 129.98 41.4948C71.7181 44.3002 56.9324 47.8361 39.461 42.2254C33.9596 41.4802 20.0691 43.5842 20.0691 43.5842L19.8237 47.8361L18.0621 49.677C17.7594 54.0805 18.0558 58.5052 18.9429 62.827L35.7356 65.6324L103.788 64.2881L171.854 62.827Z" fill="url(#paint0_linear_2161_9737)"/>
<path d="M144.593 53.6085C117.448 55.3034 86.1725 56.9837 72.8451 57.0859C71.8711 57.0875 70.9269 56.7466 70.1738 56.1216L64.918 51.7383" stroke="#153481" stroke-width="1.46111" stroke-linecap="round"/>
<path d="M171.856 61.8802L192.171 58.3443C193.954 54.1554 194.858 49.638 194.828 45.0774L191.291 42.3744L193.5 39.7152L192.171 37.9911L193.5 37.0998C193.399 35.478 193.24 33.7246 193.067 31.796L174.498 29.1367C160.622 23.4092 153.287 19.4058 141.389 17.331C129.491 15.2562 107.139 16.8196 97.6092 19.4058C88.5125 21.875 82.5636 26.4337 74.0733 31.8982C73.2799 32.4117 72.3708 32.7133 71.4309 32.7749C55.5284 33.6838 39.7372 36.021 24.2437 39.759L19.8253 44.1423V47.6782L18.0637 49.49C17.7668 53.6414 18.0634 57.8145 18.9445 61.8802L35.7373 64.5394L103.789 63.2098L171.856 61.8802Z" stroke="#153481" stroke-width="0.511388"/>
<path d="M58.1045 42.5019L55.0723 40.6463C96.3828 37.8702 126.2 37.125 191.147 37.2565C140.769 38.8345 112.165 39.9888 62.2774 43.5101C60.8176 43.6097 59.3624 43.2581 58.1045 42.5019Z" fill="#153481"/>
<path d="M192.17 60.1055L171.84 63.6414L103.788 64.971L35.7359 66.3006L18.6543 62.9108" stroke="#153481" stroke-width="2.92222"/>
<path d="M155.338 25.974C154.867 25.4063 154.261 24.9689 153.577 24.7028C152.325 24.1531 151.031 23.7084 149.707 23.3732C145.798 22.3431 141.822 21.5961 137.809 21.1377C128.715 19.8751 119.503 19.728 110.375 20.6994C108.931 20.8893 107.617 21.1377 106.231 21.4007C103.091 21.9608 99.9901 22.7221 96.9461 23.68C90.2499 26.2124 84.0254 29.873 78.5361 34.5068C107.949 32.2713 117.666 32.023 144.61 31.3655L154.01 31.1317L154.4 30.9125C154.805 30.6694 155.162 30.3524 155.454 29.9774C155.792 29.5634 155.994 29.0524 156.031 28.5163C156.072 27.6159 155.83 26.7256 155.338 25.974Z" fill="#1F429A" stroke="#1F429A" stroke-width="1.46111"/>
<path d="M121.951 20.6758H116.999L113.461 32.1455H119.93L121.951 20.6758Z" fill="#153481"/>
<path d="M111.672 32.3966C115.744 32.3966 115.426 32.3089 118.891 32.1044C118.969 31.0989 118.921 30.0875 118.747 29.0945C118.458 27.6334 117.823 27.4727 114.964 27.4727C114.721 27.4984 114.485 27.5738 114.272 27.6944C114.059 27.8149 113.871 27.9781 113.722 28.174C112.823 29.4634 112.131 30.8885 111.672 32.3966Z" fill="#153481"/>
<path d="M111.672 32.3966C115.744 32.3966 115.426 32.3089 118.891 32.1044C118.969 31.0989 118.921 30.0875 118.747 29.0945C118.458 27.6334 117.823 27.4727 114.964 27.4727C114.721 27.4984 114.485 27.5738 114.272 27.6944C114.059 27.8149 113.871 27.9781 113.722 28.174C112.823 29.4634 112.131 30.8885 111.672 32.3966Z" fill="#153481"/>
<path d="M111.672 32.3966C115.744 32.3966 115.426 32.3089 118.891 32.1044C118.969 31.0989 118.921 30.0875 118.747 29.0945C118.458 27.6334 117.823 27.4727 114.964 27.4727C114.721 27.4984 114.485 27.5738 114.272 27.6944C114.059 27.8149 113.871 27.9781 113.722 28.174C112.823 29.4634 112.131 30.8885 111.672 32.3966Z" fill="#153481"/>
<path d="M145.59 31.5169H152.232C152.232 31.5169 153.676 30.4649 153.589 29.4275C153.474 28.6678 150.384 26.666 148.665 27.3089L148.203 27.5135C147.818 27.7044 147.459 27.9451 147.135 28.2294C146.514 28.7554 146.312 29.3399 145.59 31.5169Z" fill="#153481"/>
<path d="M145.59 31.5169H152.232C152.232 31.5169 153.676 30.4649 153.589 29.4275C153.474 28.6678 150.384 26.666 148.665 27.3089L148.203 27.5135C147.818 27.7044 147.459 27.9451 147.135 28.2294C146.514 28.7554 146.312 29.3399 145.59 31.5169Z" fill="#153481"/>
<path d="M145.59 31.5169H152.232C152.232 31.5169 153.676 30.4649 153.589 29.4275C153.474 28.6678 150.384 26.666 148.665 27.3089L148.203 27.5135C147.818 27.7044 147.459 27.9451 147.135 28.2294C146.514 28.7554 146.312 29.3399 145.59 31.5169Z" fill="#153481"/>
<path d="M155.911 25.6839L146.396 22.7617L150.251 31.353H154.496L155.94 28.4308L155.911 25.6839Z" fill="#153481"/>
<path d="M160.159 69.356C157.64 69.356 155.178 68.6002 153.084 67.1841C150.989 65.7681 149.357 63.7554 148.393 61.4007C147.429 59.0459 147.177 56.4547 147.669 53.9549C148.16 51.4551 149.373 49.1588 151.154 47.3565C152.935 45.5543 155.204 44.3269 157.675 43.8297C160.145 43.3324 162.706 43.5876 165.033 44.563C167.36 45.5384 169.349 47.1901 170.748 49.3094C172.148 51.4286 172.895 53.9202 172.895 56.469C172.895 58.1614 172.565 59.8371 171.925 61.4007C171.285 62.9642 170.347 64.3848 169.164 65.5815C167.982 66.7782 166.578 67.7274 165.033 68.375C163.488 69.0227 161.832 69.356 160.159 69.356Z" fill="#153481"/>
<path d="M160.157 66.4917C158.198 66.4917 156.283 65.9039 154.654 64.8025C153.025 63.7012 151.756 62.1357 151.006 60.3042C150.256 58.4727 150.06 56.4574 150.442 54.5131C150.824 52.5688 151.768 50.7828 153.153 49.381C154.538 47.9793 156.303 47.0247 158.225 46.6379C160.146 46.2512 162.138 46.4497 163.948 47.2083C165.758 47.9669 167.305 49.2516 168.393 50.8999C169.482 52.5482 170.063 54.4861 170.063 56.4685C170.063 57.7848 169.806 59.0882 169.309 60.3042C168.811 61.5203 168.081 62.6253 167.161 63.556C166.242 64.4867 165.15 65.225 163.948 65.7288C162.746 66.2325 161.458 66.4917 160.157 66.4917Z" fill="#153481"/>
<path d="M160.156 59.582V66.4931" stroke="white" stroke-width="1.46111"/>
<path d="M162.887 58.2148L168.099 62.5251" stroke="white" stroke-width="1.46111"/>
<path d="M163.581 55.1425L170.064 53.5938" stroke="white" stroke-width="1.46111"/>
<path d="M161.689 52.6696L164.577 46.4453" stroke="white" stroke-width="1.46111"/>
<path d="M158.644 52.6696L155.756 46.4453" stroke="white" stroke-width="1.46111"/>
<path d="M156.75 55.1425L150.252 53.5938" stroke="white" stroke-width="1.46111"/>
<path d="M157.428 58.2148L152.216 62.5251" stroke="white" stroke-width="1.46111"/>
<path d="M48.3701 69.356C45.8513 69.356 43.3891 68.6002 41.2947 67.1841C39.2004 65.7681 37.5681 63.7554 36.6042 61.4007C35.6403 59.0459 35.3881 56.4547 35.8795 53.9549C36.3709 51.4551 37.5838 49.1588 39.3649 47.3565C41.1459 45.5543 43.4152 44.3269 45.8856 43.8297C48.356 43.3324 50.9167 43.5876 53.2438 44.563C55.5708 45.5384 57.5598 47.1901 58.9592 49.3094C60.3586 51.4286 61.1055 53.9202 61.1055 56.469C61.1055 59.8869 59.7637 63.1647 57.3754 65.5815C54.9871 67.9983 51.7478 69.356 48.3701 69.356Z" fill="white" stroke="#153481" stroke-width="2.19166"/>
<path d="M48.3682 66.4917C46.4091 66.4917 44.494 65.9039 42.8651 64.8025C41.2362 63.7012 39.9666 62.1357 39.2169 60.3042C38.4672 58.4727 38.271 56.4574 38.6532 54.5131C39.0354 52.5688 39.9788 50.7828 41.3641 49.381C42.7494 47.9793 44.5143 47.0247 46.4358 46.6379C48.3572 46.2512 50.3488 46.4497 52.1588 47.2083C53.9687 47.9669 55.5157 49.2516 56.6041 50.8999C57.6925 52.5482 58.2735 54.4861 58.2735 56.4685C58.2735 59.1268 57.2299 61.6763 55.3723 63.556C53.5147 65.4357 50.9952 66.4917 48.3682 66.4917Z" fill="#153481"/>
<path d="M48.3711 59.582V66.4931" stroke="white" stroke-width="1.46111"/>
<path d="M51.0977 58.2148L56.3102 62.5251" stroke="white" stroke-width="1.46111"/>
<path d="M51.792 55.1386L58.2752 53.5898" stroke="white" stroke-width="1.46111"/>
<path d="M49.9023 52.6696L52.7902 46.4453" stroke="white" stroke-width="1.46111"/>
<path d="M46.8527 52.6735L43.9648 46.4492" stroke="white" stroke-width="1.46111"/>
<path d="M44.9623 55.1386L38.5225 53.5898" stroke="white" stroke-width="1.46111"/>
<path d="M45.6403 58.2148L40.4277 62.5251" stroke="white" stroke-width="1.46111"/>
<path d="M120.494 16.7148L116.711 32.6994C115.657 34.6865 113.722 36.9804 114.299 39.8442C114.877 42.708 113.072 45.2941 113.072 62.8274M78.1581 34.0728C75.2703 36.2499 73.9852 36.8197 73.682 39.5081C75.3136 42.8102 71.7327 46.5215 74.5339 63.3973M154.31 31.4136C149.953 42.7838 143.846 53.3859 136.218 62.8274" stroke="#153481" stroke-width="0.365277"/>
<defs>
<linearGradient id="paint0_linear_2161_9737" x1="107.268" y1="38.7402" x2="106.12" y2="85.1613" gradientUnits="userSpaceOnUse">
<stop stop-color="#136BCF" stop-opacity="0.09"/>
<stop offset="1" stop-color="#CEDDF1" stop-opacity="0"/>
</linearGradient>
</defs>
</svg>
