<svg width="179" height="67" viewBox="0 0 179 67" fill="none" xmlns="http://www.w3.org/2000/svg">
<path d="M41.5562 64.5988C45.9914 60.9606 46.8756 60.0548 48.6867 55.4961H44.2088L36.2227 64.5988H41.5562Z" fill="#153481"/>
<path d="M8.71659 23.4155C1.58612 34.2423 0.730469 40.5543 3.39726 50.4606L0.730469 52.623L15.8185 54.9754L44.212 54.0695H125.856L156.916 53.1783L173.787 48.6634C175.781 45.3052 177.276 41.6611 178.222 37.8512L177.338 34.2423C177.652 28.815 177.36 23.3688 176.468 18.0094L172.018 16.1976L161.38 8.08846L165.829 4.14346C165.829 4.14346 152.324 2.68235 120.551 0.870578C88.7775 -0.941197 80.6202 2.68235 80.6202 2.68235L68.1847 9.54956L52.8399 18.813C34.7713 19.6897 29.124 19.8065 8.71659 23.4155Z" fill="#F7FCFE"/>
<path d="M132.258 64.5939C127.823 60.9557 126.939 60.0206 125.128 55.4766H129.549L137.535 64.5939H132.258Z" fill="#153481"/>
<path d="M133.5 44.0257C86.011 47.0502 2.48472 48.599 2.48472 48.599L3.22629 50.6153L0.916016 52.8362L16.7456 55.8753H125.856L155.148 54.5896L173.787 48.599L177.338 42.3016L178.222 37.743L177.338 34.9961L161.366 39.5548C152.18 41.6556 142.872 43.149 133.5 44.0257Z" fill="#164B99"/>
<path d="M80.7756 3.01607L80.5474 3.14757L79.6918 3.64434L76.5401 5.51456L67.0423 11.0814C63.5199 13.1269 59.9119 15.1871 57.0597 16.8089C55.6336 17.6125 54.3786 18.27 53.4089 18.8253L52.9668 19.059L111.636 17.2911L170.962 16.3998L161.079 8.78745L160.779 8.53906L154.134 3.42518H153.877H152.836L149.071 3.17679C145.92 2.97223 141.627 2.69462 137.063 2.43162C127.979 1.78874 117.74 1.23351 113.433 1.23351C104.659 0.57975 95.8466 0.701961 87.0932 1.59879C85.405 1.80185 83.7325 2.12406 82.0876 2.56312C81.7391 2.65395 81.3962 2.76617 81.0608 2.89918L80.8326 2.98685L80.7756 3.01607ZM155.432 3.52746L161.279 8.02767L165.058 4.31645L155.432 3.52746Z" fill="#164B99" stroke="#153481" stroke-width="0.730554"/>
<path d="M88.4199 17.875C92.2704 17.7581 92.9549 17.7143 96.9765 17.5097C96.9765 17.5097 98.5737 15.508 98.2742 14.003C97.9747 12.4981 94.8231 11.2854 93.1403 12.0305C92.9814 12.0937 92.8286 12.1719 92.6839 12.2643C92.3036 12.4777 91.9533 12.7431 91.6429 13.0533C90.2956 14.45 89.204 16.0831 88.4199 17.875Z" fill="#153481"/>
<path d="M88.4199 17.875C92.2704 17.7581 92.9549 17.7143 96.9765 17.5097C96.9765 17.5097 98.5737 15.508 98.2742 14.003C97.9747 12.4981 94.8231 11.2854 93.1403 12.0305C92.9814 12.0937 92.8286 12.1719 92.6839 12.2643C92.3036 12.4777 91.9533 12.7431 91.6429 13.0533C90.2956 14.45 89.204 16.0831 88.4199 17.875Z" fill="#153481"/>
<path d="M88.4199 17.875C92.2704 17.7581 92.9549 17.7143 96.9765 17.5097C96.9765 17.5097 98.5737 15.508 98.2742 14.003C97.9747 12.4981 94.8231 11.2854 93.1403 12.0305C92.9814 12.0937 92.8286 12.1719 92.6839 12.2643C92.3036 12.4777 91.9533 12.7431 91.6429 13.0533C90.2956 14.45 89.204 16.0831 88.4199 17.875Z" fill="#153481"/>
<path d="M130.619 17.2617C134.356 17.1156 133.814 17.2617 137.75 17.0571C137.75 17.0571 139.033 14.997 138.833 13.945C138.634 12.893 134.954 11.7679 134.356 12.0309C134.198 12.097 134.045 12.1752 133.899 12.2647C133.519 12.4781 133.169 12.7435 132.858 13.0537C131.869 14.3055 131.11 15.7314 130.619 17.2617Z" fill="#153481"/>
<path d="M130.619 17.2617C134.356 17.1156 133.814 17.2617 137.75 17.0571C137.75 17.0571 139.033 14.997 138.833 13.945C138.634 12.893 134.954 11.7679 134.356 12.0309C134.198 12.097 134.045 12.1752 133.899 12.2647C133.519 12.4781 133.169 12.7435 132.858 13.0537C131.869 14.3055 131.11 15.7314 130.619 17.2617Z" fill="#153481"/>
<path d="M130.619 17.2617C134.356 17.1156 133.814 17.2617 137.75 17.0571C137.75 17.0571 139.033 14.997 138.833 13.945C138.634 12.893 134.954 11.7679 134.356 12.0309C134.198 12.097 134.045 12.1752 133.899 12.2647C133.519 12.4781 133.169 12.7435 132.858 13.0537C131.869 14.3055 131.11 15.7314 130.619 17.2617Z" fill="#153481"/>
<path d="M108.341 0.351562H102.751L92.3262 18.2501H100.712L108.341 0.351562Z" fill="#153481"/>
<path d="M130.703 1.78906H135.595L143.281 16.8239H136.293L130.703 1.78906Z" fill="#153481"/>
<path d="M154.264 54.5905L173.787 49.1259C175.786 45.7285 177.281 42.0451 178.222 38.1968L177.338 34.5587C177.652 29.078 177.36 23.5785 176.468 18.165L172.018 16.3532L161.38 8.15642L165.829 4.16759C165.829 4.16759 152.324 2.70649 120.551 0.8801C88.7775 -0.946286 80.6202 2.69187 80.6202 2.69187L68.1847 9.63214L52.8399 18.9248C34.7713 19.8161 29.124 19.933 8.71659 23.5711C1.58612 34.5002 0.730469 40.8706 3.39726 50.8939L0.730469 52.7641L15.8185 55.4525" stroke="#164B99" stroke-width="0.730554" stroke-linecap="round" stroke-linejoin="round"/>
<path d="M89.4762 66.2271C138.489 66.2271 178.222 65.586 178.222 64.7952C178.222 64.0044 138.489 63.3633 89.4762 63.3633C40.4633 63.3633 0.730469 64.0044 0.730469 64.7952C0.730469 65.586 40.4633 66.2271 89.4762 66.2271Z" fill="#164B99"/>
<path d="M3.08008 48.3231C112.148 47.461 154.346 43.4868 177.063 34.9539M11.3799 26.3626C54.7474 22.8706 90.5709 21.4825 173.783 19.9922" stroke="#164B99" stroke-width="0.584444"/>
<path d="M173.787 49.5078L152.481 55.8782M126.255 56.4042H43.3279M0.730469 53.146L17.5869 56.7987" stroke="#153481" stroke-width="1.46111" stroke-linecap="round" stroke-linejoin="round"/>
<path d="M46.4365 32.0734L43.0281 34.908C42.7465 35.1478 42.5658 35.4894 42.5233 35.8621C42.4808 36.2347 42.5799 36.6098 42.8 36.9097C44.4576 39.1205 45.7003 41.6274 46.465 44.3029C46.5267 44.523 46.638 44.7252 46.79 44.8931C46.9419 45.061 47.1303 45.19 47.3399 45.2697C47.5494 45.3493 47.7743 45.3773 47.9964 45.3515C48.2185 45.3257 48.4316 45.2468 48.6184 45.1211L50.0445 44.1422C51.6428 43.0673 53.4848 42.4331 55.3924 42.3012C79.2509 40.4748 94.3532 39.8904 118.982 39.8173C120.358 39.8164 121.703 39.4001 122.849 38.6205C123.996 37.841 124.893 36.7326 125.428 35.434L127.795 29.5895C127.885 29.3731 127.922 29.1376 127.904 28.9031C127.886 28.6686 127.813 28.4421 127.692 28.2427C127.57 28.0433 127.403 27.877 127.205 27.7579C127.007 27.6388 126.784 27.5704 126.554 27.5586C97.2767 27.5586 79.8784 28.2453 50.3868 30.4808C48.9386 30.5694 47.5553 31.1271 46.4365 32.0734Z" fill="url(#paint0_linear_2161_9855)"/>
<path d="M95.6913 17.6406L93.9086 21.2934C91.0565 26.6995 91.0565 31.6819 92.1403 45.8692M57.529 18.5611C55.8464 19.6678 54.4188 21.1362 53.3451 22.8644C52.2715 24.5926 51.5775 26.5394 51.3112 28.5697C50.4271 34.9402 50.4271 36.7665 52.1954 47.6956M139.786 17.6406C138.06 25.8228 134.082 38.4176 134.082 38.4176" stroke="#164B99" stroke-width="0.365277"/>
<path d="M30.0222 64.6033C37.8668 64.6033 44.2261 58.0813 44.2261 50.036C44.2261 41.9907 37.8668 35.4688 30.0222 35.4688C22.1777 35.4688 15.8184 41.9907 15.8184 50.036C15.8184 58.0813 22.1777 64.6033 30.0222 64.6033Z" fill="white" stroke="#164B99" stroke-width="2.92222"/>
<mask id="mask0_2161_9855" style="mask-type:luminance" maskUnits="userSpaceOnUse" x="19" y="39" width="22" height="22">
<path d="M40.5573 39.0234H19.5938V60.5017H40.5573V39.0234Z" fill="white"/>
</mask>
<g mask="url(#mask0_2161_9855)">
<path d="M30.0755 60.5017C28.0024 60.5017 25.9759 59.8719 24.2522 58.6919C22.5285 57.5118 21.185 55.8346 20.3916 53.8723C19.5983 51.91 19.3907 49.7507 19.7952 47.6675C20.1996 45.5843 21.1979 43.6708 22.6638 42.1689C24.1297 40.667 25.9974 39.6442 28.0306 39.2298C30.0639 38.8154 32.1714 39.0281 34.0867 39.8409C36.002 40.6537 37.6391 42.0302 38.7908 43.7962C39.9426 45.5623 40.5573 47.6386 40.5573 49.7626C40.5573 52.6108 39.453 55.3423 37.4873 57.3563C35.5216 59.3703 32.8555 60.5017 30.0755 60.5017Z" fill="#164B99"/>
</g>
<path d="M30.0234 54.3594V62.5124" stroke="white" stroke-width="1.46111"/>
<path d="M33.2031 52.7344L39.264 57.819" stroke="white" stroke-width="1.46111"/>
<path d="M34.001 49.1115L41.5593 47.2852" stroke="white" stroke-width="1.46111"/>
<path d="M31.791 46.1884L35.1423 38.8828" stroke="white" stroke-width="1.46111"/>
<path d="M28.2562 46.1884L24.8906 38.8828" stroke="white" stroke-width="1.46111"/>
<path d="M26.0436 49.1115L18.4854 47.2852" stroke="white" stroke-width="1.46111"/>
<path d="M26.8265 52.7344L20.7656 57.819" stroke="white" stroke-width="1.46111"/>
<path d="M95.7637 17.537L104.848 1.07031" stroke="#164B99" stroke-width="0.365277" stroke-linecap="round"/>
<path d="M139.789 16.8189L133.5 2.5" stroke="#164B99" stroke-width="0.365277" stroke-linecap="round"/>
<path d="M143.512 64.6033C151.357 64.6033 157.716 58.0813 157.716 50.036C157.716 41.9907 151.357 35.4688 143.512 35.4688C135.668 35.4688 129.309 41.9907 129.309 50.036C129.309 58.0813 135.668 64.6033 143.512 64.6033Z" fill="white" stroke="#164B99" stroke-width="2.92222"/>
<path d="M143.283 60.5017C141.209 60.5017 139.183 59.8719 137.459 58.6919C135.735 57.5118 134.392 55.8346 133.599 53.8723C132.805 51.91 132.598 49.7507 133.002 47.6675C133.407 45.5843 134.405 43.6708 135.871 42.1689C137.337 40.667 139.204 39.6442 141.238 39.2298C143.271 38.8154 145.378 39.0281 147.294 39.8409C149.209 40.6537 150.846 42.0302 151.998 43.7962C153.15 45.5623 153.764 47.6386 153.764 49.7626C153.764 52.6108 152.66 55.3423 150.694 57.3563C148.729 59.3703 146.063 60.5017 143.283 60.5017Z" fill="#164B99"/>
<path d="M143.51 54.3594V62.5124" stroke="white" stroke-width="1.46111"/>
<path d="M146.691 52.7344L152.752 57.819" stroke="white" stroke-width="1.46111"/>
<path d="M147.488 49.1115L155.047 47.2852" stroke="white" stroke-width="1.46111"/>
<path d="M145.292 46.1884L148.643 38.8828" stroke="white" stroke-width="1.46111"/>
<path d="M141.741 46.1884L138.375 38.8828" stroke="white" stroke-width="1.46111"/>
<path d="M139.544 49.1115L131.972 47.2852" stroke="white" stroke-width="1.46111"/>
<path d="M140.329 52.7344L134.254 57.819" stroke="white" stroke-width="1.46111"/>
<defs>
<linearGradient id="paint0_linear_2161_9855" x1="85.6364" y1="28.5741" x2="84.7105" y2="57.5394" gradientUnits="userSpaceOnUse">
<stop stop-color="#136BCF" stop-opacity="0.09"/>
<stop offset="1" stop-color="#CEDDF1" stop-opacity="0"/>
</linearGradient>
</defs>
</svg>
