<svg width="215" height="76" viewBox="0 0 215 76" fill="none" xmlns="http://www.w3.org/2000/svg">
<path d="M52.6011 68.9777C56.319 65.5694 58.8756 61.0833 59.912 56.1491L53.1713 55.6523L37.7598 70.4972L52.6011 68.9777Z" fill="#153481"/>
<path d="M156.973 68.9777C153.255 65.5694 150.699 61.0833 149.662 56.1491L156.417 55.6523L171.829 70.4972L156.973 68.9777Z" fill="#153481"/>
<path d="M107.785 73.0667C163.183 73.0667 208.092 71.8958 208.092 70.4513C208.092 69.0069 163.183 67.8359 107.785 67.8359C52.3873 67.8359 7.47852 69.0069 7.47852 70.4513C7.47852 71.8958 52.3873 73.0667 107.785 73.0667Z" fill="#153481"/>
<path d="M185.939 55.8832L205.313 49.1328C205.808 48.9547 206.246 48.6462 206.581 48.2398C206.916 47.8335 207.134 47.3444 207.214 46.8243L208.106 40.5561L206.965 39.5918L208.106 28.9403L207.228 28.0929V22.5991C207.228 21.8241 206.92 21.0808 206.372 20.5328C205.823 19.9848 205.079 19.6769 204.304 19.6769L148.901 20.1298C148.535 20.1313 148.182 19.9956 147.911 19.7494C147.64 19.5032 147.472 19.1645 147.439 18.8002L146.606 6.73146C146.558 6.04967 146.265 5.40806 145.782 4.92479C145.298 4.44151 144.656 4.14912 143.974 4.10147C138.564 3.76541 124.965 2.91797 112.405 2.91797C100.473 2.91797 90.3841 3.44397 85.515 3.7508C83.4763 3.88703 81.514 4.57938 79.8417 5.75252L59.5318 19.9837C57.8934 21.1218 55.9557 21.752 53.9608 21.7955C33.4169 22.3361 23.9419 23.7388 12.4198 25.9889C11.8049 26.1222 11.2495 26.45 10.8359 26.9238C10.4224 27.3976 10.1728 27.9921 10.1242 28.6189L9.52465 38.759L10.2704 41.199V43.9897L9.11523 44.9541V49.4104C9.1219 49.9341 9.26927 50.4464 9.54193 50.8936C9.8146 51.3409 10.2025 51.7067 10.6652 51.9528L21.7486 57.6803L55.6423 56.5553H154.677L185.939 55.8832Z" fill="white" fill-opacity="0.6"/>
<path d="M185.939 55.8832L205.313 49.1328C205.808 48.9547 206.246 48.6462 206.581 48.2398C206.916 47.8335 207.134 47.3444 207.214 46.8243L208.106 40.5561L206.965 39.5918L208.106 28.9403L207.228 28.0929V22.5991C207.228 21.8241 206.92 21.0808 206.372 20.5328C205.823 19.9848 205.079 19.6769 204.304 19.6769L148.901 20.1298C148.535 20.1313 148.182 19.9956 147.911 19.7494C147.64 19.5032 147.472 19.1645 147.439 18.8002L146.606 6.73146C146.558 6.04967 146.265 5.40806 145.782 4.92479C145.298 4.44151 144.656 4.14912 143.974 4.10147C138.564 3.76541 124.965 2.91797 112.405 2.91797C100.473 2.91797 90.3841 3.44397 85.515 3.7508C83.4763 3.88703 81.514 4.57938 79.8417 5.75252L59.5318 19.9837C57.8934 21.1218 55.9557 21.752 53.9608 21.7955C33.4169 22.3361 23.9419 23.7388 12.4198 25.9889C11.8049 26.1222 11.2495 26.45 10.8359 26.9238C10.4224 27.3976 10.1728 27.9921 10.1242 28.6189L9.52465 38.759L10.2704 41.199V43.9897L9.11523 44.9541V49.4104C9.1219 49.9341 9.26927 50.4464 9.54193 50.8936C9.8146 51.3409 10.2025 51.7067 10.6652 51.9528L21.7486 57.6803L55.6423 56.5553H154.677L185.939 55.8832Z" fill="url(#paint0_linear_2161_9899)"/>
<path d="M123.722 41.5295L10.4747 41.1496C9.50967 35.4659 9.90446 28.5694 11.1473 25.9102C26.1495 22.1844 36.5749 21.9214 62.2072 20.9717L84.8713 6.1122L113.486 5.30859L134.835 5.7177L138.49 5.95148C139.194 6.02544 139.847 6.35197 140.328 6.87053C140.81 7.38909 141.086 8.06448 141.107 8.77142V20.6356C141.107 23.1742 140.263 25.6408 138.709 27.6489L130.55 38.1689C129.744 39.2128 128.71 40.0584 127.526 40.6409C126.343 41.2234 125.041 41.5274 123.722 41.5295Z" fill="#F7FCFE"/>
<path d="M135.963 17.2696L127.599 21.9889C126.352 22.6904 124.951 23.0719 123.52 23.0994L83.1194 23.7715H22.8184C38.2445 21.9451 46.0819 21.5798 62.8825 20.9516L84.8155 5.75602L113.387 5.05469L135.963 5.71219C136.351 5.71219 136.723 5.86612 136.997 6.14014C137.271 6.41415 137.425 6.78578 137.425 7.1733V14.8149C137.412 15.3149 137.271 15.8031 137.015 16.2329C136.759 16.6627 136.397 17.0196 135.963 17.2696Z" fill="white"/>
<path d="M187.007 56.1102L205.416 49.1991C205.91 48.9956 206.339 48.6605 206.656 48.2303C206.973 47.8001 207.166 47.2912 207.214 46.7591L207.755 38.6499C207.755 38.6499 204.29 41.1776 202.243 42.3758C200.196 43.5739 171.069 49.3306 171.069 49.3306L151.651 47.1244L35.4938 48.4394L22.4657 40.7393H18.3569C17.9691 40.7393 17.5972 40.5854 17.323 40.3114C17.0488 40.0374 16.8947 39.6657 16.8947 39.2782V33.4338C16.8947 33.0463 16.7406 32.6746 16.4664 32.4006C16.1922 32.1266 15.8203 31.9727 15.4325 31.9727H9.81767V38.2554L10.5634 40.6955V43.5446L8.89648 44.5966V49.0822C8.89701 49.5947 9.03239 50.098 9.28903 50.5417C9.54567 50.9853 9.91456 51.3537 10.3587 51.61L23.1968 58.4479L55.6575 57.2206H154.751L187.007 56.1102Z" fill="#153481"/>
<path d="M30.5374 32.3634C36.664 32.115 43.6972 32.2611 48.0838 32.3634C49.3306 32.392 50.5433 32.7757 51.5794 33.4694C52.6154 34.163 53.4318 35.1378 53.9326 36.2791C56.7523 42.6904 58.7754 49.4227 59.9568 56.3255L21.9982 56.983L18.3135 55.142C19.9658 46.8722 21.5303 41.9921 24.9957 35.7677C25.5483 34.7719 26.3487 33.9353 27.3195 33.3389C28.2903 32.7425 29.3987 32.4065 30.5374 32.3634Z" fill="#153481" fill-opacity="0.8"/>
<path d="M17.9336 55.4343C19.0255 48.4892 21.29 41.7798 24.6305 35.5925C25.18 34.5843 25.9826 33.7363 26.9593 33.1317C27.936 32.5272 29.0533 32.1869 30.2014 32.1443C36.4011 31.8959 43.522 32.0566 47.7478 32.1443C48.9492 32.1656 50.1212 32.5198 51.1332 33.1673C52.1452 33.8147 52.9574 34.7302 53.4796 35.8117C56.7294 42.4265 59.0141 49.4724 60.2642 56.7347" stroke="#153481" stroke-width="1.46111"/>
<path d="M161.785 33.1825C168.19 32.9195 175.574 33.0657 179.873 33.1825C180.994 33.195 182.091 33.5133 183.044 34.1029C183.997 34.6926 184.772 35.5313 185.283 36.5285C188.181 42.1623 189.977 48.2964 190.576 54.6024L185.941 56.2973L153.363 56.984H148.977C150.268 49.8371 152.739 42.9542 156.288 36.6162C156.829 35.6182 157.62 34.7775 158.584 34.1758C159.547 33.574 160.65 33.2319 161.785 33.1825Z" fill="#153481" fill-opacity="0.8"/>
<path d="M148.535 56.7956C149.874 49.5369 152.409 42.5505 156.036 36.1209C156.59 35.1346 157.387 34.3065 158.352 33.7157C159.317 33.1248 160.418 32.7909 161.549 32.7458C167.997 32.4974 175.483 32.6727 179.826 32.8188C180.945 32.8349 182.04 33.1477 182.998 33.7253C183.956 34.303 184.744 35.1247 185.28 36.1063C188.305 41.8289 190.388 48.0006 191.451 54.3848" stroke="#153481" stroke-width="1.46111"/>
<path d="M135.478 13.0489V6.99993C135.478 6.815 135.407 6.63719 135.279 6.50374C135.151 6.37028 134.976 6.29153 134.791 6.28399C116.674 5.56804 105.225 5.52421 87.6498 6.28399C85.9784 6.34526 84.3535 6.84952 82.9415 7.74509L63.5674 20.4567L123.05 20.0476C125.192 20.0495 127.306 19.549 129.22 18.5865L133.607 16.3364C134.195 16.0177 134.682 15.5408 135.012 14.9598C135.343 14.3788 135.505 13.7169 135.478 13.0489Z" fill="#153481" stroke="#153481" stroke-width="1.46111"/>
<path d="M96.3223 20.8029C100.446 20.8029 99.9924 21.0074 103.487 20.8029C103.657 19.8362 103.657 18.8474 103.487 17.8807C103.209 16.4195 102.551 16.2734 99.6561 16.2734C99.4097 16.2983 99.1709 16.3734 98.9547 16.494C98.7384 16.6146 98.5491 16.7782 98.3986 16.9748C97.4682 18.1066 96.7634 19.4061 96.3223 20.8029Z" fill="#153481"/>
<path d="M96.3223 20.8029C100.446 20.8029 99.9924 21.0074 103.487 20.8029C103.657 19.8362 103.657 18.8474 103.487 17.8807C103.209 16.4195 102.551 16.2734 99.6561 16.2734C99.4097 16.2983 99.1709 16.3734 98.9547 16.494C98.7384 16.6146 98.5491 16.7782 98.3986 16.9748C97.4682 18.1066 96.7634 19.4061 96.3223 20.8029Z" fill="#153481"/>
<path d="M96.3223 20.8029C100.446 20.8029 99.9924 21.0074 103.487 20.8029C103.657 19.8362 103.657 18.8474 103.487 17.8807C103.209 16.4195 102.551 16.2734 99.6561 16.2734C99.4097 16.2983 99.1709 16.3734 98.9547 16.494C98.7384 16.6146 98.5491 16.7782 98.3986 16.9748C97.4682 18.1066 96.7634 19.4061 96.3223 20.8029Z" fill="#153481"/>
<path d="M109.891 5.1875H105.504L102.054 20.8068H109.248L109.891 5.1875Z" fill="#153481"/>
<path d="M127.846 18.9088C129.147 18.9088 129.308 18.6604 131.428 17.9445C131.428 17.9445 135.171 16.1181 135.01 15.0223C134.893 14.3209 132.642 14.0287 130.96 14.6132L130.478 14.8177C130.093 15.0095 129.734 15.2501 129.41 15.5336C128.782 16.1473 128.577 16.7464 127.846 18.9088Z" fill="#153481"/>
<path d="M127.846 18.9088C129.147 18.9088 129.308 18.6604 131.428 17.9445C131.428 17.9445 135.171 16.1181 135.01 15.0223C134.893 14.3209 132.642 14.0287 130.96 14.6132L130.478 14.8177C130.093 15.0095 129.734 15.2501 129.41 15.5336C128.782 16.1473 128.577 16.7464 127.846 18.9088Z" fill="#153481"/>
<path d="M127.846 18.9088C129.147 18.9088 129.308 18.6604 131.428 17.9445C131.428 17.9445 135.171 16.1181 135.01 15.0223C134.893 14.3209 132.642 14.0287 130.96 14.6132L130.478 14.8177C130.093 15.0095 129.734 15.2501 129.41 15.5336C128.782 16.1473 128.577 16.7464 127.846 18.9088Z" fill="#153481"/>
<path d="M102.712 20.457C100.826 25.8047 100.577 32.6865 101.455 47.5898M62.7505 21.0999C59.8261 23.2185 59.519 26.9444 59.2266 29.6036C58.978 34.9074 59.0657 38.1218 61.5076 48.1158" stroke="#153481" stroke-width="0.365277"/>
<path d="M147.686 19.8113L204.449 19.3438L206.525 20.6149L207.081 22.3536L150.567 22.8212C149.791 22.8212 149.048 22.5133 148.499 21.9653C147.951 21.4173 147.643 20.674 147.643 19.899L147.686 19.8113Z" fill="white"/>
<path d="M207.711 38.5836L206.731 37.5462L208.091 28.4728L207.214 27.6253V22.1462C207.214 21.3711 206.906 20.6279 206.357 20.0798C205.809 19.5318 205.065 19.2239 204.289 19.2239L148.901 19.6623C148.533 19.6635 148.178 19.5257 147.907 19.2764C147.635 19.0272 147.469 18.685 147.439 18.3181L146.781 6.83374C146.744 6.14883 146.46 5.50043 145.982 5.00876C145.503 4.51709 144.862 4.2155 144.178 4.15991C138.914 3.80924 125.784 2.91797 113.297 2.91797C101.307 2.91797 90.4572 3.3563 85.2664 3.6193C83.1633 3.72731 81.1346 4.43178 79.4176 5.65024L59.5318 19.5162C57.8927 20.6548 55.9563 21.2896 53.9608 21.3425C33.4316 21.9124 23.9565 23.2712 12.4344 25.5213C11.8173 25.6553 11.2602 25.9854 10.8464 26.4621C10.4326 26.9388 10.1844 27.5365 10.1388 28.1659L9.52465 38.2914L10.2704 40.7315V43.5368L9.11523 44.4865" stroke="#153481" stroke-width="0.511388"/>
<path d="M169.957 71.3308C179.228 71.3308 186.743 63.8668 186.743 54.6595C186.743 45.4523 179.228 37.9883 169.957 37.9883C160.686 37.9883 153.171 45.4523 153.171 54.6595C153.171 63.8668 160.686 71.3308 169.957 71.3308Z" fill="#153481"/>
<path d="M181.423 54.6482C181.44 52.379 180.783 50.1557 179.534 48.2604C178.285 46.3651 176.501 44.8833 174.407 44.0028C172.314 43.1223 170.007 42.8829 167.777 43.315C165.548 43.747 163.497 44.8311 161.885 46.4295C160.273 48.028 159.172 50.0689 158.723 52.2933C158.273 54.5178 158.495 56.8255 159.36 58.9238C160.225 61.022 161.694 62.8162 163.582 64.0789C165.469 65.3415 167.688 66.0156 169.959 66.0157C171.459 66.0214 172.945 65.732 174.333 65.1638C175.721 64.5957 176.983 63.76 178.047 62.7044C179.112 61.6488 179.958 60.3941 180.537 59.0118C181.116 57.6295 181.417 56.1468 181.423 54.6482Z" fill="#153481" stroke="white" stroke-width="1.46111"/>
<path d="M168.936 58.4482C168.746 58.4482 168.564 58.5236 168.43 58.6579C168.295 58.7922 168.22 58.9743 168.22 59.1641V63.7374C168.22 63.9248 168.293 64.1047 168.424 64.2386C168.556 64.3724 168.734 64.4495 168.922 64.4534H170.764C170.86 64.4574 170.955 64.4417 171.045 64.4073C171.135 64.373 171.216 64.3206 171.285 64.2535C171.353 64.1865 171.407 64.106 171.443 64.0173C171.48 63.9285 171.497 63.8332 171.495 63.7374V59.1495C171.495 58.9597 171.42 58.7776 171.285 58.6433C171.151 58.509 170.969 58.4336 170.779 58.4336L168.936 58.4482Z" fill="white"/>
<path d="M172.955 56.8691C172.926 56.9593 172.915 57.0544 172.922 57.1489C172.93 57.2435 172.956 57.3356 173 57.4198C173.043 57.5041 173.103 57.5789 173.176 57.6399C173.249 57.7009 173.333 57.7468 173.423 57.775L177.81 59.2361C177.992 59.2916 178.189 59.2738 178.358 59.1865C178.528 59.0991 178.656 58.9492 178.716 58.7686L179.287 56.986C179.319 56.8969 179.332 56.8023 179.326 56.7078C179.321 56.6134 179.296 56.521 179.253 56.4364C179.211 56.3518 179.152 56.2766 179.08 56.2153C179.008 56.1541 178.924 56.1081 178.833 56.0801L174.447 54.619C174.358 54.5872 174.263 54.5737 174.168 54.5794C174.074 54.5851 173.981 54.6099 173.897 54.6522C173.812 54.6945 173.737 54.7535 173.676 54.8256C173.614 54.8978 173.568 54.9816 173.54 55.072L172.955 56.8691Z" fill="white"/>
<path d="M172.721 52.5991C172.873 52.71 173.062 52.7568 173.248 52.7295C173.434 52.7021 173.602 52.6029 173.716 52.453L176.508 48.7272C176.619 48.5714 176.663 48.3788 176.633 48.1904C176.603 48.002 176.501 47.8328 176.347 47.719L174.885 46.6524C174.732 46.5431 174.541 46.4986 174.355 46.5287C174.169 46.5588 174.002 46.661 173.891 46.8131L171.171 50.5243C171.061 50.6801 171.016 50.8728 171.046 51.0612C171.076 51.2496 171.179 51.4187 171.332 51.5325L172.721 52.5991Z" fill="white"/>
<path d="M168.525 51.5051C168.602 51.4513 168.668 51.3827 168.718 51.3032C168.767 51.2237 168.801 51.135 168.816 51.0423C168.831 50.9497 168.827 50.8549 168.805 50.7638C168.783 50.6726 168.742 50.5868 168.686 50.5116L165.996 46.7565C165.942 46.6796 165.873 46.6142 165.794 46.5643C165.714 46.5145 165.625 46.481 165.533 46.466C165.44 46.451 165.345 46.4548 165.254 46.4771C165.163 46.4994 165.077 46.5397 165.001 46.5958L163.539 47.6478C163.386 47.7616 163.283 47.9307 163.253 48.1191C163.223 48.3075 163.268 48.5002 163.378 48.6559L166.083 52.3526C166.137 52.4295 166.206 52.4948 166.285 52.5447C166.365 52.5946 166.454 52.628 166.547 52.643C166.639 52.658 166.734 52.6542 166.825 52.632C166.916 52.6097 167.002 52.5693 167.078 52.5133L168.525 51.5051Z" fill="white"/>
<path d="M166.272 55.0993C166.209 54.9214 166.079 54.7749 165.91 54.6904C165.741 54.606 165.546 54.5902 165.366 54.6464L160.979 56.1075C160.883 56.1244 160.791 56.1611 160.71 56.2155C160.629 56.2698 160.56 56.3405 160.507 56.4231C160.455 56.5056 160.421 56.5981 160.406 56.6948C160.392 56.7914 160.398 56.89 160.424 56.9842L160.965 58.7083C161.025 58.8889 161.153 59.0388 161.323 59.1262C161.492 59.2135 161.689 59.2313 161.871 59.1758L166.258 57.7147C166.348 57.6867 166.432 57.6407 166.504 57.5795C166.576 57.5183 166.635 57.4431 166.678 57.3584C166.72 57.2738 166.745 57.1815 166.751 57.087C166.756 56.9926 166.743 56.8979 166.711 56.8088L166.272 55.0993Z" fill="white"/>
<path d="M38.6649 71.3152C47.9356 71.3152 55.4509 63.8512 55.4509 54.6439C55.4509 45.4366 47.9356 37.9727 38.6649 37.9727C29.3943 37.9727 21.8789 45.4366 21.8789 54.6439C21.8789 63.8512 29.3943 71.3152 38.6649 71.3152Z" fill="#153481"/>
<path d="M50.1183 54.6482C50.1357 52.379 49.4782 50.1557 48.2291 48.2604C46.9801 46.3651 45.1959 44.8833 43.1028 44.0028C41.0097 43.1223 38.702 42.8829 36.4725 43.315C34.243 43.747 32.1922 44.8311 30.5802 46.4295C28.9682 48.028 27.8677 50.0689 27.4182 52.2933C26.9687 54.5178 27.1905 56.8255 28.0556 58.9238C28.9206 61.022 30.3898 62.8162 32.2768 64.0789C34.1639 65.3415 36.3837 66.0156 38.6547 66.0157C40.1544 66.0214 41.6405 65.732 43.0282 65.1638C44.4159 64.5957 45.6781 63.76 46.7426 62.7044C47.8071 61.6488 48.6531 60.3941 49.2323 59.0118C49.8115 57.6295 50.1126 56.1468 50.1183 54.6482Z" fill="#153481" stroke="white" stroke-width="1.46111"/>
<path d="M37.5993 58.4482C37.5052 58.4482 37.412 58.4667 37.3251 58.5027C37.2382 58.5387 37.1592 58.5914 37.0927 58.6579C37.0261 58.7244 36.9734 58.8033 36.9373 58.8902C36.9013 58.977 36.8828 59.0701 36.8828 59.1641V63.7374C36.8828 63.9248 36.9562 64.1047 37.0875 64.2386C37.2187 64.3724 37.3972 64.4495 37.5847 64.4534H39.427C39.6184 64.4534 39.8022 64.3784 39.9389 64.2446C40.0756 64.1107 40.1543 63.9286 40.1581 63.7374V59.1495C40.1581 58.9597 40.0826 58.7776 39.9483 58.6433C39.8139 58.509 39.6317 58.4336 39.4417 58.4336L37.5993 58.4482Z" fill="white"/>
<path d="M41.6487 56.8712C41.6192 56.9613 41.608 57.0564 41.6156 57.151C41.6232 57.2455 41.6495 57.3376 41.6931 57.4219C41.7366 57.5062 41.7965 57.581 41.8692 57.6419C41.9419 57.7029 42.026 57.7488 42.1166 57.777L46.5032 59.2382C46.5924 59.27 46.6871 59.2835 46.7816 59.2778C46.8761 59.2721 46.9685 59.2473 47.0532 59.205C47.1379 59.1627 47.2132 59.1037 47.2744 59.0315C47.3357 58.9594 47.3817 58.8756 47.4098 58.7852L47.98 56.988C48.0095 56.8979 48.0208 56.8028 48.0131 56.7082C48.0055 56.6137 47.9792 56.5216 47.9357 56.4373C47.8921 56.353 47.8323 56.2782 47.7596 56.2173C47.6868 56.1563 47.6027 56.1104 47.5121 56.0822L43.1255 54.6211C42.9452 54.566 42.7504 54.5843 42.5835 54.6718C42.4165 54.7593 42.2908 54.9091 42.2336 55.0886L41.6487 56.8712Z" fill="white"/>
<path d="M41.4154 52.604C41.5672 52.7149 41.7565 52.7617 41.9425 52.7344C42.1285 52.7071 42.2963 52.6078 42.4097 52.4579L45.1294 48.7467C45.2396 48.591 45.2845 48.3983 45.2544 48.2099C45.2244 48.0215 45.1218 47.8523 44.9686 47.7385L43.5064 46.6719C43.3528 46.5626 43.1623 46.5182 42.9762 46.5483C42.79 46.5783 42.6233 46.6805 42.5121 46.8327L39.7924 50.5293C39.6821 50.685 39.6373 50.8777 39.6673 51.0661C39.6974 51.2545 39.8 51.4236 39.9532 51.5374L41.4154 52.604Z" fill="white"/>
<path d="M37.2195 51.5051C37.2964 51.4513 37.3618 51.3827 37.4118 51.3032C37.4617 51.2237 37.4951 51.135 37.5101 51.0423C37.5251 50.9497 37.5214 50.8549 37.4991 50.7638C37.4768 50.6726 37.4364 50.5868 37.3803 50.5116L34.6752 46.7565C34.6214 46.6796 34.5527 46.6142 34.4731 46.5643C34.3936 46.5145 34.3048 46.481 34.2121 46.466C34.1194 46.451 34.0246 46.4548 33.9334 46.4771C33.8421 46.4994 33.7563 46.5397 33.6809 46.5958L32.2187 47.6478C32.1413 47.7029 32.0756 47.7729 32.0255 47.8537C31.9754 47.9344 31.9419 48.0243 31.9269 48.1182C31.9119 48.212 31.9158 48.3079 31.9383 48.4002C31.9608 48.4926 32.0014 48.5795 32.0579 48.6559L34.763 52.3526C34.8168 52.4295 34.8855 52.4948 34.9651 52.5447C35.0446 52.5946 35.1334 52.628 35.2261 52.643C35.3188 52.658 35.4136 52.6542 35.5048 52.632C35.5961 52.6097 35.6819 52.5693 35.7573 52.5133L37.2195 51.5051Z" fill="white"/>
<path d="M34.8966 55.0993C34.8334 54.9214 34.7037 54.7749 34.5347 54.6904C34.3656 54.606 34.1705 54.5902 33.9901 54.6464L29.6035 56.1075C29.5134 56.1341 29.4296 56.1785 29.357 56.2381C29.2844 56.2976 29.2245 56.3712 29.1809 56.4543C29.1373 56.5374 29.1108 56.6284 29.103 56.7219C29.0952 56.8155 29.1063 56.9096 29.1356 56.9988L29.6766 58.7229C29.7048 58.8134 29.7508 58.8975 29.8118 58.9701C29.8728 59.0428 29.9477 59.1026 30.032 59.1461C30.1164 59.1896 30.2085 59.2159 30.3031 59.2235C30.3978 59.2311 30.4929 59.2199 30.5832 59.1904L34.9698 57.7293C35.0602 57.7013 35.1441 57.6553 35.2163 57.5941C35.2885 57.5329 35.3475 57.4577 35.3899 57.373C35.4322 57.2884 35.457 57.1961 35.4627 57.1016C35.4684 57.0072 35.4549 56.9126 35.423 56.8234L34.8966 55.0993Z" fill="white"/>
<defs>
<linearGradient id="paint0_linear_2161_9899" x1="109.601" y1="6.04194" x2="105.844" y2="95.0759" gradientUnits="userSpaceOnUse">
<stop stop-color="#136BCF" stop-opacity="0.15"/>
<stop offset="1" stop-color="#CEDDF1" stop-opacity="0"/>
</linearGradient>
</defs>
</svg>
