<svg width="247" height="80" viewBox="0 0 247 80" fill="none" xmlns="http://www.w3.org/2000/svg">
<path d="M11.5363 62.7961C12.2703 63.1792 12.8448 63.7058 13.2597 64.3759C13.6745 65.0462 13.882 65.8201 13.882 66.6977C13.882 68.07 13.3953 69.2111 12.4219 70.1205C11.4485 71.03 10.2597 71.4848 8.85549 71.4848H1.6748V54.7299H8.3289C9.70123 54.7299 10.8581 55.1768 11.7996 56.0703C12.757 56.9478 13.2357 58.0491 13.2357 59.3736C13.2357 60.8255 12.6692 61.9664 11.5363 62.7961ZM8.3289 57.315H4.42739V61.719H8.3289C8.93528 61.719 9.4459 61.5118 9.8608 61.0968C10.2757 60.6658 10.4831 60.1392 10.4831 59.517C10.4831 58.8948 10.2757 58.3762 9.8608 57.9611C9.4459 57.5305 8.93528 57.315 8.3289 57.315ZM8.85549 68.8997C9.49378 68.8997 10.0283 68.6765 10.4592 68.2296C10.906 67.7668 11.1294 67.2083 11.1294 66.5542C11.1294 65.8998 10.906 65.3493 10.4592 64.9024C10.0283 64.4399 9.49378 64.2085 8.85549 64.2085H4.42739V68.8997H8.85549ZM21.4034 71.7959C19.6481 71.7959 18.1561 71.1896 16.9274 69.9768C15.6987 68.7642 15.0844 67.2721 15.0844 65.5011C15.0844 63.7297 15.6987 62.2376 16.9274 61.0251C18.1561 59.8122 19.6481 59.2059 21.4034 59.2059C23.1746 59.2059 24.6666 59.8122 25.8793 61.0251C27.108 62.2376 27.7224 63.7297 27.7224 65.5011C27.7224 67.2721 27.108 68.7642 25.8793 69.9768C24.6666 71.1896 23.1746 71.7959 21.4034 71.7959ZM18.7465 68.2057C19.4646 68.9236 20.3502 69.2828 21.4034 69.2828C22.4565 69.2828 23.3422 68.9236 24.0602 68.2057C24.7783 67.4876 25.1373 66.5861 25.1373 65.5011C25.1373 64.416 24.7783 63.5142 24.0602 62.7961C23.3422 62.0782 22.4565 61.719 21.4034 61.719C20.3502 61.719 19.4646 62.0782 18.7465 62.7961C18.0285 63.5142 17.6694 64.416 17.6694 65.5011C17.6694 66.5861 18.0285 67.4876 18.7465 68.2057ZM29.5811 71.4848V54.0117H32.1661V71.4848H29.5811ZM37.1303 57.2433C36.8113 57.5624 36.4284 57.7218 35.9815 57.7218C35.5346 57.7218 35.1438 57.5624 34.8085 57.2433C34.4894 56.908 34.33 56.5172 34.33 56.0703C34.33 55.6234 34.4894 55.2405 34.8085 54.9215C35.1279 54.5864 35.5187 54.4188 35.9815 54.4188C36.4444 54.4188 36.8352 54.5864 37.1543 54.9215C37.4733 55.2405 37.633 55.6234 37.633 56.0703C37.633 56.5172 37.4654 56.908 37.1303 57.2433ZM34.689 71.4848V59.517H37.2741V71.4848H34.689ZM141.773 62.8203V63.9691C141.773 66.2667 141.015 68.15 139.499 69.6178C137.983 71.0701 136.004 71.7959 133.563 71.7959C130.978 71.7959 128.839 70.9582 127.148 69.2828C125.472 67.6074 124.635 65.5489 124.635 63.1075C124.635 60.6818 125.472 58.6315 127.148 56.9558C128.839 55.2644 130.93 54.4188 133.419 54.4188C134.983 54.4188 136.411 54.7777 137.704 55.4959C138.996 56.214 140.001 57.1792 140.72 58.3921L138.35 59.7564C137.903 58.9585 137.241 58.3204 136.363 57.8416C135.486 57.3469 134.504 57.0995 133.419 57.0995C131.664 57.0995 130.22 57.6739 129.087 58.8228C127.954 59.9719 127.388 61.4079 127.388 63.1314C127.388 64.8546 127.954 66.283 129.087 67.4159C130.236 68.5487 131.736 69.1152 133.587 69.1152C135.071 69.1152 136.275 68.7722 137.201 68.0859C138.142 67.384 138.741 66.4503 138.996 65.2856H133.395V62.8203H141.773ZM153.121 59.517H155.706V71.4848H153.121V69.7616C152.148 71.1179 150.752 71.7959 148.933 71.7959C147.289 71.7959 145.885 71.1896 144.72 69.9768C143.555 68.7483 142.973 67.2562 142.973 65.5011C142.973 63.7297 143.555 62.2376 144.72 61.0251C145.885 59.8122 147.289 59.2059 148.933 59.2059C150.752 59.2059 152.148 59.8759 153.121 61.2163V59.517ZM146.635 68.2536C147.353 68.9717 148.254 69.3306 149.339 69.3306C150.424 69.3306 151.326 68.9717 152.044 68.2536C152.762 67.5195 153.121 66.6021 153.121 65.5011C153.121 64.3998 152.762 63.4903 152.044 62.7722C151.326 62.0384 150.424 61.6712 149.339 61.6712C148.254 61.6712 147.353 62.0384 146.635 62.7722C145.917 63.4903 145.558 64.3998 145.558 65.5011C145.558 66.6021 145.917 67.5195 146.635 68.2536ZM160.826 61.5277C161.48 60.0436 162.709 59.3015 164.512 59.3015V62.1021C163.523 62.0384 162.661 62.2775 161.927 62.8203C161.193 63.3466 160.826 64.2244 160.826 65.4529V71.4848H158.241V59.517H160.826V61.5277ZM168.385 57.2433C168.066 57.5624 167.682 57.7218 167.236 57.7218C166.789 57.7218 166.398 57.5624 166.063 57.2433C165.744 56.908 165.584 56.5172 165.584 56.0703C165.584 55.6234 165.744 55.2405 166.063 54.9215C166.382 54.5864 166.773 54.4188 167.236 54.4188C167.698 54.4188 168.089 54.5864 168.409 54.9215C168.728 55.2405 168.887 55.6234 168.887 56.0703C168.887 56.5172 168.72 56.908 168.385 57.2433ZM165.943 71.4848V59.517H168.528V71.4848H165.943Z" fill="#EB722E" />
<path d="M47.5428 70.2888H55.4416V71.4854H46.2744V54.7305H47.5428V70.2888ZM67.2844 59.5176H68.5049V71.4854H67.2844V68.7807C66.7737 69.7061 66.0715 70.4322 65.178 70.9588C64.2845 71.4854 63.2712 71.7487 62.1383 71.7487C60.4307 71.7487 58.9708 71.1504 57.7579 69.9535C56.5451 68.7409 55.9388 67.2568 55.9388 65.5017C55.9388 63.7463 56.5451 62.2701 57.7579 61.0735C58.9708 59.8606 60.4307 59.2543 62.1383 59.2543C63.2712 59.2543 64.2845 59.5176 65.178 60.0442C66.0715 60.5708 66.7737 61.2969 67.2844 62.2223V59.5176ZM58.6195 69.1158C59.609 70.1052 60.8139 70.5999 62.234 70.5999C63.654 70.5999 64.851 70.1052 65.8241 69.1158C66.7976 68.1263 67.2844 66.9217 67.2844 65.5017C67.2844 64.0813 66.7976 62.8767 65.8241 61.8873C64.851 60.8978 63.654 60.4031 62.234 60.4031C60.8139 60.4031 59.609 60.8978 58.6195 61.8873C57.6464 62.8767 57.1596 64.0813 57.1596 65.5017C57.1596 66.9217 57.6464 68.1263 58.6195 69.1158ZM82.3287 59.5176H83.5253V70.911C83.5253 72.6502 82.9589 74.0227 81.826 75.0278C80.6931 76.0332 79.2727 76.5358 77.5655 76.5358C76.1932 76.5358 75.0202 76.2805 74.047 75.7699C73.0735 75.2592 72.3633 74.5573 71.9167 73.6635L72.9699 73.0652C73.7359 74.6131 75.2675 75.387 77.5655 75.387C79.0496 75.387 80.2143 74.98 81.06 74.1662C81.9057 73.3683 82.3287 72.2833 82.3287 70.911V68.709C81.834 69.6503 81.1317 70.3924 80.2223 70.9349C79.3288 71.4774 78.3155 71.7487 77.1826 71.7487C75.4591 71.7487 73.9912 71.1504 72.7783 69.9535C71.5814 68.7409 70.9831 67.2568 70.9831 65.5017C70.9831 63.7463 71.5814 62.2701 72.7783 61.0735C73.9912 59.8606 75.4591 59.2543 77.1826 59.2543C78.3155 59.2543 79.3288 59.5256 80.2223 60.0681C81.1317 60.6106 81.834 61.3527 82.3287 62.2943V59.5176ZM73.6399 69.1158C74.6294 70.1052 75.834 70.5999 77.2543 70.5999C78.6744 70.5999 79.8714 70.1052 80.8445 69.1158C81.834 68.1263 82.3287 66.9217 82.3287 65.5017C82.3287 64.0813 81.834 62.8767 80.8445 61.8873C79.8714 60.8978 78.6744 60.4031 77.2543 60.4031C75.834 60.4031 74.6294 60.8978 73.6399 61.8873C72.6668 62.8767 72.18 64.0813 72.18 65.5017C72.18 66.9217 72.6668 68.1263 73.6399 69.1158ZM97.2749 59.5176H98.4957V71.4854H97.2749V68.7807C96.7642 69.7061 96.0623 70.4322 95.1685 70.9588C94.275 71.4854 93.2617 71.7487 92.1288 71.7487C90.4212 71.7487 88.9613 71.1504 87.7484 69.9535C86.5359 68.7409 85.9296 67.2568 85.9296 65.5017C85.9296 63.7463 86.5359 62.2701 87.7484 61.0735C88.9613 59.8606 90.4212 59.2543 92.1288 59.2543C93.2617 59.2543 94.275 59.5176 95.1685 60.0442C96.0623 60.5708 96.7642 61.2969 97.2749 62.2223V59.5176ZM88.6104 69.1158C89.5995 70.1052 90.8044 70.5999 92.2245 70.5999C93.6448 70.5999 94.8415 70.1052 95.815 69.1158C96.7881 68.1263 97.2749 66.9217 97.2749 65.5017C97.2749 64.0813 96.7881 62.8767 95.815 61.8873C94.8415 60.8978 93.6448 60.4031 92.2245 60.4031C90.8044 60.4031 89.5995 60.8978 88.6104 61.8873C87.6369 62.8767 87.1501 64.0813 87.1501 65.5017C87.1501 66.9217 87.6369 68.1263 88.6104 69.1158ZM107.173 71.7487C105.418 71.7487 103.926 71.1504 102.697 69.9535C101.484 68.7409 100.878 67.2568 100.878 65.5017C100.878 63.7463 101.484 62.2701 102.697 61.0735C103.926 59.8606 105.418 59.2543 107.173 59.2543C108.912 59.2543 110.388 59.8606 111.601 61.0735C112.83 62.2701 113.444 63.7463 113.444 65.5017C113.444 67.2568 112.83 68.7409 111.601 69.9535C110.388 71.1504 108.912 71.7487 107.173 71.7487ZM103.559 69.1158C104.548 70.1052 105.753 70.5999 107.173 70.5999C108.593 70.5999 109.79 70.1052 110.763 69.1158C111.737 68.1263 112.224 66.9217 112.224 65.5017C112.224 64.0813 111.737 62.8767 110.763 61.8873C109.79 60.8978 108.593 60.4031 107.173 60.4031C105.753 60.4031 104.548 60.8978 103.559 61.8873C102.586 62.8767 102.099 64.0813 102.099 65.5017C102.099 66.9217 102.586 68.1263 103.559 69.1158ZM116.922 69.8578L115.629 74.8365H114.528L115.438 69.8578H116.922ZM178.797 70.2888H186.696V71.4854H177.528V54.7305H178.797V70.2888ZM196.417 59.5176H197.709L192.539 72.5864C192.076 73.7674 191.422 74.6928 190.576 75.3631C189.731 76.0491 188.805 76.3522 187.8 76.2725V75.1476C188.566 75.2114 189.252 74.9879 189.858 74.4773C190.481 73.9826 190.983 73.2727 191.366 72.347L191.63 71.7009L186.124 59.5176H187.417L192.252 70.1689L196.417 59.5176ZM209.47 71.7487C208.306 71.7487 207.276 71.5093 206.383 71.0305C205.505 70.5521 204.867 69.8578 204.468 68.9484L205.545 68.302C206.135 69.7861 207.444 70.5279 209.47 70.5279C210.715 70.5279 211.704 70.2168 212.438 69.5945C213.188 68.9564 213.563 68.0546 213.563 66.8899V54.7305H214.856V66.8899C214.856 68.4377 214.345 69.6344 213.324 70.48C212.319 71.3257 211.034 71.7487 209.47 71.7487ZM228.448 59.5176H229.668V71.4854H228.448V68.7807C227.937 69.7061 227.235 70.4322 226.342 70.9588C225.448 71.4854 224.435 71.7487 223.302 71.7487C221.594 71.7487 220.134 71.1504 218.921 69.9535C217.709 68.7409 217.102 67.2568 217.102 65.5017C217.102 63.7463 217.709 62.2701 218.921 61.0735C220.134 59.8606 221.594 59.2543 223.302 59.2543C224.435 59.2543 225.448 59.5176 226.342 60.0442C227.235 60.5708 227.937 61.2969 228.448 62.2223V59.5176ZM219.783 69.1158C220.773 70.1052 221.977 70.5999 223.397 70.5999C224.818 70.5999 226.014 70.1052 226.988 69.1158C227.961 68.1263 228.448 66.9217 228.448 65.5017C228.448 64.0813 227.961 62.8767 226.988 61.8873C226.014 60.8978 224.818 60.4031 223.397 60.4031C221.977 60.4031 220.773 60.8978 219.783 61.8873C218.81 62.8767 218.323 64.0813 218.323 65.5017C218.323 66.9217 218.81 68.1263 219.783 69.1158ZM238.346 71.7487C236.591 71.7487 235.099 71.1504 233.87 69.9535C232.657 68.7409 232.051 67.2568 232.051 65.5017C232.051 63.7463 232.657 62.2701 233.87 61.0735C235.099 59.8606 236.591 59.2543 238.346 59.2543C240.085 59.2543 241.561 59.8606 242.774 61.0735C244.003 62.2701 244.617 63.7463 244.617 65.5017C244.617 67.2568 244.003 68.7409 242.774 69.9535C241.561 71.1504 240.085 71.7487 238.346 71.7487ZM234.732 69.1158C235.721 70.1052 236.926 70.5999 238.346 70.5999C239.766 70.5999 240.963 70.1052 241.936 69.1158C242.91 68.1263 243.396 66.9217 243.396 65.5017C243.396 64.0813 242.91 62.8767 241.936 61.8873C240.963 60.8978 239.766 60.4031 238.346 60.4031C236.926 60.4031 235.721 60.8978 234.732 61.8873C233.758 62.8767 233.272 64.0813 233.272 65.5017C233.272 66.9217 233.758 68.1263 234.732 69.1158Z" fill="white" />
<path d="M114.771 1.625H2.85156V46.6711H114.771V1.625Z" stroke="white" strokeWidth="3.25076" />
<path d="M99.7732 36.4851L92.1134 27.3428H98.2201L104.856 35.179V36.4851H99.7732ZM79.5117 36.4851V11.1055H99.985C100.879 11.1055 101.703 11.329 102.456 11.7762C103.209 12.2233 103.809 12.8234 104.256 13.5764C104.703 14.3059 104.927 15.1178 104.927 16.012V22.8599C104.927 23.7541 104.703 24.5778 104.256 25.3308C103.809 26.0839 103.209 26.6839 102.456 27.131C101.703 27.5546 100.879 27.7664 99.985 27.7664L84.1713 27.8017V36.4851H79.5117ZM84.5946 23.0717H99.7732C99.8909 23.0717 99.9966 23.0364 100.091 22.9658C100.185 22.8952 100.232 22.8011 100.232 22.6834V16.1885C100.232 16.0708 100.185 15.9767 100.091 15.9061C99.9966 15.812 99.8909 15.7649 99.7732 15.7649H84.5946C84.4772 15.7649 84.3712 15.812 84.2771 15.9061C84.2066 15.9767 84.1713 16.0708 84.1713 16.1885V22.6834C84.1713 22.8011 84.2066 22.8952 84.2771 22.9658C84.3712 23.0364 84.4772 23.0717 84.5946 23.0717Z" fill="white" />
<path d="M17.4436 36.4852C16.5494 36.4852 15.7258 36.2618 14.9727 35.8146C14.2432 35.3674 13.6549 34.7792 13.2078 34.0497C12.7607 33.2965 12.5371 32.4729 12.5371 31.5788V15.9768C12.5371 15.0826 12.7607 14.2707 13.2078 13.5412C13.6549 12.7882 14.2432 12.1881 14.9727 11.741C15.7258 11.2939 16.5494 11.0703 17.4436 11.0703H37.8815V15.765H18.432C18.0555 15.765 17.7496 15.8709 17.5142 16.0827C17.3024 16.2945 17.1965 16.6004 17.1965 17.0005V30.5551C17.1965 30.9318 17.3024 31.2377 17.5142 31.4728C17.7496 31.6846 18.0555 31.7906 18.432 31.7906H37.8815V36.4852H17.4436Z" fill="white" />
<path d="M99.8122 36.4851L92.1525 27.3428H98.2591L104.895 35.179V36.4851H99.8122ZM79.5508 36.4851V11.1055H100.024C100.918 11.1055 101.742 11.329 102.495 11.7762C103.248 12.2233 103.848 12.8234 104.295 13.5764C104.742 14.3059 104.966 15.1178 104.966 16.012V22.8599C104.966 23.7541 104.742 24.5778 104.295 25.3308C103.848 26.0839 103.248 26.6839 102.495 27.131C101.742 27.5546 100.918 27.7664 100.024 27.7664L84.2104 27.8017V36.4851H79.5508ZM84.6337 23.0717H99.8122C99.9299 23.0717 100.036 23.0364 100.13 22.9658C100.224 22.8952 100.271 22.8011 100.271 22.6834V16.1885C100.271 16.0708 100.224 15.9767 100.13 15.9061C100.036 15.812 99.9299 15.7649 99.8122 15.7649H84.6337C84.5163 15.7649 84.4102 15.812 84.3161 15.9061C84.2456 15.9767 84.2104 16.0708 84.2104 16.1885V22.6834C84.2104 22.8011 84.2456 22.8952 84.3161 22.9658C84.4102 23.0364 84.5163 23.0717 84.6337 23.0717Z" fill="white" />
<path d="M73.1948 23.8008H43.4746V31.6946H73.1948V23.8008Z" fill="white" />
<path d="M50.2654 15.7617H45.6064V36.8688H50.2654V15.7617Z" fill="white" />
<path d="M71.0324 13.7383H66.373V36.8665H71.0324V13.7383Z" fill="white" />
<path d="M71.0307 13.7344L71.0331 18.3964L58.825 18.2333L58.8223 13.7344H71.0307Z" fill="white" />
<path d="M66.8505 21.0461L58.6705 15.0823L59.6008 13.735L51.7231 8.71484L48.8066 13.2939L56.6843 18.3141L57.3179 17.3197L65.789 22.7195C66.2356 21.8641 66.2997 21.8373 66.8505 21.0488V21.0461Z" fill="#EB722E" />
<path d="M45.6064 15.7582L54.6523 21.4975L56.1759 19.1077L47.1727 13.3711L45.6064 15.7582Z" fill="#EB722E" />
<path d="M52.6273 4.8125L51.1045 7.20202L60.108 12.9401L61.6308 10.5506L52.6273 4.8125Z" fill="#EB722E" />
<path d="M56.2578 16.6612L57.8244 14.1992L71.0324 23.8038H66.3731L56.2578 16.6612Z" fill="#EB722E" />
<path d="M121.913 36.8383V11.4336H127.029L136.238 22.407L145.412 11.4336H150.564V36.8383H145.871V18.2082L136.238 29.6755L126.571 18.2434V36.8383H121.913ZM154.153 36.8383V16.3381C154.153 15.4442 154.377 14.6327 154.824 13.9035C155.271 13.1507 155.859 12.5509 156.588 12.104C157.341 11.6571 158.164 11.4336 159.058 11.4336H174.618C175.512 11.4336 176.335 11.6571 177.088 12.104C177.841 12.5509 178.441 13.1507 178.888 13.9035C179.335 14.6327 179.558 15.4442 179.558 16.3381V36.8383H174.865V28.2995H158.811V36.8383H154.153ZM158.811 23.6419H174.865V16.5498C174.865 16.4322 174.818 16.3381 174.724 16.2675C174.63 16.1734 174.524 16.1264 174.407 16.1264H159.234C159.117 16.1264 159.011 16.1734 158.917 16.2675C158.846 16.3381 158.811 16.4322 158.811 16.5498V23.6419ZM183.014 36.8383V11.4336H188.13L203.726 29.9931V11.4336H208.418V36.8383H203.302L187.671 18.2434V36.8383H183.014ZM211.877 36.8383V11.4336H232.342C233.236 11.4336 234.059 11.6571 234.812 12.104C235.565 12.5509 236.165 13.1507 236.612 13.9035C237.059 14.6327 237.282 15.4442 237.282 16.3381V31.9338C237.282 32.8276 237.059 33.6509 236.612 34.4037C236.165 35.1329 235.565 35.7208 234.812 36.1677C234.059 36.6149 233.236 36.8383 232.342 36.8383H211.877ZM216.923 32.1453H232.13C232.248 32.1453 232.354 32.1101 232.448 32.0396C232.542 31.9455 232.589 31.8397 232.589 31.722V16.5498C232.589 16.4322 232.542 16.3381 232.448 16.2675C232.354 16.1734 232.248 16.1264 232.13 16.1264H216.923C216.805 16.1264 216.7 16.1734 216.605 16.2675C216.535 16.3381 216.499 16.4322 216.499 16.5498V31.722C216.499 31.8397 216.535 31.9455 216.605 32.0396C216.7 32.1101 216.805 32.1453 216.923 32.1453ZM240.175 36.8383V11.4336H244.797V36.8383H240.175Z" fill="white" />
</svg>
