<?xml version="1.0" encoding="UTF-8"?>
<!DOCTYPE svg PUBLIC "-//W3C//DTD SVG 1.1//EN" "http://www.w3.org/Graphics/SVG/1.1/DTD/svg11.dtd">
<svg xmlns="http://www.w3.org/2000/svg" version="1.1" width="216px" height="132px" style="shape-rendering:geometricPrecision; text-rendering:geometricPrecision; image-rendering:optimizeQuality; fill-rule:evenodd; clip-rule:evenodd" xmlns:xlink="http://www.w3.org/1999/xlink">
<g><path style="opacity:1" fill="#aaacac" d="M 179.5,30.5 C 179.953,29.5416 180.619,28.7083 181.5,28C 170.172,27.5001 158.838,27.3335 147.5,27.5C 143.5,27.5 139.5,27.5 135.5,27.5C 147.989,26.3406 160.656,25.5073 173.5,25C 172.833,24.6667 172.167,24.3333 171.5,24C 180.199,23.3547 188.865,23.688 197.5,25C 193.833,25.3333 190.167,25.6667 186.5,26C 184.266,27.7498 181.932,29.2498 179.5,30.5 Z"/></g>
<g><path style="opacity:1" fill="#18221f" d="M 147.5,27.5 C 158.838,27.3335 170.172,27.5001 181.5,28C 180.619,28.7083 179.953,29.5416 179.5,30.5C 176.595,35.2049 174.262,40.2049 172.5,45.5C 171.188,46.1451 170.188,47.1451 169.5,48.5C 155.85,49.4992 142.183,49.8325 128.5,49.5C 128.783,48.7109 129.283,48.0442 130,47.5C 135.072,48.4714 140.238,48.8047 145.5,48.5C 145.5,45.1667 145.5,41.8333 145.5,38.5C 149.667,37.1968 153.834,37.1968 158,38.5C 158.773,36.6476 158.273,35.3143 156.5,34.5C 154.5,34.1667 152.5,33.8333 150.5,33.5C 148.598,32.4891 146.598,32.3224 144.5,33C 145.571,34.8255 144.904,35.9921 142.5,36.5C 140.679,35.8933 139.012,34.7266 137.5,33C 141.849,31.5241 145.182,29.6907 147.5,27.5 Z"/></g>
<g><path style="opacity:1" fill="#4c504f" d="M 215.5,30.5 C 215.5,32.1667 215.5,33.8333 215.5,35.5C 212.624,34.1968 209.624,33.6968 206.5,34C 207.406,35.6995 207.739,37.5328 207.5,39.5C 208.294,42.802 208.96,46.1353 209.5,49.5C 207.5,49.5 205.5,49.5 203.5,49.5C 203.285,43.9714 202.118,38.6381 200,33.5C 194.309,33.4681 188.476,33.6347 182.5,34C 181.837,35.5185 180.837,36.6851 179.5,37.5C 180.167,32.6744 182.834,29.5078 187.5,28C 197.049,26.9427 206.383,27.776 215.5,30.5 Z"/></g>
<g><path style="opacity:0.945" fill="#5e6261" d="M 134.5,27.5 C 133.657,29.1733 132.324,30.34 130.5,31C 134.667,30.9327 135.334,32.0994 132.5,34.5C 132.217,33.7109 131.717,33.0442 131,32.5C 128.198,33.3298 125.365,34.1632 122.5,35C 116.556,38.6112 110.889,42.6112 105.5,47C 112.58,47.7945 119.58,47.6278 126.5,46.5C 121.255,48.2923 115.588,49.1256 109.5,49C 115.825,49.4995 122.158,49.6662 128.5,49.5C 142.183,49.8325 155.85,49.4992 169.5,48.5C 170.188,47.1451 171.188,46.1451 172.5,45.5C 172.249,47.1703 171.582,48.6703 170.5,50C 168.19,50.4966 165.857,50.6633 163.5,50.5C 140.5,50.5 117.5,50.5 94.5,50.5C 96.4622,48.8268 97.4622,46.9935 97.5,45C 95.8659,44.5065 94.1992,44.3398 92.5,44.5C 94.631,43.6862 96.9644,43.1862 99.5,43C 105.453,37.8673 111.786,33.3673 118.5,29.5C 123.737,28.1834 129.07,27.5167 134.5,27.5 Z"/></g>
<g><path style="opacity:0.129" fill="#808c88" d="M 150.5,33.5 C 152.5,33.8333 154.5,34.1667 156.5,34.5C 155.848,35.7251 154.681,36.3917 153,36.5C 151.833,36.3333 150.667,36.1667 149.5,36C 150.252,35.3292 150.586,34.4959 150.5,33.5 Z"/></g>
<g><path style="opacity:1" fill="#29332f" d="M 134.5,27.5 C 134.833,27.5 135.167,27.5 135.5,27.5C 139.5,27.5 143.5,27.5 147.5,27.5C 145.182,29.6907 141.849,31.5241 137.5,33C 139.012,34.7266 140.679,35.8933 142.5,36.5C 144.904,35.9921 145.571,34.8255 144.5,33C 146.598,32.3224 148.598,32.4891 150.5,33.5C 150.586,34.4959 150.252,35.3292 149.5,36C 150.667,36.1667 151.833,36.3333 153,36.5C 154.681,36.3917 155.848,35.7251 156.5,34.5C 158.273,35.3143 158.773,36.6476 158,38.5C 153.834,37.1968 149.667,37.1968 145.5,38.5C 145.5,41.8333 145.5,45.1667 145.5,48.5C 140.238,48.8047 135.072,48.4714 130,47.5C 129.283,48.0442 128.783,48.7109 128.5,49.5C 122.158,49.6662 115.825,49.4995 109.5,49C 115.588,49.1256 121.255,48.2923 126.5,46.5C 127.946,42.1225 129.946,38.1225 132.5,34.5C 135.334,32.0994 134.667,30.9327 130.5,31C 132.324,30.34 133.657,29.1733 134.5,27.5 Z M 145.5,38.5 C 144.694,39.9972 144.028,41.6639 143.5,43.5C 142.311,44.4287 140.978,44.762 139.5,44.5C 139.586,42.323 140.253,40.323 141.5,38.5C 142.958,37.218 144.292,37.218 145.5,38.5 Z"/></g>
<g><path style="opacity:0.157" fill="#747f7c" d="M 161.5,39.5 C 165.019,40.3089 166.352,42.3089 165.5,45.5C 164.264,44.7542 162.93,44.4208 161.5,44.5C 161.5,42.8333 161.5,41.1667 161.5,39.5 Z"/></g>
<g><path style="opacity:1" fill="#393e3d" d="M 193.5,36.5 C 194.833,38.5 194.833,40.5 193.5,42.5C 191.143,42.3367 188.81,42.5034 186.5,43C 185.058,43.3768 184.058,44.2101 183.5,45.5C 182.761,45.631 182.094,45.4643 181.5,45C 182.833,44 182.833,43 181.5,42C 179.414,41.443 178.081,42.2764 177.5,44.5C 178.154,46.1151 178.654,47.7818 179,49.5C 179.889,48.1118 180.389,48.2785 180.5,50C 180.022,51.3026 179.355,52.4693 178.5,53.5C 177.063,52.2745 175.396,51.2745 173.5,50.5C 174.748,45.725 176.748,41.3917 179.5,37.5C 179.281,38.675 179.614,39.675 180.5,40.5C 181.382,39.2402 182.382,38.0736 183.5,37C 186.817,36.5017 190.15,36.335 193.5,36.5 Z"/></g>
<g><path style="opacity:1" fill="#646464" d="M 92.5,44.5 C 91.3948,46.3 92.0614,47.4666 94.5,48C 93.1813,49.6279 91.8479,49.4613 90.5,47.5C 89.7025,47.9569 89.3691,48.6236 89.5,49.5C 88.1789,46.7647 89.1789,45.0981 92.5,44.5 Z"/></g>
<g><path style="opacity:1" fill="#888d8b" d="M 207.5,39.5 C 209.957,39.7923 212.624,39.7923 215.5,39.5C 215.5,43.1667 215.5,46.8333 215.5,50.5C 209.167,50.5 202.833,50.5 196.5,50.5C 197.038,48.8828 197.371,47.2161 197.5,45.5C 196.448,45.6495 195.448,45.4828 194.5,45C 195.566,43.841 195.233,43.0076 193.5,42.5C 194.833,40.5 194.833,38.5 193.5,36.5C 190.15,36.335 186.817,36.5017 183.5,37C 182.382,38.0736 181.382,39.2402 180.5,40.5C 179.614,39.675 179.281,38.675 179.5,37.5C 180.837,36.6851 181.837,35.5185 182.5,34C 188.476,33.6347 194.309,33.4681 200,33.5C 202.118,38.6381 203.285,43.9714 203.5,49.5C 205.5,49.5 207.5,49.5 209.5,49.5C 208.96,46.1353 208.294,42.802 207.5,39.5 Z M 193.5,36.5 C 191.708,35.6909 189.708,35.1909 187.5,35C 194.182,32.6518 197.349,34.8184 197,41.5C 196.098,39.5692 194.931,37.9025 193.5,36.5 Z"/></g>
<g><path style="opacity:1" fill="#232323" d="M 92.5,44.5 C 94.1992,44.3398 95.8659,44.5065 97.5,45C 97.4622,46.9935 96.4622,48.8268 94.5,50.5C 92.8333,50.5 91.1667,50.5 89.5,50.5C 89.5,50.1667 89.5,49.8333 89.5,49.5C 89.3691,48.6236 89.7025,47.9569 90.5,47.5C 91.8479,49.4613 93.1813,49.6279 94.5,48C 92.0614,47.4666 91.3948,46.3 92.5,44.5 Z"/></g>
<g><path style="opacity:1" fill="#b9baba" d="M 86.5,50.5 C 87.5,50.5 88.5,50.5 89.5,50.5C 91.1667,50.5 92.8333,50.5 94.5,50.5C 117.5,50.5 140.5,50.5 163.5,50.5C 163.336,56.1667 163.003,56.5 162.5,51.5C 156.38,51.0264 150.547,52.0264 145,54.5C 144.517,55.448 144.351,56.448 144.5,57.5C 146.415,57.2155 148.081,57.5489 149.5,58.5C 145.694,58.4121 142.027,59.0787 138.5,60.5C 139.602,61.1757 140.602,61.8423 141.5,62.5C 136.77,62.2834 132.103,62.6167 127.5,63.5C 127.611,62.8826 127.944,62.3826 128.5,62C 120.236,60.6301 111.903,60.1301 103.5,60.5C 113.987,59.5056 124.654,59.1722 135.5,59.5C 135.141,57.2341 135.808,55.4007 137.5,54C 132.718,53.794 128.051,53.6273 123.5,53.5C 111.396,52.2625 99.2291,52.2625 87,53.5C 85.1667,53.3333 83.3333,53.1667 81.5,53C 83.6526,52.9005 85.3192,52.0672 86.5,50.5 Z"/></g>
<g><path style="opacity:1" fill="#171918" d="M 183.5,45.5 C 184.058,44.2101 185.058,43.3768 186.5,43C 188.81,42.5034 191.143,42.3367 193.5,42.5C 195.233,43.0076 195.566,43.841 194.5,45C 195.448,45.4828 196.448,45.6495 197.5,45.5C 197.371,47.2161 197.038,48.8828 196.5,50.5C 192.393,50.6201 188.726,51.7868 185.5,54C 183.071,54.7033 180.738,54.5366 178.5,53.5C 179.355,52.4693 180.022,51.3026 180.5,50C 180.389,48.2785 179.889,48.1118 179,49.5C 178.654,47.7818 178.154,46.1151 177.5,44.5C 178.081,42.2764 179.414,41.443 181.5,42C 182.833,43 182.833,44 181.5,45C 182.094,45.4643 182.761,45.631 183.5,45.5 Z"/></g>
<g><path style="opacity:1" fill="#5b5c5c" d="M 183.5,45.5 C 185.857,45.3367 188.19,45.5034 190.5,46C 187.634,47.4568 184.634,47.7901 181.5,47C 182.416,46.7216 183.082,46.2216 183.5,45.5 Z"/></g>
<g><path style="opacity:1" fill="#dedede" d="M 215.5,26.5 C 215.5,27.8333 215.5,29.1667 215.5,30.5C 206.383,27.776 197.049,26.9427 187.5,28C 182.834,29.5078 180.167,32.6744 179.5,37.5C 176.748,41.3917 174.748,45.725 173.5,50.5C 175.396,51.2745 177.063,52.2745 178.5,53.5C 180.738,54.5366 183.071,54.7033 185.5,54C 188.726,51.7868 192.393,50.6201 196.5,50.5C 202.833,50.5 209.167,50.5 215.5,50.5C 215.5,54.5 215.5,58.5 215.5,62.5C 214.178,62.67 213.011,62.3366 212,61.5C 211.667,59.1667 211.333,56.8333 211,54.5C 210.667,55.8333 210.333,57.1667 210,58.5C 206.538,58.017 206.038,56.8504 208.5,55C 205.167,54.3333 201.833,54.3333 198.5,55C 200.055,56.6458 201.721,56.9791 203.5,56C 201.606,57.0793 201.273,58.4126 202.5,60C 204.899,60.711 207.232,60.5443 209.5,59.5C 210.631,61.0745 210.798,62.7412 210,64.5C 209.667,64.1667 209.333,63.8333 209,63.5C 199.218,64.753 189.385,65.753 179.5,66.5C 178.264,65.7542 176.93,65.4208 175.5,65.5C 175.719,66.675 175.386,67.675 174.5,68.5C 173.167,67.1667 171.833,67.1667 170.5,68.5C 169.145,67.8118 168.145,66.8118 167.5,65.5C 168.222,65.0825 168.722,64.4158 169,63.5C 171.09,64.7908 172.424,64.1242 173,61.5C 173.333,62.1667 173.667,62.8333 174,63.5C 174.651,61.765 174.485,60.0983 173.5,58.5C 165.481,55.8424 157.481,55.8424 149.5,58.5C 148.081,57.5489 146.415,57.2155 144.5,57.5C 144.351,56.448 144.517,55.448 145,54.5C 150.547,52.0264 156.38,51.0264 162.5,51.5C 163.003,56.5 163.336,56.1667 163.5,50.5C 165.857,50.6633 168.19,50.4966 170.5,50C 171.582,48.6703 172.249,47.1703 172.5,45.5C 174.262,40.2049 176.595,35.2049 179.5,30.5C 181.932,29.2498 184.266,27.7498 186.5,26C 190.167,25.6667 193.833,25.3333 197.5,25C 188.865,23.688 180.199,23.3547 171.5,24C 172.167,24.3333 172.833,24.6667 173.5,25C 160.656,25.5073 147.989,26.3406 135.5,27.5C 135.167,27.5 134.833,27.5 134.5,27.5C 129.07,27.5167 123.737,28.1834 118.5,29.5C 121.966,26.9505 125.966,25.4505 130.5,25C 158.943,20.4698 187.276,20.9698 215.5,26.5 Z"/></g>
<g><path style="opacity:0.798" fill="#ededed" d="M 86.5,50.5 C 85.3192,52.0672 83.6526,52.9005 81.5,53C 83.3333,53.1667 85.1667,53.3333 87,53.5C 99.2291,52.2625 111.396,52.2625 123.5,53.5C 120.442,55.1321 117.109,56.2987 113.5,57C 94.1693,58.0511 74.836,59.0511 55.5,60C 55.8333,60.3333 56.1667,60.6667 56.5,61C 54.6547,62.128 52.6547,62.628 50.5,62.5C 53.406,59.0346 57.0727,56.5346 61.5,55C 69.6535,52.452 77.9868,50.952 86.5,50.5 Z"/></g>
<g><path style="opacity:1" fill="#cfcfcf" d="M 123.5,53.5 C 128.051,53.6273 132.718,53.794 137.5,54C 135.808,55.4007 135.141,57.2341 135.5,59.5C 124.654,59.1722 113.987,59.5056 103.5,60.5C 91.193,62.0183 78.693,63.0183 66,63.5C 62.2671,63.6127 61.7671,64.6127 64.5,66.5C 60.6224,66.2806 56.9558,65.2806 53.5,63.5C 53.2129,64.2003 52.8795,64.8669 52.5,65.5C 49.9236,65.7218 49.0902,67.0551 50,69.5C 52.5645,71.1793 55.3979,71.846 58.5,71.5C 56.7095,74.7496 57.7095,76.5829 61.5,77C 73.1667,77.6667 84.8333,77.6667 96.5,77C 97.745,76.2086 99.0783,75.7086 100.5,75.5C 103.764,74.6758 107.098,74.3424 110.5,74.5C 107.571,75.5377 104.571,76.7043 101.5,78C 100.619,78.7083 99.9528,79.5416 99.5,80.5C 91.8333,80.5 84.1667,80.5 76.5,80.5C 67.4938,80.3336 58.4938,80.5002 49.5,81C 48.944,81.3826 48.6107,81.8826 48.5,82.5C 47.8814,85.9775 47.8814,89.6441 48.5,93.5C 48.19,94.7383 47.69,94.7383 47,93.5C 46.6667,90.8333 46.3333,88.1667 46,85.5C 45.8195,88.6946 45.3195,91.6946 44.5,94.5C 44.8,89.9014 44.4667,85.4014 43.5,81C 45.5256,75.2551 47.3589,69.4218 49,63.5C 49.3826,62.944 49.8826,62.6107 50.5,62.5C 52.6547,62.628 54.6547,62.128 56.5,61C 56.1667,60.6667 55.8333,60.3333 55.5,60C 74.836,59.0511 94.1693,58.0511 113.5,57C 117.109,56.2987 120.442,55.1321 123.5,53.5 Z"/></g>
<g><path style="opacity:1" fill="#e1e1e1" d="M 103.5,60.5 C 111.903,60.1301 120.236,60.6301 128.5,62C 127.944,62.3826 127.611,62.8826 127.5,63.5C 122.819,63.6686 118.152,64.0019 113.5,64.5C 111.901,64.2322 110.568,64.5655 109.5,65.5C 108.167,65.5 106.833,65.5 105.5,65.5C 91.8495,66.312 78.1829,66.6453 64.5,66.5C 61.7671,64.6127 62.2671,63.6127 66,63.5C 78.693,63.0183 91.193,62.0183 103.5,60.5 Z"/></g>
<g><path style="opacity:1" fill="#a39593" d="M 143.5,62.5 C 144.812,63.1451 145.812,64.1451 146.5,65.5C 145.145,67.5212 143.479,69.1879 141.5,70.5C 141.5,68.5 141.5,66.5 141.5,64.5C 140.5,64.5 139.5,64.5 138.5,64.5C 134.566,65.3597 130.566,65.693 126.5,65.5C 131.566,64.3173 137.233,63.3173 143.5,62.5 Z"/></g>
<g><path style="opacity:1" fill="#515151" d="M 141.5,62.5 C 142.167,62.5 142.833,62.5 143.5,62.5C 137.233,63.3173 131.566,64.3173 126.5,65.5C 126.158,66.3382 125.492,66.6716 124.5,66.5C 120.833,65.8333 117.167,65.1667 113.5,64.5C 118.152,64.0019 122.819,63.6686 127.5,63.5C 132.103,62.6167 136.77,62.2834 141.5,62.5 Z"/></g>
<g><path style="opacity:1" fill="#9b9b9b" d="M 109.5,65.5 C 110.568,64.5655 111.901,64.2322 113.5,64.5C 117.167,65.1667 120.833,65.8333 124.5,66.5C 119.119,66.7298 113.786,67.3965 108.5,68.5C 107.5,68.3333 106.5,68.1667 105.5,68C 107.392,67.0266 109.392,66.3599 111.5,66C 110.906,65.5357 110.239,65.369 109.5,65.5 Z"/></g>
<g><path style="opacity:1" fill="#acacac" d="M 64.5,66.5 C 78.1829,66.6453 91.8495,66.312 105.5,65.5C 103.438,66.7763 101.104,67.6097 98.5,68C 100.455,68.9533 102.122,70.2866 103.5,72C 110.505,72.3334 117.505,72.1667 124.5,71.5C 120.042,72.9152 115.375,73.9152 110.5,74.5C 107.098,74.3424 103.764,74.6758 100.5,75.5C 100.611,74.8826 100.944,74.3826 101.5,74C 99.34,72.668 97.34,71.168 95.5,69.5C 90.3595,68.5119 85.0262,68.1786 79.5,68.5C 79.1667,68.5 78.8333,68.5 78.5,68.5C 74.0216,67.9529 69.3549,67.9529 64.5,68.5C 61.9228,68.4551 59.9228,69.4551 58.5,71.5C 59.0283,70.1526 59.195,68.8193 59,67.5C 56.7593,67.6606 54.5926,66.9939 52.5,65.5C 52.8795,64.8669 53.2129,64.2003 53.5,63.5C 56.9558,65.2806 60.6224,66.2806 64.5,66.5 Z"/></g>
<g><path style="opacity:1" fill="#c5c5c5" d="M 215.5,62.5 C 215.5,65.8333 215.5,69.1667 215.5,72.5C 214.883,72.6107 214.383,72.944 214,73.5C 213.261,71.7795 212.427,70.1128 211.5,68.5C 210.738,69.6283 210.071,70.7949 209.5,72C 199.066,72.7022 188.899,72.5356 179,71.5C 178.292,72.3805 177.458,73.0472 176.5,73.5C 176.657,72.1266 176.49,70.7932 176,69.5C 175.71,71.9519 175.044,74.2852 174,76.5C 172.855,77.6843 171.688,77.6843 170.5,76.5C 168.488,69.3263 163.821,66.493 156.5,68C 154.004,69.331 152.004,71.1644 150.5,73.5C 149.041,73.4326 147.708,73.7659 146.5,74.5C 150.36,64.068 157.36,61.068 167.5,65.5C 168.145,66.8118 169.145,67.8118 170.5,68.5C 171.833,67.1667 173.167,67.1667 174.5,68.5C 175.386,67.675 175.719,66.675 175.5,65.5C 176.93,65.4208 178.264,65.7542 179.5,66.5C 189.385,65.753 199.218,64.753 209,63.5C 209.333,63.8333 209.667,64.1667 210,64.5C 210.798,62.7412 210.631,61.0745 209.5,59.5C 207.232,60.5443 204.899,60.711 202.5,60C 201.273,58.4126 201.606,57.0793 203.5,56C 201.721,56.9791 200.055,56.6458 198.5,55C 201.833,54.3333 205.167,54.3333 208.5,55C 206.038,56.8504 206.538,58.017 210,58.5C 210.333,57.1667 210.667,55.8333 211,54.5C 211.333,56.8333 211.667,59.1667 212,61.5C 213.011,62.3366 214.178,62.67 215.5,62.5 Z"/></g>
<g><path style="opacity:1" fill="#6b6b6b" d="M 78.5,68.5 C 78.1667,75.1667 77.8333,75.1667 77.5,68.5C 76.5,68.5 75.5,68.5 74.5,68.5C 75.3617,70.0952 75.8617,71.7619 76,73.5C 74.9916,73.0183 73.825,72.8516 72.5,73C 73.3366,71.9887 73.67,70.8221 73.5,69.5C 70.2869,69.81 67.2869,69.4767 64.5,68.5C 69.3549,67.9529 74.0216,67.9529 78.5,68.5 Z"/></g>
<g><path style="opacity:1" fill="#936059" d="M 138.5,64.5 C 139.5,64.5 140.5,64.5 141.5,64.5C 141.5,66.5 141.5,68.5 141.5,70.5C 141.167,70.5 140.833,70.5 140.5,70.5C 139.602,69.8423 138.602,69.1757 137.5,68.5C 138.246,67.2638 138.579,65.9305 138.5,64.5 Z"/></g>
<g><path style="opacity:1" fill="#1f1f1f" d="M 52.5,65.5 C 54.5926,66.9939 56.7593,67.6606 59,67.5C 59.195,68.8193 59.0283,70.1526 58.5,71.5C 55.3979,71.846 52.5645,71.1793 50,69.5C 49.0902,67.0551 49.9236,65.7218 52.5,65.5 Z"/></g>
<g><path style="opacity:1" fill="#4b4b4b" d="M 79.5,68.5 C 85.0262,68.1786 90.3595,68.5119 95.5,69.5C 94.8501,69.8039 94.1835,70.1373 93.5,70.5C 88.7006,69.8825 84.034,69.2159 79.5,68.5 Z"/></g>
<g><path style="opacity:1" fill="#1a1919" d="M 138.5,64.5 C 138.579,65.9305 138.246,67.2638 137.5,68.5C 138.602,69.1757 139.602,69.8423 140.5,70.5C 134.974,70.1786 129.64,70.5119 124.5,71.5C 117.505,72.1667 110.505,72.3334 103.5,72C 102.122,70.2866 100.455,68.9533 98.5,68C 101.104,67.6097 103.438,66.7763 105.5,65.5C 106.833,65.5 108.167,65.5 109.5,65.5C 110.239,65.369 110.906,65.5357 111.5,66C 109.392,66.3599 107.392,67.0266 105.5,68C 106.5,68.1667 107.5,68.3333 108.5,68.5C 113.786,67.3965 119.119,66.7298 124.5,66.5C 125.492,66.6716 126.158,66.3382 126.5,65.5C 130.566,65.693 134.566,65.3597 138.5,64.5 Z"/></g>
<g><path style="opacity:1" fill="#b8b8b8" d="M 215.5,72.5 C 215.5,76.5 215.5,80.5 215.5,84.5C 202.525,86.9404 189.525,89.2737 176.5,91.5C 176.5,85.5 176.5,79.5 176.5,73.5C 177.458,73.0472 178.292,72.3805 179,71.5C 188.899,72.5356 199.066,72.7022 209.5,72C 210.071,70.7949 210.738,69.6283 211.5,68.5C 212.427,70.1128 213.261,71.7795 214,73.5C 214.383,72.944 214.883,72.6107 215.5,72.5 Z"/></g>
<g><path style="opacity:1" fill="#1a1a1a" d="M 64.5,68.5 C 67.2869,69.4767 70.2869,69.81 73.5,69.5C 73.67,70.8221 73.3366,71.9887 72.5,73C 73.825,72.8516 74.9916,73.0183 76,73.5C 75.8617,71.7619 75.3617,70.0952 74.5,68.5C 75.5,68.5 76.5,68.5 77.5,68.5C 77.8333,75.1667 78.1667,75.1667 78.5,68.5C 78.8333,68.5 79.1667,68.5 79.5,68.5C 84.034,69.2159 88.7006,69.8825 93.5,70.5C 94.1835,70.1373 94.8501,69.8039 95.5,69.5C 97.34,71.168 99.34,72.668 101.5,74C 100.944,74.3826 100.611,74.8826 100.5,75.5C 99.0783,75.7086 97.745,76.2086 96.5,77C 84.8333,77.6667 73.1667,77.6667 61.5,77C 57.7095,76.5829 56.7095,74.7496 58.5,71.5C 59.9228,69.4551 61.9228,68.4551 64.5,68.5 Z"/></g>
<g><path style="opacity:1" fill="#e4e4e4" d="M 167.5,65.5 C 157.36,61.068 150.36,64.068 146.5,74.5C 142.698,76.7135 138.698,78.7135 134.5,80.5C 133.833,80.1667 133.167,79.8333 132.5,79.5C 131.41,80.727 130.076,81.5604 128.5,82C 122.421,83.2882 116.421,84.4549 110.5,85.5C 107.503,82.5035 103.836,80.8369 99.5,80.5C 99.9528,79.5416 100.619,78.7083 101.5,78C 104.571,76.7043 107.571,75.5377 110.5,74.5C 115.375,73.9152 120.042,72.9152 124.5,71.5C 129.64,70.5119 134.974,70.1786 140.5,70.5C 140.833,70.5 141.167,70.5 141.5,70.5C 143.479,69.1879 145.145,67.5212 146.5,65.5C 145.812,64.1451 144.812,63.1451 143.5,62.5C 142.833,62.5 142.167,62.5 141.5,62.5C 140.602,61.8423 139.602,61.1757 138.5,60.5C 142.027,59.0787 145.694,58.4121 149.5,58.5C 157.481,55.8424 165.481,55.8424 173.5,58.5C 174.485,60.0983 174.651,61.765 174,63.5C 173.667,62.8333 173.333,62.1667 173,61.5C 172.424,64.1242 171.09,64.7908 169,63.5C 168.722,64.4158 168.222,65.0825 167.5,65.5 Z"/></g>
<g><path style="opacity:1" fill="#404040" d="M 76.5,80.5 C 76.5,80.8333 76.5,81.1667 76.5,81.5C 67.1136,81.2201 57.7803,81.5534 48.5,82.5C 48.6107,81.8826 48.944,81.3826 49.5,81C 58.4938,80.5002 67.4938,80.3336 76.5,80.5 Z"/></g>
<g><path style="opacity:1" fill="#353535" d="M 166.5,81.5 C 165.778,81.0825 165.278,80.4158 165,79.5C 164.546,81.5364 163.713,83.3697 162.5,85C 162.667,85.5 162.833,86 163,86.5C 164.032,84.9733 165.199,83.64 166.5,82.5C 167.5,82.5 168.5,82.5 169.5,82.5C 169.334,87.8437 169.501,93.1771 170,98.5C 170.383,97.944 170.883,97.6107 171.5,97.5C 171.5,98.8333 172.167,99.5 173.5,99.5C 173.167,100.167 172.833,100.833 172.5,101.5C 169.833,104.167 167.167,106.833 164.5,109.5C 164.062,109.565 163.728,109.399 163.5,109C 165.65,107.808 166.317,106.308 165.5,104.5C 166.167,101.5 166.833,98.5 167.5,95.5C 167.649,94.448 167.483,93.448 167,92.5C 166.667,92.8333 166.333,93.1667 166,93.5C 164.915,92.7069 163.748,92.0402 162.5,91.5C 161.537,91.9698 161.537,92.6365 162.5,93.5C 160.658,95.0516 158.991,96.7182 157.5,98.5C 156.383,100.761 155.05,102.928 153.5,105C 154.823,105.816 155.489,106.983 155.5,108.5C 154.504,108.586 153.671,108.252 153,107.5C 150.885,103.031 149.218,98.3639 148,93.5C 146.146,85.0669 148.312,77.9002 154.5,72C 163.209,69.5584 167.209,72.725 166.5,81.5 Z"/></g>
<g><path style="opacity:1" fill="#727272" d="M 76.5,81.5 C 76.5,81.1667 76.5,80.8333 76.5,80.5C 84.1667,80.5 91.8333,80.5 99.5,80.5C 103.836,80.8369 107.503,82.5035 110.5,85.5C 109.833,85.5 109.167,85.5 108.5,85.5C 106.364,84.5974 104.364,83.4307 102.5,82C 93.8397,81.5002 85.1731,81.3336 76.5,81.5 Z"/></g>
<g><path style="opacity:1" fill="#bebebe" d="M 150.5,73.5 C 145.965,80.4414 143.632,88.1081 143.5,96.5C 142.466,100.315 140.133,101.315 136.5,99.5C 134.898,97.9261 132.898,97.2594 130.5,97.5C 131.209,93.4732 131.709,89.4732 132,85.5C 128.293,88.2495 126.793,91.9162 127.5,96.5C 121.167,96.5 114.833,96.5 108.5,96.5C 109.326,92.8641 109.992,89.1974 110.5,85.5C 116.421,84.4549 122.421,83.2882 128.5,82C 130.076,81.5604 131.41,80.727 132.5,79.5C 133.167,79.8333 133.833,80.1667 134.5,80.5C 138.698,78.7135 142.698,76.7135 146.5,74.5C 147.708,73.7659 149.041,73.4326 150.5,73.5 Z"/></g>
<g><path style="opacity:1" fill="#121212" d="M 76.5,81.5 C 85.1731,81.3336 93.8397,81.5002 102.5,82C 104.364,83.4307 106.364,84.5974 108.5,85.5C 108.202,89.8013 107.035,93.8013 105,97.5C 104.5,97 104,96.5 103.5,96C 97.1754,95.5005 90.8421,95.3338 84.5,95.5C 80.1667,95.5 75.8333,95.5 71.5,95.5C 63.9329,94.8036 56.2662,94.1369 48.5,93.5C 47.8814,89.6441 47.8814,85.9775 48.5,82.5C 57.7803,81.5534 67.1136,81.2201 76.5,81.5 Z"/></g>
<g><path style="opacity:1" fill="#1a1a1a" d="M 170.5,76.5 C 172.755,83.392 173.088,90.392 171.5,97.5C 170.883,97.6107 170.383,97.944 170,98.5C 169.501,93.1771 169.334,87.8437 169.5,82.5C 168.5,82.5 167.5,82.5 166.5,82.5C 166.5,82.1667 166.5,81.8333 166.5,81.5C 167.209,72.725 163.209,69.5584 154.5,72C 148.312,77.9002 146.146,85.0669 148,93.5C 149.218,98.3639 150.885,103.031 153,107.5C 153.671,108.252 154.504,108.586 155.5,108.5C 159.416,109.039 162.416,107.706 164.5,104.5C 164.833,104.5 165.167,104.5 165.5,104.5C 166.317,106.308 165.65,107.808 163.5,109C 163.728,109.399 164.062,109.565 164.5,109.5C 162.388,111.771 159.721,113.104 156.5,113.5C 153.896,111.724 151.73,109.391 150,106.5C 148.529,102.091 147.029,97.7574 145.5,93.5C 146.506,92.6043 146.506,91.9377 145.5,91.5C 144.83,93.2914 144.163,94.9581 143.5,96.5C 143.632,88.1081 145.965,80.4414 150.5,73.5C 152.004,71.1644 154.004,69.331 156.5,68C 163.821,66.493 168.488,69.3263 170.5,76.5 Z"/></g>
<g><path style="opacity:1" fill="#a0a0a0" d="M 152.5,79.5 C 153.905,81.6402 154.738,83.9735 155,86.5C 153.702,85.4404 152.535,84.2737 151.5,83C 151.989,81.8615 152.322,80.6948 152.5,79.5 Z"/></g>
<g><path style="opacity:1" fill="#b8b8b8" d="M 166.5,81.5 C 166.5,81.8333 166.5,82.1667 166.5,82.5C 165.199,83.64 164.032,84.9733 163,86.5C 162.833,86 162.667,85.5 162.5,85C 163.713,83.3697 164.546,81.5364 165,79.5C 165.278,80.4158 165.778,81.0825 166.5,81.5 Z"/></g>
<g><path style="opacity:1" fill="#cbcccb" d="M 157.5,75.5 C 158.552,75.3505 159.552,75.5172 160.5,76C 159.726,78.405 159.226,80.905 159,83.5C 158.605,80.7934 158.105,78.1267 157.5,75.5 Z"/></g>
<g><path style="opacity:1" fill="#a6a6a6" d="M 176.5,73.5 C 176.5,79.5 176.5,85.5 176.5,91.5C 189.525,89.2737 202.525,86.9404 215.5,84.5C 215.5,87.5 215.5,90.5 215.5,93.5C 201.808,94.5398 188.142,95.8731 174.5,97.5C 174.137,98.1835 173.804,98.8501 173.5,99.5C 172.167,99.5 171.5,98.8333 171.5,97.5C 173.088,90.392 172.755,83.392 170.5,76.5C 171.688,77.6843 172.855,77.6843 174,76.5C 175.044,74.2852 175.71,71.9519 176,69.5C 176.49,70.7932 176.657,72.1266 176.5,73.5 Z"/></g>
<g><path style="opacity:1" fill="#bdbdbd" d="M 154.5,91.5 C 155.653,92.3132 155.653,93.3132 154.5,94.5C 153.24,95.3816 152.074,96.3816 151,97.5C 150.51,96.2068 150.343,94.8734 150.5,93.5C 152.38,93.7709 153.713,93.1042 154.5,91.5 Z"/></g>
<g><path style="opacity:1" fill="#b2b2b2" d="M 167.5,95.5 C 166.833,95.5 166.167,95.5 165.5,95.5C 164.5,94.8333 163.5,94.1667 162.5,93.5C 161.537,92.6365 161.537,91.9698 162.5,91.5C 163.748,92.0402 164.915,92.7069 166,93.5C 166.333,93.1667 166.667,92.8333 167,92.5C 167.483,93.448 167.649,94.448 167.5,95.5 Z"/></g>
<g><path style="opacity:0.985" fill="#d7d7d7" d="M 215.5,93.5 C 215.5,94.8333 215.5,96.1667 215.5,97.5C 201.182,98.8801 186.849,100.213 172.5,101.5C 172.833,100.833 173.167,100.167 173.5,99.5C 173.804,98.8501 174.137,98.1835 174.5,97.5C 188.142,95.8731 201.808,94.5398 215.5,93.5 Z"/></g>
<g><path style="opacity:0.966" fill="#343434" d="M 48.5,93.5 C 56.2662,94.1369 63.9329,94.8036 71.5,95.5C 46.6045,95.6074 46.6045,96.6074 71.5,98.5C 66.498,98.667 61.6647,98.667 57,98.5C 55.9701,98.8361 55.4701,99.5028 55.5,100.5C 51.8099,99.4925 48.1432,98.3258 44.5,97C 43.2264,96.0228 43.2264,95.1894 44.5,94.5C 45.3195,91.6946 45.8195,88.6946 46,85.5C 46.3333,88.1667 46.6667,90.8333 47,93.5C 47.69,94.7383 48.19,94.7383 48.5,93.5 Z"/></g>
<g><path style="opacity:1" fill="#b0b0b0" d="M 71.5,95.5 C 75.8333,95.5 80.1667,95.5 84.5,95.5C 90.427,96.0868 96.427,96.9201 102.5,98C 98.1794,98.499 93.8461,98.6657 89.5,98.5C 83.5,98.5 77.5,98.5 71.5,98.5C 46.6045,96.6074 46.6045,95.6074 71.5,95.5 Z"/></g>
<g><path style="opacity:1" fill="#212121" d="M 108.5,85.5 C 109.167,85.5 109.833,85.5 110.5,85.5C 109.992,89.1974 109.326,92.8641 108.5,96.5C 114.833,96.5 121.167,96.5 127.5,96.5C 126.793,91.9162 128.293,88.2495 132,85.5C 131.709,89.4732 131.209,93.4732 130.5,97.5C 132.898,97.2594 134.898,97.9261 136.5,99.5C 135.211,100.501 133.878,100.334 132.5,99C 117.991,98.836 103.658,98.6693 89.5,98.5C 93.8461,98.6657 98.1794,98.499 102.5,98C 96.427,96.9201 90.427,96.0868 84.5,95.5C 90.8421,95.3338 97.1754,95.5005 103.5,96C 104,96.5 104.5,97 105,97.5C 107.035,93.8013 108.202,89.8013 108.5,85.5 Z"/></g>
<g><path style="opacity:0.973" fill="#0e0e0e" d="M 156.5,113.5 C 146.735,115.866 139.901,112.533 136,103.5C 132.334,105.849 128.5,106.015 124.5,104C 113.152,103.744 101.818,103.244 90.5,102.5C 86.8771,103.597 83.8771,105.763 81.5,109C 75.9198,110.517 70.2531,110.851 64.5,110C 59.9213,108.256 56.9213,105.09 55.5,100.5C 55.4701,99.5028 55.9701,98.8361 57,98.5C 61.6647,98.667 66.498,98.667 71.5,98.5C 77.5,98.5 83.5,98.5 89.5,98.5C 103.658,98.6693 117.991,98.836 132.5,99C 133.878,100.334 135.211,100.501 136.5,99.5C 140.133,101.315 142.466,100.315 143.5,96.5C 144.163,94.9581 144.83,93.2914 145.5,91.5C 146.506,91.9377 146.506,92.6043 145.5,93.5C 147.029,97.7574 148.529,102.091 150,106.5C 151.73,109.391 153.896,111.724 156.5,113.5 Z"/></g>
<g><path style="opacity:1" fill="#212121" d="M 162.5,93.5 C 163.5,94.1667 164.5,94.8333 165.5,95.5C 163.833,96.5 162.5,97.8333 161.5,99.5C 160.902,101.136 160.568,103.469 160.5,106.5C 159.264,107.246 157.93,107.579 156.5,107.5C 156.704,104.482 157.037,101.482 157.5,98.5C 158.991,96.7182 160.658,95.0516 162.5,93.5 Z"/></g>
<g><path style="opacity:1" fill="#595959" d="M 165.5,95.5 C 166.167,95.5 166.833,95.5 167.5,95.5C 166.833,98.5 166.167,101.5 165.5,104.5C 165.167,104.5 164.833,104.5 164.5,104.5C 163.047,103.151 162.047,101.485 161.5,99.5C 162.5,97.8333 163.833,96.5 165.5,95.5 Z"/></g>
<g><path style="opacity:1" fill="#929292" d="M 157.5,98.5 C 157.037,101.482 156.704,104.482 156.5,107.5C 157.93,107.579 159.264,107.246 160.5,106.5C 160.568,103.469 160.902,101.136 161.5,99.5C 162.047,101.485 163.047,103.151 164.5,104.5C 162.416,107.706 159.416,109.039 155.5,108.5C 155.489,106.983 154.823,105.816 153.5,105C 155.05,102.928 156.383,100.761 157.5,98.5 Z"/></g>
</svg>
