<svg width="51" height="43" viewBox="0 0 51 43" fill="none" xmlns="http://www.w3.org/2000/svg">
<path d="M48.0955 36.9222L47.3179 32.5508L47.3764 10.6587L45.9293 0.121624L44.5184 10.6587L44.4599 32.5508L43.6589 36.9222H42.0685L41.4949 36.3848L41.0044 33.5887L41.0523 15.5679L39.8683 6.88673L38.7095 15.5539L38.6738 27.7632L26.7403 23.4773L26.31 19.8638L25.4253 20.9993L25.2458 18.264H25.1382L24.947 20.9748L24.0741 19.8392L23.6198 23.4534L11.5664 27.7024L11.6026 15.4563L10.4788 6.77564L9.2475 15.4446L9.19953 33.4659L8.67333 36.3597L8.18275 36.7994H6.49302L5.71594 32.4281L5.77443 10.5365L4.41091 0L2.92813 10.5365L2.86968 32.4281L2.06865 36.7994L0.0117052 36.7871L0 42.0004L50.1016 42.1588L50.1133 36.9455L48.0955 36.9222ZM4.76175 33.1736H3.88878L3.94727 11.3674H4.8202L4.76175 33.1736ZM10.7642 30.6096L10.2964 31.2569L10.3321 16.1293H10.7998L10.7642 30.6096ZM11.7207 34.3582L23.1637 24.3596L11.864 35.1651L11.7207 34.3582ZM13.0117 36.814L13.4304 36.4842V36.8263L13.0117 36.814ZM15.2961 36.8263V34.9827L17.018 33.591L17.0063 36.8514L15.2961 36.8263ZM18.8709 36.8385L18.8826 32.0767L20.6045 30.685L20.5922 36.8631L18.8709 36.8385ZM22.4463 36.8508L22.4703 29.1706L24.1922 27.7784L24.1682 36.8625L22.4463 36.8508ZM26.0334 36.8508L26.0574 27.6936L27.767 29.097L27.743 36.8502L26.0334 36.8508ZM29.6088 36.8631L29.6205 30.6237L31.3301 32.0269L31.3184 36.8619L29.6088 36.8631ZM33.1841 36.8754L33.1958 33.5542L34.9055 34.9575L34.8938 36.8742L33.1841 36.8754ZM36.7712 36.8876V36.4848L37.2612 36.8876H36.7712ZM38.3616 35.1785L27.1694 24.3731L38.5054 34.3816L38.3616 35.1785ZM39.8561 31.2715L39.4731 30.4044L39.5093 16.2292H39.8917L39.8561 31.2715ZM46.3251 33.2981H45.4521L45.5106 11.4919H46.3835L46.3251 33.2981Z" fill="#BDBDBD"/>
</svg>
