<svg width="61" height="41" viewBox="0 0 61 41" fill="none" xmlns="http://www.w3.org/2000/svg">
<path d="M56.0938 12.9336L44.5032 12.9218V15.5421L15.6592 15.519L15.6795 12.8868L4.41716 12.875L0 40.1965L23.2968 40.2196C23.2968 40.2196 23.0807 28.2824 30.4204 22.6341C30.4204 22.6341 36.4487 25.2543 37.2453 40.2314L60.7751 40.2545L56.0938 12.9336Z" fill="#BDBDBD"/>
<path d="M16.3737 15.0915L24.1616 15.1033V11.0158H27.176L27.209 15.1033H28.669V11.0158H32.1063V15.1033H33.4761V11.0969H36.5901V15.1033L43.6724 15.1152V12.576L50.4138 12.5878C50.2973 11.2016 46.6811 -0.391686 29.6572 0.0102057C12.3878 0.418016 10.3311 11.8196 10.3311 11.8196L10.2324 12.5612L16.3762 12.5541L16.3737 15.0915Z" fill="#BDBDBD"/>
</svg>
