<svg width="118" height="41" viewBox="0 0 118 41" fill="none" xmlns="http://www.w3.org/2000/svg">
<path d="M100.168 22.2348C100.168 20.85 99.54 19.4987 98.3699 18.3648C97.1997 17.2309 95.544 16.3693 93.6279 15.8971C93.6269 15.8967 93.626 15.8962 93.6252 15.8956C92.325 15.4326 91.7349 14.622 91.0768 14.2078C91.0794 14.1884 91.0794 14.1689 91.0768 14.1496L90.9382 13.2356C91.3807 13.1697 91.6826 13.0428 91.6826 12.8977C91.6826 12.7416 91.3328 12.6065 90.8334 12.5457L90.3019 9.04713C90.2727 8.85408 90.225 8.85408 90.1953 9.04713L89.6637 12.5459C89.1643 12.6066 88.8145 12.7416 88.8145 12.8978C88.8145 13.0427 89.116 13.1699 89.5584 13.2358L89.4199 14.1497C89.4172 14.1691 89.4172 14.1886 89.4199 14.208C88.7617 14.6224 88.1717 15.4328 86.8721 15.8958C86.8707 15.8963 86.8706 15.897 86.8691 15.8973C84.9529 16.3694 83.2971 17.231 82.127 18.3649C80.9568 19.4988 80.3291 20.8501 80.3291 22.235C80.3291 22.2963 80.3339 22.3576 80.3362 22.4189H80.3291V25.3496H100.168V22.4189H100.161C100.163 22.3575 100.168 22.2961 100.168 22.2348Z" fill="#BDBDBD"/>
<path d="M30.9315 15.8971C30.9304 15.8967 30.9294 15.8962 30.9285 15.8956C29.6286 15.4326 29.0384 14.622 28.3804 14.2078C28.3829 14.1884 28.3829 14.1689 28.3804 14.1496L28.2414 13.2356C28.6843 13.1697 28.9862 13.0428 28.9862 12.8977C28.9862 12.7416 28.6358 12.6065 28.1367 12.5457L27.6053 9.04713C27.5759 8.85408 27.5282 8.85408 27.4987 9.04713L26.9669 12.5459C26.4681 12.6066 26.1178 12.7416 26.1178 12.8978C26.1178 13.0427 26.4195 13.1699 26.8622 13.2358L26.7234 14.1497C26.7208 14.1691 26.7208 14.1886 26.7234 14.208C26.0653 14.6224 25.4751 15.4328 24.1757 15.8958C24.1744 15.8963 24.174 15.897 24.1723 15.8973C22.2562 16.3695 20.6006 17.2311 19.4306 18.365C18.2605 19.4989 17.6328 20.8502 17.6328 22.235C17.6328 22.2963 17.6375 22.3576 17.6394 22.4189H17.6328V25.3496H37.4713V22.4189H37.4643C37.4666 22.3579 37.4713 22.2963 37.4713 22.235C37.4713 20.8501 36.8436 19.4988 35.6735 18.3649C34.5034 17.2309 32.8477 16.3693 30.9315 15.8971Z" fill="#BDBDBD"/>
<path d="M116.949 19.3929H116.483V17.3055H117.537V17.3043H117.541V16.6669H116.556V15.7444H116.554C116.554 15.7256 116.556 15.7077 116.556 15.6891C116.558 15.2734 116.373 14.8671 116.025 14.525C115.677 14.183 115.184 13.9216 114.61 13.7762C114.61 13.7762 114.61 13.7762 114.61 13.7758C114.075 13.5822 113.944 13.1875 113.605 13.1875C113.265 13.1875 113.135 13.5822 112.6 13.7758C112.6 13.7762 112.6 13.7762 112.599 13.7762C112.026 13.9217 111.532 14.183 111.184 14.5251C110.836 14.8671 110.651 15.2734 110.654 15.6891C110.654 15.7077 110.656 15.7256 110.656 15.7444H110.654V16.6669H109.669V17.3043H110.727V19.3929H109.393V20.0767L110.261 20.6841V40.3486H113.601V40.3499H116.945V40.3486H116.949V20.684L117.817 20.0766V19.3928L116.949 19.3929ZM114.052 17.3055H115.587V19.3929H114.052V17.3055ZM111.62 17.3043H113.159V19.3929H111.62V17.3043Z" fill="#BDBDBD"/>
<path d="M7.55645 20.6842L8.42468 20.0767V19.3929H7.09063V17.3055H8.14506V17.3043H8.14916V16.6669H7.16404V15.7444H7.16207C7.16297 15.7256 7.16404 15.7077 7.16404 15.6892C7.16655 15.2734 6.98136 14.867 6.63343 14.525C6.28551 14.1829 5.79158 13.9216 5.21825 13.7762C5.21776 13.7762 5.21776 13.7762 5.21735 13.7758C4.68288 13.5822 4.55205 13.1875 4.21287 13.1875C3.8737 13.1875 3.74263 13.5822 3.20807 13.7758C3.20807 13.7762 3.20807 13.7762 3.20717 13.7762C2.6339 13.9216 2.14005 14.183 1.79215 14.5251C1.44425 14.8671 1.25904 15.2734 1.26146 15.6892C1.26146 15.7077 1.26318 15.7256 1.26343 15.7444H1.26146V16.6669H0.276013V17.3043H1.33413V19.3929H0V20.0767L0.868231 20.6842V40.3487H4.20811V40.3499H7.55194V40.3487H7.55612V20.6842H7.55645ZM4.65901 17.3056H6.19377V19.393H4.65901V17.3056ZM2.2273 17.3044H3.76641V19.393H2.22713L2.2273 17.3044Z" fill="#BDBDBD"/>
<path d="M37.4714 25.6953H8.32227V40.3416H10.0674V35.8066C10.0674 35.2006 12.8196 34.7093 12.8196 34.7093C12.8196 34.7093 15.5717 35.2006 15.5717 35.8066V40.3416H16.5605V35.8066C16.5605 35.2006 19.3126 34.7093 19.3126 34.7093C19.3126 34.7093 22.0647 35.2006 22.0647 35.8066V40.3416H23.0536V35.8066C23.0536 35.2006 25.8055 34.7093 25.8055 34.7093C25.8055 34.7093 28.5574 35.2006 28.5574 35.8066V40.3416H29.546V35.8066C29.546 35.2006 32.2981 34.7093 32.2981 34.7093C32.2981 34.7093 35.0501 35.2006 35.0501 35.8066V40.3416H36.039V35.8066C36.039 35.2006 38.7911 34.7093 38.7911 34.7093C38.7911 34.7093 41.543 35.2006 41.543 35.8066V40.3416H44.5382V25.6953H37.4714Z" fill="#BDBDBD"/>
<path d="M100.166 25.6953H73.3164V40.3416H76.3031V35.8066C76.3031 35.2006 79.0556 34.7093 79.0556 34.7093C79.0556 34.7093 81.8075 35.2006 81.8075 35.8066V40.3416H82.7963V35.8066C82.7963 35.2006 85.5483 34.7093 85.5483 34.7093C85.5483 34.7093 88.3005 35.2006 88.3005 35.8066V40.3416H89.2894V35.8066C89.2894 35.2006 92.0414 34.7093 92.0414 34.7093C92.0414 34.7093 94.7928 35.2006 94.7928 35.8066V40.3416H95.7819V35.8066C95.7819 35.2006 98.5339 34.7093 98.5339 34.7093C98.5339 34.7093 101.286 35.2006 101.286 35.8066V40.3416H102.275V35.8066C102.275 35.2006 105.027 34.7093 105.027 34.7093C105.027 34.7093 107.779 35.2006 107.779 35.8066V40.3416H109.496V25.6953H100.166Z" fill="#BDBDBD"/>
<path d="M47.6805 13.7745H47.313C47.3014 13.7971 47.2897 13.8197 47.2783 13.8424V14.4148H47.7852V14.7826L47.5697 14.9331V17.8843H70.2854V14.9335L70.0696 14.7826V14.4148H70.5766V13.8424C70.565 13.8198 70.5533 13.7971 70.5415 13.7744H70.1742V13.3787H70.3219C69.6695 12.2977 68.692 11.3211 67.4518 10.5117C66.2116 9.70224 64.7362 9.07779 63.1201 8.67834C63.1185 8.67807 63.117 8.67756 63.1157 8.67684C61.5029 8.1021 60.7711 7.0935 59.9545 6.57956C59.9575 6.55661 59.9575 6.53352 59.9545 6.51057L59.7823 5.37675C60.3313 5.29488 60.7052 5.13739 60.7052 4.95705C60.7052 4.76305 60.2712 4.5957 59.6522 4.5204L58.9927 0.17906C58.9564 -0.0596865 58.8973 -0.0596865 58.8605 0.17906L58.2007 4.5204C57.5816 4.59547 57.1472 4.763 57.1472 4.95677C57.1472 5.13711 57.5217 5.2946 58.0707 5.37647L57.8985 6.51029C57.8955 6.53332 57.8955 6.55648 57.8985 6.5795C57.082 7.09356 56.3499 8.10193 54.7374 8.67656C54.7363 8.67728 54.7349 8.67779 54.7335 8.67806C53.1174 9.07751 51.642 9.70196 50.4018 10.5114C49.1616 11.3208 48.184 12.2974 47.5317 13.3785H47.6805V13.7745Z" fill="#BDBDBD"/>
<path d="M47.5674 18.2305V40.3464H50.9822V27.5832C50.9822 25.8775 58.9252 24.495 58.9252 24.495C58.9252 24.495 66.8681 25.8775 66.8681 27.5832V40.3466H70.2831V18.2305H47.5674Z" fill="#BDBDBD"/>
<path d="M73.0427 13.6188H73.4446V13.5297H73.0698V13.0813C73.0704 12.9413 73.009 12.8044 72.8936 12.6884C72.7783 12.5724 72.6143 12.4826 72.423 12.4306H72.4154L72.3898 12.4216C72.2903 12.3825 72.2047 12.329 72.1388 12.265C72.1172 12.243 72.0907 12.2234 72.0601 12.207C72.0311 12.224 72.0054 12.2435 71.9837 12.2649C71.9177 12.3289 71.8321 12.3824 71.7327 12.4216L71.6994 12.4306C71.5081 12.4826 71.3441 12.5724 71.2288 12.6884C71.1134 12.8044 71.0521 12.9413 71.0526 13.0813V13.1023V13.5297H70.6775V13.6188H71.0801V14.5657H70.5732V14.718L70.7887 14.8688V40.2649H73.3337V14.8686L73.5495 14.7182V14.5658H73.0427V13.6188ZM72.1183 13.6188H72.9285V14.5657H72.1183V13.6188ZM71.1944 13.6188H72.0046V14.5657H71.1944V13.6188Z" fill="#BDBDBD"/>
<path d="M44.5198 40.265H47.0645V14.8685L47.2801 14.718V14.5657H46.7733V13.6188H47.1752V13.5297H46.8006V13.0813C46.8011 12.9412 46.7397 12.8043 46.6243 12.6883C46.509 12.5723 46.3449 12.4825 46.1535 12.4306H46.1461L46.1206 12.4217C46.0211 12.3825 45.9355 12.3291 45.8696 12.265C45.8479 12.2431 45.8213 12.2235 45.7908 12.207C45.7618 12.2241 45.736 12.2435 45.7141 12.2649C45.6484 12.329 45.5628 12.3825 45.4633 12.4217C45.2642 12.4711 45.0922 12.5608 44.9706 12.6788C44.849 12.7968 44.7836 12.9372 44.7832 13.0813V13.5297H44.4086V13.6188H44.8105V14.5657H44.3037V14.718L44.5194 14.8685L44.5198 40.265ZM45.8492 13.6187H46.6597V14.5656H45.8492V13.6187ZM44.9251 13.6187H45.7357V14.5656H44.9255L44.9251 13.6187Z" fill="#BDBDBD"/>
</svg>
