<svg width="72" height="48" viewBox="0 0 72 48" fill="none" xmlns="http://www.w3.org/2000/svg">
<path d="M51.0306 46.1529V48H72L71.5477 41.528H69.2726L66.5283 8.7212H65.6085V9.64475H64.6939V8.7212H62.4201V9.64475H61.5012V8.7212H58.7569V9.64475H57.8421V8.7212H55.5663V9.64475H54.6474V8.7212H53.7292V13.8093H52.3577V15.1932H50.9876V13.8093H47.7936V15.1932H46.4215V13.8093H43.2275V15.1932H41.8574V13.8093H38.6633V15.1932H37.2926V13.8093L36.4609 13.7944V5.52003H41.7385V0.907936H36.4609V0H35.5715V13.7922L34.7108 13.8071V15.1911H33.3401V13.8071H30.1461V15.1911H28.7753V13.8071H25.5807V15.1911H24.2107V13.8071H21.0166V15.1911H19.6466V13.8071H18.2758V8.71908H17.356V9.64262H16.4414V8.71908H14.1656V9.64262H13.2453V8.71908H10.5009V9.64262H9.58191V8.71908H7.30768V9.64262H6.38857V8.71908H5.47032L2.72606 41.5259H0.451651L0 47.9979H20.9737V46.1508H20.0589L19.14 25.8119C20.6759 24.8699 22.3804 24.2423 24.1564 23.9649C27.4974 23.3106 35.7207 23.0278 35.9979 23.0129C36.29 23.0278 44.5004 23.3106 47.84 23.9649C49.616 24.2424 51.3206 24.87 52.8566 25.8119L51.9354 46.1529H51.0306ZM60.6005 19.7882H59.7104V17.4822H60.6005V19.7882ZM63.7797 11.9473H64.7128V13.3312H63.7797V11.9473ZM63.2977 23.4924H62.3935V21.6623H63.2977V23.4924ZM61.504 11.9473H62.8756V13.3312H61.504V11.9473ZM59.2297 11.9473H60.6005V13.3312H59.2297V11.9473ZM59.7111 37.3742V42.9098H56.4741V37.3749L59.7111 37.3742ZM56.4741 23.4924V21.1864H57.8744V23.4924H56.4741ZM57.4071 11.9473H58.3403V13.3312H57.4071V11.9473ZM55.57 11.9473H56.4741V13.3312H55.57V11.9473ZM53.7762 15.6521H54.2133V17.0361H53.7762V15.6521ZM13.6717 11.9473H14.6054V13.3312H13.6717V11.9473ZM15.5384 21.1871V23.4931H14.1381V21.1871H15.5384ZM11.4114 11.9473H12.7821V13.3312H11.4114V11.9473ZM8.23229 13.3312H7.2984V11.9473H8.23229V13.3312ZM9.61782 23.4903H8.71349V21.6602H9.61782V23.4903ZM10.5072 13.3312H9.13576V11.9473H10.5072V13.3312ZM11.4122 17.4822H12.3009V19.7882H11.4122V17.4822ZM15.5393 42.9091H12.3023V37.3742H15.5393V42.9091ZM16.4434 13.3312H15.5393V11.9473H16.4434V13.3312ZM18.2365 17.0361H17.7987V15.6521H18.2365V17.0361ZM20.0743 15.6521H20.5409V17.0361H20.0743V15.6521ZM21.6226 21.6631C21.2058 21.6549 20.8087 21.482 20.5169 21.1815C20.2251 20.881 20.0617 20.4769 20.0618 20.0561C20.0637 19.6267 20.2332 19.2155 20.5337 18.9118C20.8343 18.6081 21.2416 18.4364 21.6669 18.4342C22.0835 18.451 22.4771 18.6315 22.7638 18.9371C23.0506 19.2426 23.2078 19.6491 23.2021 20.07C23.1963 20.4909 23.0279 20.8929 22.7329 21.1904C22.4378 21.4878 22.0395 21.6571 21.6226 21.6623V21.6631ZM23.2698 17.0361H22.3656V15.6521H23.2698V17.0361ZM25.5448 17.0361H24.6328V15.6521H25.5363L25.5448 17.0361ZM27.8352 17.0361H26.4342V15.6521H27.8352V17.0361ZM30.0947 17.0361H29.2053V15.6521H30.0947V17.0361ZM36.1759 15.6521V17.0361H35.8241V15.6521H36.1759ZM37.3574 20.7402H34.6454V18.4491H37.3285V20.7402H37.3574ZM42.8108 17.0353H41.9215V15.6514H42.8108V17.0353ZM45.5819 17.0353H44.1823V15.6514H45.5819V17.0353ZM47.3763 17.0353H46.4715V15.6514H47.3763V17.0353ZM51.4738 15.6514H51.9354V17.0353H51.4688L51.4738 15.6514ZM48.7471 15.6514H49.6512V17.0353H48.7471V15.6514ZM50.3944 21.6623C49.9776 21.657 49.5792 21.4875 49.2843 21.1901C48.9893 20.8926 48.8211 20.4906 48.8155 20.0697C48.8098 19.6488 48.9671 19.2424 49.2539 18.9369C49.5407 18.6314 49.9342 18.451 50.3508 18.4342C50.7761 18.4364 51.1832 18.6081 51.4838 18.9118C51.7844 19.2155 51.954 19.6267 51.9559 20.0561C51.9557 20.4782 51.7912 20.8833 51.4977 21.184C51.2042 21.4846 50.8054 21.6567 50.3874 21.6631L50.3944 21.6623Z" fill="#BDBDBD"/>
</svg>
